<svg width="93" height="40" viewBox="0 0 93 40" fill="none" xmlns="http://www.w3.org/2000/svg">
<path d="M12.2269 12.2405C16.1192 12.2405 18.773 14.7658 18.773 18.5482H5.34559C5.34559 14.5311 8.80954 12.2405 12.2269 12.2405ZM12.3945 8.95437C5.89498 8.95437 0.475586 11.8736 0.475586 20.6824C0.475586 27.6615 4.11645 32.0566 12.5621 32.0566C22.507 32.0566 23.1402 25.1241 23.1402 25.1241H18.3261C18.3261 25.1241 17.2925 28.8562 12.2642 28.8562C8.17634 28.8562 5.23385 25.9324 5.23385 21.8306H23.643V19.2587C23.643 15.2072 21.2127 8.95437 12.3945 8.95437Z" fill="#A7A3B7"/>
<path d="M35.5619 12.3851C39.9756 12.3851 42.7785 15.851 42.7785 20.504C42.7785 25.4913 39.538 28.7551 35.5898 28.7551C30.8874 28.7551 28.3454 24.8637 28.3454 20.5468C28.3454 16.5307 30.6174 12.3851 35.5619 12.3851ZM23.643 0.422434V27.6312C23.643 29.176 23.5405 31.3428 23.5405 31.3428H28.1312C28.1312 31.3428 28.2988 29.7849 28.2988 28.3603C28.2988 28.3603 30.5615 32.1194 36.7352 32.1194C43.2347 32.1194 47.6485 27.3416 47.6485 20.4993C47.6485 14.1339 43.5886 9.01711 36.7445 9.01711C30.3287 9.01711 28.3454 12.6822 28.3454 12.6822V0.422434H23.643Z" fill="#A7A3B7"/>
<path d="M64.4373 21.0378V22.4588C64.4373 24.3127 63.3572 28.922 56.988 28.922C53.5054 28.922 52.0155 27.0802 52.0155 24.945C52.0155 21.0611 57.0439 21.0378 64.4373 21.0378ZM59.0645 8.95404C49.2779 8.95404 48.654 14.6211 48.654 15.5309H53.524C53.524 15.5309 53.7755 12.2206 58.7293 12.2206C61.9418 12.2206 64.4373 13.7784 64.4373 16.7759V17.8411H58.7293C51.1496 17.8411 47.1362 20.1867 47.1362 24.9487C47.1362 29.6362 50.8423 32.1848 55.8426 32.1848C62.6588 32.1848 64.8564 28.1957 64.8564 28.1957C64.8564 29.7805 64.9681 31.3458 64.9681 31.3458H69.298C69.298 31.3458 69.1304 29.4099 69.1304 28.1687V17.4547C69.1397 10.4337 63.7855 8.95404 59.0645 8.95404Z" fill="#A7A3B7"/>
<path d="M66.5137 9.84409H71.9889L79.8573 26.5139L87.6977 9.84409H92.6609L78.3767 39.5232H73.1715L77.2873 31.2488L66.5137 9.84409Z" fill="#A7A3B7"/>
</svg>
