<svg width="165" height="26" viewBox="0 0 165 26" fill="none" xmlns="http://www.w3.org/2000/svg">
<path d="M0.386356 16.8659C0.433845 16.567 0.481335 16.269 0.528824 15.9711C0.989752 12.9932 2.54201 10.844 5.31596 9.59628C6.64473 8.9994 8.03497 8.79548 9.45127 8.97892C11.6144 9.25734 13.432 10.2332 14.8018 11.9763C15.5541 12.9327 16.083 13.997 16.327 15.1907C16.4425 15.7532 16.503 16.3305 16.5105 16.9069C16.5309 19.2125 16.517 21.518 16.517 23.8236C16.517 24.251 16.503 24.265 16.083 24.265C14.3744 24.265 12.6722 24.2575 10.9635 24.2715C10.6311 24.2715 10.5361 24.1625 10.5361 23.8441C10.5435 21.6875 10.5435 19.5244 10.5435 17.3678C10.5435 16.364 10.3331 15.4282 9.7837 14.5734C9.19427 13.658 8.15695 13.5565 7.42412 14.3629C6.82072 15.0278 6.49575 15.8211 6.4883 16.703C6.46129 19.056 6.47526 21.4026 6.46781 23.7556C6.46781 24.2715 6.46781 24.2715 5.93891 24.2715H0.378906C0.386356 21.789 0.386356 19.3279 0.386356 16.8659Z" fill="#A7A3B7"/>
<path d="M106.861 19.5575C106.678 19.9235 106.359 20.2494 106.041 20.5204C105.621 20.8733 105.003 20.7718 104.522 20.3509C103.966 19.863 103.722 19.2046 103.58 18.5128C103.478 18.0183 103.437 17.5099 103.376 17.008C103.336 16.1197 103.566 15.2853 103.898 14.492C104.061 14.0916 104.386 13.7256 104.718 13.4407C105.193 13.0273 106.02 13.1762 106.461 13.6707C106.854 14.1121 107.078 14.6345 107.22 15.2034C107.586 16.6961 107.539 18.1608 106.861 19.5575ZM113.458 10.5243V4.04801C113.458 3.49862 113.344 2.9632 113.059 2.49482C112.36 1.33552 111.106 0.806616 109.77 1.09155C108.53 1.356 107.681 2.3598 107.539 3.36267C107.451 3.96048 107.431 4.5704 107.424 5.17379C107.41 6.39455 107.41 7.61531 107.431 8.83607C107.431 9.09401 107.342 9.13405 107.133 9.08004C106.97 9.03907 106.807 8.96458 106.644 8.96458C105.776 8.98506 104.902 8.95154 104.047 9.06607C102.753 9.22903 101.592 9.78493 100.549 10.5718C99.3827 11.4536 98.5344 12.5794 97.999 13.9426C97.4841 15.2583 97.2736 16.5936 97.4701 18.0118C97.6126 19.0221 97.9106 19.9645 98.3994 20.8463C99.5317 22.9079 101.294 24.1687 103.559 24.7525C104.65 25.03 105.756 25.0915 106.848 24.8605C108.007 24.6166 109.072 24.1556 110.075 23.4843C111.35 22.6295 112.184 21.4767 112.807 20.1274C113.309 19.0426 113.458 17.8824 113.458 16.6961C113.466 14.6345 113.458 12.5794 113.458 10.5243Z" fill="#A7A3B7"/>
<path d="M48.1076 19.5709C48.1011 19.7134 48.0871 19.8493 48.0871 19.9909C48.0871 21.3271 48.0806 22.6568 48.0936 23.9921C48.0936 24.291 47.9987 24.3795 47.7072 24.3795C45.9305 24.3655 44.1613 24.372 42.3847 24.3795C42.1137 24.3795 42.0317 24.2845 42.0317 24.02C42.0392 20.0523 42.0317 16.0856 42.0392 12.1179C42.0392 10.3822 43.205 9.18188 44.7507 9.03848C46.4939 8.87646 47.8227 10.0497 47.9987 11.5349C48.1281 12.6263 48.0666 13.739 48.0871 14.8443C48.0871 14.9728 48.1011 15.1088 48.1821 15.2717C48.2426 15.1898 48.3106 15.1153 48.3581 15.0268C49.2334 13.4466 50.1143 11.8739 50.9756 10.2872C51.5315 9.26289 52.9013 8.57755 54.1425 8.88297C55.2608 9.15394 56.0402 9.75827 56.4071 10.8366C56.6846 11.6495 56.6166 12.4633 56.2032 13.2297C55.4778 14.5454 54.7524 15.8546 54.0066 17.1564C53.8371 17.4553 53.8371 17.6788 54.0401 17.9768C54.8884 19.2255 55.7087 20.4928 56.5356 21.761C56.7861 22.1409 57.017 22.5413 57.234 22.9417C57.4575 23.3412 57.3904 23.7621 57.0031 24.0331C56.7591 24.2025 56.4341 24.3515 56.1427 24.359C54.6714 24.3925 53.2067 24.3655 51.7354 24.386C51.4635 24.386 51.3555 24.2296 51.2401 24.0601C50.5622 23.0498 49.8908 22.0329 49.2129 21.0217C48.8805 20.5272 48.5481 20.0384 48.2091 19.5439C48.1821 19.5504 48.1486 19.5644 48.1076 19.5709Z" fill="#A7A3B7"/>
<path d="M164.183 20.0731C164.183 21.3414 164.177 22.6022 164.191 23.8704C164.191 24.1628 164.102 24.2643 163.804 24.2643C162.055 24.2504 160.299 24.2504 158.549 24.2643C158.237 24.2643 158.129 24.1554 158.129 23.8499C158.135 21.6664 158.095 19.4902 158.149 17.3057C158.169 16.3773 157.946 15.5365 157.532 14.7422C156.888 13.5084 155.647 13.5624 154.976 14.4442C154.514 15.0476 154.175 15.706 154.162 16.4788C154.128 18.9269 154.115 21.3824 154.115 23.8369C154.115 24.1824 154.026 24.2708 153.681 24.2643C152.006 24.2438 150.338 24.2569 148.663 24.2569C148.127 24.2569 148.127 24.2569 148.127 23.7084C148.127 21.6254 148.154 19.5507 148.113 17.4687C148.1 16.4993 148.168 15.556 148.453 14.6342C148.697 13.8539 149.063 13.1425 149.518 12.4441C150.623 10.7615 152.162 9.75859 154.053 9.19523C155.057 8.89726 156.088 8.8358 157.105 8.97175C159.254 9.25669 161.057 10.2121 162.427 11.9422C163.221 12.945 163.722 14.0783 164.007 15.3121C164.102 15.7125 164.156 16.1334 164.163 16.5468C164.191 17.7201 164.177 18.8999 164.183 20.0731C164.177 20.0731 164.177 20.0731 164.183 20.0731Z" fill="#A7A3B7"/>
<path d="M66.2254 15.5906C65.717 15.5841 65.2076 15.5906 64.6992 15.5906C64.2047 15.5906 63.7028 15.5841 63.2075 15.5906C62.916 15.5971 62.794 15.4891 62.916 15.2107C63.1395 14.7088 63.3164 14.1669 63.6349 13.7394C64.1843 13.0141 65.1471 13.0541 65.7365 13.7599C66.0959 14.1873 66.3539 14.6753 66.5029 15.2181C66.5848 15.4751 66.5168 15.5906 66.2254 15.5906ZM71.8934 14.2479C71.6085 13.258 71.1205 12.3827 70.4557 11.5894C69.1204 9.9887 67.4117 9.1013 65.3436 8.9579C64.6657 8.91041 63.9738 8.9849 63.2959 9.06685C62.0826 9.20932 60.9838 9.69073 60.007 10.4031C57.7899 12.0373 56.6781 14.2339 56.6511 17.0153C56.6241 20.4802 59.0042 23.715 62.4076 24.6779C64.1433 25.1667 65.8725 25.1053 67.5541 24.4339C69.4258 23.688 70.8356 22.4263 71.6224 20.5342C71.8599 19.9652 72.0498 19.3749 72.0498 18.737C71.9884 18.7175 71.9474 18.697 71.8999 18.697C70.2192 18.697 68.53 18.6895 66.8493 18.7035C66.7468 18.7035 66.6248 18.819 66.5569 18.9139C66.3399 19.2259 66.1779 19.5853 65.9265 19.8768C65.1471 20.8061 63.9878 20.9886 63.282 19.7278C63.0315 19.2799 62.889 18.7715 62.7465 18.2761C62.6106 17.8087 62.6311 17.8021 63.133 17.8021H67.4722H71.8124C72.0359 17.8021 72.2193 17.7742 72.2398 17.4967C72.3003 16.3979 72.1923 15.3057 71.8934 14.2479Z" fill="#A7A3B7"/>
<path d="M86.3496 17.1639C86.3766 17.4013 86.4036 17.8622 86.4986 18.3166C86.6541 19.0495 86.912 19.7478 87.4614 20.2898C87.8069 20.6297 88.2073 20.8327 88.7157 20.6697C89.4411 20.4397 89.7735 19.8428 90.0174 19.2115C90.3974 18.2151 90.4448 17.1778 90.3359 16.1191C90.2679 15.4412 90.1059 14.8108 89.7865 14.2204C89.5425 13.7735 89.2381 13.3665 88.6821 13.2511C88.0108 13.1086 87.5424 13.414 87.1904 13.929C86.5665 14.8313 86.3691 15.8621 86.3496 17.1639ZM88.3628 8.9314C92.7365 8.86342 96.4658 12.4913 96.4118 17.0419C96.3578 21.382 92.9199 24.9698 88.4102 24.9829C83.9555 24.9968 80.3892 21.5245 80.3622 16.9804C80.3212 12.5387 83.881 8.91743 88.3628 8.9314Z" fill="#A7A3B7"/>
<path d="M140.628 19.4494C140.465 19.8153 140.194 20.1682 139.888 20.4327C139.217 21.0091 138.281 20.7176 137.766 19.8358C137.318 19.063 137.068 18.0182 137.082 16.5944C137.115 15.8551 137.305 14.8317 137.923 13.895C138.533 12.9796 139.733 13.0206 140.302 13.9089C141.048 15.0822 140.987 15.6176 140.987 15.6176C141.285 16.9194 141.171 18.2221 140.628 19.4494ZM147.124 16.8384C147.062 12.4442 143.516 8.92439 139.136 8.92439C134.599 8.91043 131.033 12.4917 131.081 17.0423C131.128 21.4495 134.572 24.9768 139.116 24.9768C143.611 24.9833 147.184 21.348 147.124 16.8384Z" fill="#A7A3B7"/>
<path d="M120.619 15.2443C120.801 14.6949 120.964 14.1455 121.357 13.6846C121.825 13.1352 122.958 13.0467 123.493 13.6781C123.893 14.153 124.158 14.6884 124.34 15.2778C124.408 15.5022 124.327 15.5907 124.096 15.5907C123.547 15.5832 122.991 15.5907 122.442 15.5907C121.927 15.5907 121.404 15.5832 120.89 15.5907C120.625 15.5907 120.53 15.5087 120.619 15.2443ZM120.815 17.8013H129.121C129.277 17.8013 129.439 17.7668 129.596 17.7743C129.84 17.7873 129.894 17.6653 129.908 17.4484C129.995 16.1531 129.846 14.8988 129.379 13.6716C128.776 12.0839 127.724 10.8836 126.328 9.99531C124.395 8.76803 122.28 8.64604 120.137 9.28296C118.035 9.90778 116.414 11.2095 115.397 13.1687C114.191 15.4883 114.109 17.8758 115.16 20.2894C115.702 21.5381 116.55 22.5484 117.621 23.3827C118.468 24.0401 119.412 24.488 120.462 24.745C122.361 25.2134 124.198 25.0709 125.941 24.2235C127.751 23.3417 129.02 21.9375 129.636 19.9979C129.765 19.5984 129.826 19.1776 129.921 18.7641C129.819 18.7297 129.792 18.7101 129.758 18.7101C128.084 18.7101 126.416 18.7027 124.741 18.7231C124.612 18.7231 124.456 18.8656 124.367 18.9811C124.11 19.32 123.92 19.7139 123.636 20.0258C122.836 20.8797 121.947 20.8322 121.167 19.9579C120.754 19.4895 120.632 18.9001 120.449 18.3302C120.286 17.8618 120.347 17.8013 120.815 17.8013Z" fill="#A7A3B7"/>
<path d="M40.8521 16.1397C40.6621 16.1537 40.5541 16.1602 40.4452 16.1602C38.716 16.1602 36.9877 16.1537 35.2586 16.1668C34.9801 16.1668 34.8246 16.1062 34.7902 15.7943C34.7092 15.1499 34.4987 14.5465 34.1263 14.0037C33.4819 13.0678 32.4176 13.0269 31.7257 13.9292C31.1763 14.6415 30.9463 15.4619 30.8513 16.3437C30.7359 17.408 30.9594 18.3978 31.3663 19.3607C31.6242 19.965 32.0581 20.439 32.7221 20.5889C33.3255 20.7239 33.9158 20.3915 34.2613 19.6726C34.5462 19.0832 34.7231 18.4453 34.9531 17.828C34.9261 17.8084 34.8926 17.7944 34.8647 17.7739C34.9736 17.7674 35.0891 17.7469 35.1971 17.7469H40.3502C40.7171 17.7469 40.7776 17.8084 40.7171 18.1669C40.1677 21.3077 38.3845 23.4299 35.4075 24.5417C33.8618 25.119 32.2751 25.1665 30.7154 24.7046C27.6034 23.7763 25.6228 21.7072 24.9924 18.5133C24.403 15.5159 25.3109 12.9384 27.5829 10.8842C28.6678 9.90093 29.9695 9.32453 31.4138 9.0666C33.7733 8.64571 35.9094 9.18206 37.7941 10.6123C39.2998 11.7586 40.2962 13.2848 40.6891 15.1695C40.7301 15.4684 40.7841 15.7803 40.8521 16.1397Z" fill="#A7A3B7"/>
<path d="M73.3584 13.8477C73.3584 10.6063 73.3649 7.35744 73.3584 4.11604C73.3584 3.08524 73.7383 2.25091 74.5447 1.61399C75.8735 0.562702 77.9891 0.955658 78.8849 2.39338C79.2713 3.01074 79.4138 3.68863 79.4138 4.39446C79.4203 10.8568 79.4203 17.3265 79.4203 23.7898C79.4203 24.2507 79.3998 24.2646 78.9454 24.2646H73.8603C73.3649 24.2646 73.3649 24.2646 73.3584 23.7553V13.8477Z" fill="#A7A3B7"/>
<path d="M17.6094 18.432C17.6094 16.8044 17.6289 15.1767 17.6019 13.549C17.5814 12.4502 17.9483 11.5489 18.7612 10.8095C19.1011 10.4976 19.4261 10.1651 19.738 9.81967C20.2055 9.30381 20.2464 8.82239 19.833 8.25904C19.5825 7.92009 19.2771 7.60815 18.9717 7.31017C18.2668 6.6118 17.6224 5.88642 17.4595 4.85468C17.304 3.84437 17.5479 2.95603 18.1923 2.17665C19.1616 1.00989 20.4224 0.697952 21.8201 1.08439C23.0195 1.41681 23.7923 2.27163 24.1182 3.49239C24.4032 4.54274 24.2132 5.51302 23.5288 6.35387C23.0874 6.89674 22.5725 7.37163 22.0976 7.88657C21.9281 8.07001 21.7652 8.25904 21.6302 8.46296C21.3108 8.93786 21.3108 9.29077 21.6842 9.73121C22.1116 10.2396 22.5725 10.721 23.0539 11.1894C23.6229 11.7388 23.9152 12.4027 23.9152 13.1831C23.9218 16.7234 23.9152 20.2562 23.9218 23.7965C23.9218 24.088 23.8333 24.1895 23.5353 24.1895C21.7047 24.1755 19.874 24.1755 18.0433 24.1895C17.7239 24.1895 17.6094 24.101 17.6159 23.7695C17.6224 21.9789 17.6159 20.2022 17.6094 18.432Z" fill="#A7A3B7"/>
</svg>
