<svg width="32" height="40" viewBox="0 0 32 40" fill="none" xmlns="http://www.w3.org/2000/svg">
<path fill-rule="evenodd" clip-rule="evenodd" d="M18.0002 2C18.0002 1.46957 17.7895 0.960859 17.4144 0.585786C17.0393 0.210714 16.5306 0 16.0002 0C15.4698 0 14.9611 0.210714 14.586 0.585786C14.2109 0.960859 14.0002 1.46957 14.0002 2V3.5H12.8862C10.7423 3.49986 8.67886 4.31679 7.11605 5.78447C5.55324 7.25216 4.60852 9.26027 4.47421 11.4L4.03221 18.468C3.86366 21.1629 2.95881 23.7599 1.41621 25.976C1.09747 26.4341 0.902721 26.9669 0.850891 27.5226C0.799062 28.0783 0.891919 28.638 1.12043 29.1471C1.34894 29.6563 1.70533 30.0977 2.15494 30.4283C2.60455 30.7589 3.13207 30.9676 3.68621 31.034L10.5002 31.85V34C10.5002 35.4587 11.0797 36.8576 12.1111 37.8891C13.1426 38.9205 14.5415 39.5 16.0002 39.5C17.4589 39.5 18.8578 38.9205 19.8893 37.8891C20.9207 36.8576 21.5002 35.4587 21.5002 34V31.85L28.3142 31.032C28.868 30.9654 29.3952 30.7567 29.8445 30.4262C30.2938 30.0957 30.65 29.6546 30.8785 29.1457C31.107 28.6369 31.1999 28.0775 31.1484 27.5221C31.0968 26.9667 30.9024 26.4341 30.5842 25.976C29.0415 23.7599 28.1366 21.1629 27.9682 18.468L27.5262 11.402C27.3924 9.26192 26.4479 7.25331 24.885 5.7852C23.3222 4.3171 21.2585 3.49989 19.1142 3.5H18.0002V2ZM12.8862 6.5C11.5054 6.49983 10.1763 7.02594 9.16976 7.97122C8.16318 8.91649 7.5547 10.2099 7.46821 11.588L7.02821 18.656C6.82489 21.898 5.73604 25.022 3.88021 27.688C3.85714 27.7211 3.84304 27.7597 3.83928 27.7999C3.83551 27.84 3.84221 27.8805 3.85872 27.9174C3.87522 27.9542 3.90098 27.9862 3.93348 28.0101C3.96599 28.034 4.00413 28.0492 4.04421 28.054L11.5182 28.952C14.4962 29.308 17.5042 29.308 20.4822 28.952L27.9562 28.054C27.9963 28.0492 28.0344 28.034 28.0669 28.0101C28.0994 27.9862 28.1252 27.9542 28.1417 27.9174C28.1582 27.8805 28.1649 27.84 28.1611 27.7999C28.1574 27.7597 28.1433 27.7211 28.1202 27.688C26.2651 25.0218 25.1769 21.8978 24.9742 18.656L24.5322 11.588C24.4457 10.2099 23.8372 8.91649 22.8306 7.97122C21.8241 7.02594 20.4951 6.49983 19.1142 6.5H12.8862ZM16.0002 36.5C14.6202 36.5 13.5002 35.38 13.5002 34V32.5H18.5002V34C18.5002 35.38 17.3802 36.5 16.0002 36.5Z" fill="#5957C1"/>
</svg>
