<svg width="144" height="24" viewBox="0 0 144 24" fill="none" xmlns="http://www.w3.org/2000/svg">
<path d="M56.5376 3.82252C56.4538 4.23782 56.3793 4.62053 56.3142 5.00324C55.802 7.77905 55.2899 10.5558 54.787 13.3279C54.2749 16.1158 53.7628 18.9046 53.2599 21.6972C53.2506 21.7252 53.2506 21.7494 53.2413 21.7782C53.1389 22.3155 53.1296 22.3323 52.5895 22.3323H48.4551C47.8871 22.3323 47.8685 22.3202 47.766 21.7698C47.3563 19.5555 46.9466 17.3412 46.5462 15.1269C46.1179 12.8064 45.6988 10.4822 45.2705 8.16176C45.0284 6.83857 44.7956 5.52004 44.5535 4.19685C44.5349 4.09163 44.5069 3.98548 44.479 3.86722C44.3766 3.96499 44.4231 4.08697 44.4231 4.18847C44.4138 5.12523 44.4231 6.06105 44.4138 6.9978C44.3393 11.6378 44.3393 16.2788 44.3207 20.915C44.3207 21.2819 44.2928 21.6479 44.2648 22.0101C44.2462 22.2624 44.1997 22.3118 43.9389 22.3239C43.6782 22.336 43.4175 22.3276 43.1568 22.3276H39.7207C39.609 22.3276 39.5066 22.3323 39.3948 22.3239C39.1434 22.2997 39.0969 22.2541 39.0876 21.9943C39.0782 21.9002 39.0782 21.8024 39.0876 21.7093C39.1062 19.9466 39.1527 18.1839 39.1993 16.4212C39.2365 15.1874 39.2086 13.9499 39.2738 12.7208C39.339 11.459 39.2924 10.1973 39.3576 8.93929C39.4228 7.70549 39.3669 6.4689 39.4414 5.23883C39.4973 4.15215 39.4786 3.06921 39.5066 1.98626C39.5066 1.91735 39.5159 1.85217 39.5159 1.78326C39.5345 1.59144 39.6276 1.48157 39.8325 1.48157C39.9442 1.48157 40.0467 1.47784 40.1584 1.47784H47.3563H47.5612C47.9336 1.48995 47.9709 1.51881 48.0361 1.89314C48.5575 5.19041 49.079 8.48302 49.6004 11.7803C49.8705 13.5225 50.1498 15.2656 50.4292 17.0032C50.4385 17.0684 50.4664 17.1298 50.4944 17.2518C50.6154 16.9222 50.634 16.6326 50.6806 16.3477C51.3138 12.3958 51.947 8.4467 52.5709 4.49389C52.7105 3.62325 52.8409 2.75168 52.9899 1.88104C53.0551 1.50578 53.0923 1.47784 53.4741 1.47784C55.9976 1.47412 58.5117 1.47412 61.0445 1.47784C61.4449 1.47784 61.5101 1.54302 61.5194 1.95832C61.5287 2.45929 61.538 2.96399 61.538 3.46402C61.5473 5.25559 61.6125 7.04623 61.6497 8.83314C61.6684 10.0958 61.6591 11.3575 61.7242 12.6155C61.7894 13.8484 61.7429 15.0859 61.808 16.316C61.8639 17.5898 61.836 18.8637 61.8918 20.1375C61.9105 20.7074 61.9384 21.2773 61.9384 21.8434C61.9477 22.2913 61.9105 22.3276 61.4542 22.3276C60.0481 22.3323 58.6421 22.3276 57.236 22.3276C57.1522 22.3276 57.0684 22.3239 56.9939 22.3202C56.8263 22.3118 56.7332 22.2261 56.7239 22.0678C56.7052 21.9449 56.7052 21.8229 56.7052 21.7009C56.6959 18.8395 56.7239 15.9733 56.668 13.1119C56.6121 10.1116 56.6307 7.11606 56.6028 4.11956C56.5935 4.03855 56.6214 3.94451 56.5376 3.82252Z" fill="#A7A3B7"/>
<path d="M118.684 17.5652C118.758 17.3865 118.73 17.2514 118.73 17.122C118.73 14.6386 118.646 12.1598 118.618 9.67639C118.591 8.03568 118.6 6.39496 118.535 4.75517C118.507 3.85939 118.497 2.96361 118.479 2.07248C118.479 1.97843 118.47 1.88066 118.479 1.78754C118.497 1.53892 118.544 1.49795 118.814 1.4784C118.879 1.47374 118.944 1.47374 119.019 1.47374H123.107C123.619 1.47374 123.647 1.49795 123.647 1.99892V7.29074V21.4119C123.647 22.1038 123.647 22.1038 122.948 22.1038H116.933H116.691C116.281 22.0954 116.253 22.0842 116.142 21.7052C115.909 20.9398 115.676 20.1707 115.453 19.4052C114.559 16.4413 113.674 13.4784 112.789 10.5144C112.314 8.93146 111.83 7.34382 111.355 5.76083C111.327 5.67051 111.3 5.58112 111.253 5.45076C111.178 5.57274 111.197 5.67889 111.197 5.77294C111.206 6.80281 111.178 7.83641 111.225 8.86628C111.3 10.4781 111.244 12.0946 111.309 13.7065C111.374 15.3593 111.327 17.0159 111.393 18.6687C111.43 19.5887 111.43 20.5124 111.449 21.4324C111.458 21.5665 111.449 21.7052 111.449 21.8393C111.439 21.9985 111.355 22.0879 111.197 22.0954C111.104 22.1 111.002 22.1038 110.908 22.1038H106.895C106.802 22.1038 106.709 22.1 106.606 22.0954C106.448 22.0879 106.364 22.0023 106.355 21.8393C106.346 21.7294 106.346 21.6233 106.346 21.5134V2.06038V1.97843C106.346 1.5026 106.374 1.47374 106.858 1.47374H113.525C114 1.47374 114.019 1.4905 114.149 1.94584C115.602 7.00208 117.063 12.062 118.525 17.1174C118.572 17.2561 118.628 17.3902 118.684 17.5652Z" fill="#A7A3B7"/>
<path d="M100.731 9.5709V16.5724C100.731 17.3052 100.675 18.038 100.508 18.7541C100.107 20.4358 99.0735 21.5876 97.4905 22.259C96.6339 22.6175 95.7493 22.8168 94.8367 22.8782C93.4679 22.9713 92.1084 22.976 90.7582 22.6659C89.9202 22.4713 89.1193 22.1733 88.4024 21.6733C87.0801 20.7486 86.4748 19.4301 86.3072 17.8751C86.2234 17.1301 86.2327 16.3852 86.2327 15.6403V2.16626C86.2327 1.4744 86.2327 1.4744 86.9311 1.4744H90.8606C90.9724 1.4744 91.0748 1.47812 91.1865 1.47812C91.3821 1.47812 91.4938 1.57217 91.4938 1.77517V2.18209V16.4299C91.4938 16.7968 91.5124 17.1627 91.559 17.5249C91.6614 18.3593 92.2574 18.9664 93.1047 19.0716C93.3841 19.1089 93.6728 19.1042 93.9614 19.0595C94.7622 18.9338 95.3023 18.3639 95.4047 17.5613C95.4513 17.199 95.4699 16.8331 95.4699 16.4662C95.4606 11.6921 95.4699 6.91707 95.4699 2.13832C95.4699 1.4744 95.4699 1.4744 96.1497 1.4744H100.247C100.694 1.4744 100.731 1.51072 100.731 1.96326V9.5709Z" fill="#A7A3B7"/>
<path d="M134.113 11.8991C134.113 13.5966 134.122 15.2904 134.113 16.9879C134.113 17.4517 134.206 17.8744 134.513 18.2329C134.644 18.3791 134.783 18.5058 134.951 18.5914C135.78 19.0104 136.608 19.0188 137.419 18.5868C137.828 18.3754 138.07 18.0132 138.191 17.5737C138.247 17.3502 138.284 17.122 138.284 16.8902V14.1218C138.284 13.7354 138.247 13.7065 137.856 13.7028C137.437 13.6981 137.018 13.7065 136.59 13.6981C136.245 13.6907 136.18 13.633 136.171 13.2959V10.8935C136.18 10.6048 136.217 10.5759 136.506 10.5433C136.646 10.5312 136.785 10.5275 136.916 10.5275H142.894C143.527 10.5275 143.536 10.5396 143.536 11.1626C143.536 12.8601 143.546 14.5529 143.536 16.2505C143.527 16.9544 143.49 17.6593 143.331 18.3512C142.94 20.085 141.888 21.2657 140.277 21.9781C139.337 22.3971 138.34 22.5889 137.307 22.682C136.115 22.7919 134.942 22.723 133.768 22.4911C132.837 22.3077 131.953 21.9865 131.17 21.4445C129.783 20.4919 129.103 19.1445 128.954 17.5001C128.842 16.2542 128.889 15.0046 128.889 13.7596C128.88 11.7241 128.889 9.68852 128.88 7.65299C128.88 7.01421 128.936 6.37915 129.029 5.74875C129.373 3.60707 130.584 2.18611 132.623 1.44117C133.442 1.1404 134.308 0.985832 135.174 0.929029C136.795 0.822876 138.396 0.91227 139.933 1.48214C141.86 2.19076 143.024 3.55027 143.378 5.57369C143.508 6.32608 143.471 7.08777 143.471 7.84481C143.471 8.10088 143.406 8.14186 143.145 8.16234C143.033 8.17072 142.931 8.16607 142.819 8.16607H138.853C138.741 8.16607 138.638 8.16234 138.527 8.16234C138.322 8.16234 138.229 8.05246 138.229 7.85692C138.219 7.73493 138.219 7.61295 138.219 7.49097C138.219 7.13619 138.229 6.78235 138.201 6.43223C138.136 5.47965 137.474 4.82783 136.525 4.74309C136.506 4.74309 136.497 4.74309 136.478 4.73844C134.904 4.60062 134.104 5.46754 134.113 6.88012C134.131 8.56088 134.113 10.2305 134.113 11.8991Z" fill="#A7A3B7"/>
<path d="M3.00672 15.3997H5.17541C5.7695 15.3997 5.78533 15.4156 5.78533 16.0264C5.78533 16.4743 5.79371 16.9222 5.78533 17.3701C5.76112 18.4689 6.35427 19.1849 7.60297 19.2957C7.86462 19.32 8.1179 19.2874 8.37584 19.2343C9.19713 19.0676 9.66271 18.5629 9.78376 17.7481C9.91413 16.8077 9.67202 16.0227 8.92709 15.3793C8.17936 14.7321 7.332 14.2479 6.48091 13.759C5.24153 13.0513 3.96396 12.3958 2.82701 11.5205C2.00013 10.8808 1.2673 10.1647 0.812892 9.20375C0.677872 8.91881 0.575444 8.63015 0.501882 8.32473C0.211357 7.06672 0.260709 5.81337 0.653662 4.58795C1.17325 2.96772 2.33163 1.96206 3.90344 1.3838C4.91003 1.01413 5.95759 0.851173 7.02937 0.822306C8.24547 0.789715 9.45785 0.826962 10.6404 1.13983C11.3854 1.33538 12.0931 1.61659 12.7263 2.06448C13.825 2.84946 14.3837 3.94451 14.542 5.2556C14.6165 5.87482 14.6445 6.49684 14.6165 7.12352C14.6072 7.53882 14.5607 7.5919 14.1416 7.5919C12.7076 7.59655 11.2736 7.59655 9.84894 7.5919C9.42061 7.5919 9.39267 7.55186 9.38336 7.11607C9.38336 6.77806 9.39267 6.43632 9.37405 6.0983C9.32749 5.10847 8.66636 4.46131 7.66815 4.42965C7.5741 4.425 7.4754 4.425 7.38135 4.42965C6.29281 4.47435 5.62982 5.20624 5.66707 6.29385C5.68756 6.90004 5.90452 7.39263 6.35427 7.79955C7.07034 8.44298 7.91398 8.88622 8.75017 9.34622C9.86757 9.96544 11.0129 10.539 12.0744 11.2681C12.7821 11.7561 13.4339 12.3017 13.9833 12.9694C14.5513 13.6612 14.8959 14.4434 15.0169 15.3262C15.1752 16.5237 15.1194 17.7118 14.8586 18.8842C14.4862 20.5249 13.4712 21.6479 11.9534 22.3444C10.985 22.7839 9.95137 22.9711 8.89915 23.0726C7.66815 23.1955 6.44832 23.1256 5.23687 22.9059C4.41465 22.755 3.62874 22.4869 2.89591 22.0799C1.41443 21.2531 0.5801 19.9792 0.289575 18.3348C0.137795 17.4716 0.207633 16.6009 0.202977 15.7331C0.202977 15.4482 0.264434 15.3997 0.592205 15.396C1.3986 15.396 2.20033 15.3997 3.00672 15.3997Z" fill="#A7A3B7"/>
<path d="M26.7774 3.5913C26.6377 3.88462 26.6377 4.11648 26.6098 4.33624C26.2746 6.53472 25.9487 8.73694 25.6228 10.9345C25.2876 13.1898 24.9523 15.4413 24.6264 17.6957C24.4216 19.0394 24.226 20.3784 24.0305 21.7221C23.9374 22.3208 23.928 22.3329 23.3042 22.3329H18.9277C18.8439 22.3329 18.7601 22.3366 18.6763 22.3283C18.369 22.3087 18.3224 22.2631 18.369 21.9502C18.4714 21.3477 18.5925 20.749 18.6949 20.1465C19.4026 16.2636 20.1196 12.3797 20.8273 8.49669C21.209 6.37549 21.6001 4.2543 21.9912 2.12937C22.0098 1.99528 22.0378 1.86492 22.0657 1.73083C22.103 1.56043 22.2054 1.47476 22.3823 1.4701C22.494 1.4701 22.5965 1.46638 22.7082 1.46638H30.7349C31.3029 1.46638 31.3122 1.46638 31.4146 2.03253C32.2061 6.43695 33.0069 10.8414 33.8077 15.2458C34.1988 17.3949 34.5899 19.5441 34.981 21.6895C35.1021 22.3124 35.0834 22.3245 34.4409 22.3245H30.1017H29.8968C29.543 22.3124 29.4964 22.2677 29.4406 21.9381C29.3288 21.1606 29.2171 20.3831 29.1053 19.6009C28.7887 17.4275 28.4721 15.2532 28.1649 13.0762C27.839 10.874 27.5317 8.67175 27.2151 6.47327C27.0661 5.54955 26.9264 4.61279 26.7774 3.5913Z" fill="#A7A3B7"/>
<path d="M69.6109 15.3872C70.3838 15.3872 71.166 15.3835 71.9481 15.3872C72.3392 15.3909 72.3858 15.4356 72.3951 15.8388C72.4044 16.3807 72.3951 16.9264 72.4044 17.4674C72.4137 18.379 72.8979 18.9657 73.8012 19.1649C74.2295 19.2627 74.6578 19.2422 75.0955 19.1361C75.7101 18.9861 76.0918 18.5988 76.2595 18.0047C76.5295 17.0558 76.3619 16.2094 75.6356 15.4971C75.1607 15.025 74.602 14.659 74.034 14.3089C72.8141 13.564 71.5291 12.9289 70.3279 12.1514C69.5737 11.6625 68.866 11.1047 68.2607 10.4418C67.5158 9.63163 67.1061 8.66694 67.0036 7.57934C66.9385 6.8102 66.9664 6.0364 67.1247 5.27191C67.5158 3.42354 68.6332 2.21488 70.3745 1.54258C71.2591 1.2055 72.1809 1.04627 73.1307 0.965258C74.3133 0.862829 75.4959 0.932667 76.6692 1.14032C77.3489 1.25764 77.9914 1.47367 78.606 1.78748C79.9562 2.48772 80.7477 3.58649 81.0084 5.07636C81.1388 5.80453 81.0829 6.53736 81.0829 7.27019C81.0829 7.55141 81.027 7.59983 80.7384 7.60821C80.3473 7.62031 79.9562 7.61193 79.5558 7.61193H76.4084C75.9708 7.61193 75.9335 7.57562 75.9242 7.15659C75.9242 6.89959 75.9149 6.63979 75.9242 6.38279C75.9708 4.88082 74.8534 4.35936 73.6615 4.5428C72.8886 4.66106 72.451 5.10057 72.302 5.86972C72.153 6.61465 72.3299 7.26181 72.8886 7.80003C73.4939 8.3699 74.2109 8.76379 74.9186 9.16326C76.1291 9.84301 77.3862 10.4539 78.5315 11.2388C79.1275 11.6467 79.7048 12.0862 80.1983 12.6151C80.9246 13.4047 81.4088 14.3089 81.5206 15.3956C81.6323 16.4822 81.6044 17.5652 81.3902 18.636C81.0457 20.4183 79.9562 21.6074 78.308 22.316C77.4048 22.6987 76.455 22.9054 75.4959 22.9669C74.183 23.0479 72.87 23.0479 71.585 22.7509C70.7842 22.5683 70.0113 22.2992 69.3036 21.8635C67.9069 20.9965 67.1433 19.7227 66.9105 18.1146C66.7988 17.3333 66.836 16.5437 66.836 15.7578C66.836 15.4356 66.8919 15.3909 67.2364 15.3872C68.0279 15.3835 68.8194 15.3872 69.6109 15.3872Z" fill="#A7A3B7"/>
</svg>
