<svg width="40" height="38" viewBox="0 0 40 38" fill="none" xmlns="http://www.w3.org/2000/svg">
<path d="M12 31C12.7956 31 13.5587 31.3161 14.1213 31.8787C14.6839 32.4413 15 33.2044 15 34C15 34.7956 14.6839 35.5587 14.1213 36.1213C13.5587 36.6839 12.7956 37 12 37C11.2044 37 10.4413 36.6839 9.87868 36.1213C9.31607 35.5587 9 34.7956 9 34C9 33.2044 9.31607 32.4413 9.87868 31.8787C10.4413 31.3161 11.2044 31 12 31ZM30 31C30.7956 31 31.5587 31.3161 32.1213 31.8787C32.6839 32.4413 33 33.2044 33 34C33 34.7956 32.6839 35.5587 32.1213 36.1213C31.5587 36.6839 30.7956 37 30 37C29.2044 37 28.4413 36.6839 27.8787 36.1213C27.3161 35.5587 27 34.7956 27 34C27 33.2044 27.3161 32.4413 27.8787 31.8787C28.4413 31.3161 29.2044 31 30 31Z" stroke="#5957C1" stroke-width="2"/>
<path d="M1 1L1.522 1.184C4.126 2.098 5.428 2.556 6.172 3.646C6.916 4.736 6.916 6.182 6.916 9.076V14.52C6.916 20.404 7.042 22.344 8.776 24.172C10.508 26 13.296 26 18.876 26H21M29.48 26C32.602 26 34.164 26 35.268 25.1C36.37 24.2 36.686 22.672 37.316 19.614L38.316 14.766C39.01 11.286 39.356 9.548 38.468 8.394C37.582 7.24 34.548 7.24 31.178 7.24H19.048M6.916 7.24H11" stroke="#5957C1" stroke-width="2" stroke-linecap="round"/>
</svg>
