<svg width="11" height="16" viewBox="0 0 11 16" fill="none" xmlns="http://www.w3.org/2000/svg">
<mask id="mask0_466_27331" style="mask-type:luminance" maskUnits="userSpaceOnUse" x="0" y="0" width="11" height="16">
<path d="M5.90521 15.3606C7.21301 15.0832 7.78764 13.4879 6.88639 12.4329C6.77099 12.2983 6.76809 12.3452 6.83558 12.1619C7.13388 11.3554 7.43324 10.549 7.73233 9.74252C8.7638 6.9616 9.79501 4.18068 10.826 1.3995C10.8768 1.26282 10.9329 1.12721 10.9718 0.986809C11.12 0.451566 10.6655 -0.10579 10.0475 0.0210275C9.88949 0.0532646 9.76377 0.141716 9.64069 0.240293C8.31251 1.30225 6.98353 2.36288 5.65455 3.42404C5.6454 3.4313 5.6362 3.43852 5.62701 3.44568C5.55331 3.50307 5.45913 3.51813 5.38643 3.45948C4.31763 2.60639 3.24883 1.75304 2.18004 0.899422C1.88359 0.662572 1.5861 0.426788 1.29045 0.188607C1.11602 0.048202 0.920413 -0.0154728 0.697284 0.0031768C0.341549 0.0330161 0.0347881 0.338072 0.0035553 0.695877C-0.00888538 0.838679 0.0114975 0.974821 0.0620527 1.11043C0.36538 1.92062 0.665256 2.73214 0.966201 3.54367C2.03499 6.42742 3.10326 9.31145 4.17523 12.1941C4.25624 12.4127 4.04402 12.6012 3.93819 12.8089C3.76032 13.1578 3.70621 13.5373 3.78535 13.944C3.94919 14.787 4.68343 15.4 5.53174 15.4C5.65429 15.4 5.77922 15.3872 5.90521 15.3606ZM8.44247 3.32334C8.08674 4.28645 7.72941 5.24877 7.37262 6.21135C6.77629 7.81921 6.18021 9.42654 5.58415 11.0341C5.5792 11.0473 5.57425 11.0604 5.56925 11.0736C5.53908 11.1534 5.46081 11.1649 5.4309 11.085C5.22471 10.5333 5.02116 9.9807 4.81656 9.42841C4.07015 7.41532 3.32348 5.40223 2.57839 3.38834C2.54531 3.29769 2.6149 3.26293 2.69063 3.32274C2.93993 3.51963 3.18911 3.7164 3.43756 3.91426C3.94999 4.32242 4.46188 4.73084 4.97299 5.14087C5.23158 5.34814 5.51268 5.38944 5.81944 5.26929C5.90282 5.23652 5.97191 5.18137 6.04099 5.12622C6.45946 4.79186 6.87766 4.45776 7.29639 4.12367C7.64947 3.84126 8.0031 3.55912 8.35698 3.27751C8.35809 3.27663 8.35919 3.27573 8.36029 3.27483C8.41699 3.22831 8.46756 3.25443 8.44247 3.32334Z" fill="white"/>
</mask>
<g mask="url(#mask0_466_27331)">
<path d="M5.90521 15.3606C7.21301 15.0832 7.78764 13.4879 6.88639 12.4329C6.77099 12.2983 6.76809 12.3452 6.83558 12.1619C7.13388 11.3554 7.43324 10.549 7.73233 9.74252C8.7638 6.9616 9.79501 4.18068 10.826 1.3995C10.8768 1.26282 10.9329 1.12721 10.9718 0.986809C11.12 0.451566 10.6655 -0.10579 10.0475 0.0210275C9.88949 0.0532646 9.76377 0.141716 9.64069 0.240293C8.31251 1.30225 6.98353 2.36288 5.65455 3.42404C5.6454 3.4313 5.6362 3.43852 5.62701 3.44568C5.55331 3.50307 5.45913 3.51813 5.38643 3.45948C4.31763 2.60639 3.24883 1.75304 2.18004 0.899422C1.88359 0.662572 1.5861 0.426788 1.29045 0.188607C1.11602 0.048202 0.920413 -0.0154728 0.697284 0.0031768C0.341549 0.0330161 0.0347881 0.338072 0.0035553 0.695877C-0.00888538 0.838679 0.0114975 0.974821 0.0620527 1.11043C0.36538 1.92062 0.665256 2.73214 0.966201 3.54367C2.03499 6.42742 3.10326 9.31145 4.17523 12.1941C4.25624 12.4127 4.04402 12.6012 3.93819 12.8089C3.76032 13.1578 3.70621 13.5373 3.78535 13.944C3.94919 14.787 4.68343 15.4 5.53174 15.4C5.65429 15.4 5.77922 15.3872 5.90521 15.3606ZM8.44247 3.32334C8.08674 4.28645 7.72941 5.24877 7.37262 6.21135C6.77629 7.81921 6.18021 9.42654 5.58415 11.0341C5.5792 11.0473 5.57425 11.0604 5.56925 11.0736C5.53908 11.1534 5.46081 11.1649 5.4309 11.085C5.22471 10.5333 5.02116 9.9807 4.81656 9.42841C4.07015 7.41532 3.32348 5.40223 2.57839 3.38834C2.54531 3.29769 2.6149 3.26293 2.69063 3.32274C2.93993 3.51963 3.18911 3.7164 3.43756 3.91426C3.94999 4.32242 4.46188 4.73084 4.97299 5.14087C5.23158 5.34814 5.51268 5.38944 5.81944 5.26929C5.90282 5.23652 5.97191 5.18137 6.04099 5.12622C6.45946 4.79186 6.87766 4.45776 7.29639 4.12367C7.64947 3.84126 8.0031 3.55912 8.35698 3.27751C8.35809 3.27663 8.35919 3.27573 8.36029 3.27483C8.41699 3.22831 8.46756 3.25443 8.44247 3.32334Z" fill="#281E59"/>
</g>
<mask id="mask1_466_27331" style="mask-type:luminance" maskUnits="userSpaceOnUse" x="4" y="5" width="3" height="4">
<path d="M5.54569 8.90051C5.82202 7.93952 6.09808 6.97853 6.37388 6.01755C6.39773 5.93524 6.33734 5.87583 6.25169 5.87322C5.92287 5.8632 5.12672 5.86052 4.76025 5.86879C4.66515 5.87093 4.60187 5.94368 4.62804 6.03513C4.7273 6.38575 4.82919 6.73609 4.92977 7.08644C5.10419 7.69202 5.27862 8.29733 5.45279 8.90317C5.45368 8.90629 5.45451 8.90944 5.45533 8.91261C5.46975 8.96899 5.52997 8.95654 5.54569 8.90051Z" fill="white"/>
</mask>
<g mask="url(#mask1_466_27331)">
<path d="M5.54374 8.90038C5.82007 7.9394 6.09613 6.97841 6.37193 6.01743C6.39578 5.93512 6.33539 5.87571 6.24974 5.8731C5.92092 5.86308 5.12477 5.8604 4.7583 5.86867C4.6632 5.87081 4.59992 5.94356 4.62609 6.03501C4.72534 6.38562 4.82723 6.73597 4.92781 7.08632C5.10224 7.69189 5.27667 8.29721 5.45083 8.90305C5.45172 8.90617 5.45256 8.90932 5.45337 8.91249C5.4678 8.96887 5.52802 8.95642 5.54374 8.90038Z" fill="#281E59"/>
</g>
</svg>
