<svg width="23" height="16" viewBox="0 0 23 16" fill="none" xmlns="http://www.w3.org/2000/svg">
<mask id="mask0_907_4061" style="mask-type:luminance" maskUnits="userSpaceOnUse" x="0" y="0" width="23" height="16">
<path d="M22.6429 7.4106C22.2395 5.50834 19.919 4.67253 18.3844 5.98344C18.1887 6.15129 18.2569 6.15551 17.9903 6.05734C16.8173 5.62345 15.6443 5.18802 14.4712 4.75298C10.4263 3.25265 6.38128 1.75272 2.33592 0.253161C2.13712 0.179242 1.93988 0.0976372 1.73565 0.0410429C0.957117 -0.174554 0.146417 0.486484 0.330878 1.38545C0.377769 1.61529 0.506426 1.79816 0.64981 1.97718C2.19448 3.90908 3.73721 5.84214 5.28072 7.7752C5.29128 7.78852 5.30177 7.80189 5.31219 7.81526C5.39566 7.92246 5.41757 8.05945 5.33226 8.1652C4.09141 9.71981 2.85017 11.2744 1.60854 12.829C1.26403 13.2602 0.921076 13.6929 0.57463 14.123C0.370405 14.3767 0.277787 14.6612 0.304914 14.9858C0.348316 15.5032 0.792033 15.9494 1.31248 15.9948C1.52019 16.0129 1.71821 15.9833 1.91546 15.9097C3.09392 15.4685 4.27432 15.0324 5.45472 14.5946C9.64927 13.04 13.8442 11.4862 18.0372 9.92693C18.3551 9.8091 18.6293 10.1178 18.9314 10.2717C19.439 10.5304 19.9908 10.6091 20.5825 10.494C21.8086 10.2557 22.7003 9.18774 22.7003 7.95383C22.7003 7.77558 22.6817 7.59386 22.6429 7.4106ZM5.13424 3.72004C6.53513 4.23747 7.93487 4.75721 9.33499 5.27619C11.6737 6.14358 14.0116 7.0106 16.3499 7.8776C16.3691 7.8848 16.3882 7.892 16.4074 7.89927C16.5234 7.94316 16.5401 8.057 16.424 8.10051C15.6214 8.40042 14.8177 8.6965 14.0143 8.9941C11.0862 10.0798 8.15808 11.1659 5.22879 12.2496C5.09693 12.2977 5.04638 12.1965 5.13337 12.0864C5.41975 11.7237 5.70596 11.3613 5.99376 10.9999C6.58745 10.2546 7.18152 9.50999 7.77792 8.76657C8.07941 8.39043 8.13948 7.98156 7.96471 7.53535C7.91704 7.41408 7.83682 7.31358 7.75661 7.2131C7.27027 6.60442 6.78431 5.99614 6.29836 5.38708C5.88758 4.87349 5.47719 4.35913 5.06758 3.84439C5.06629 3.84278 5.06499 3.84117 5.06368 3.83958C4.99602 3.75711 5.034 3.68356 5.13424 3.72004Z" fill="white"/>
</mask>
<g mask="url(#mask0_907_4061)">
<path d="M22.6429 7.4106C22.2395 5.50834 19.919 4.67253 18.3844 5.98344C18.1887 6.15129 18.2569 6.15551 17.9903 6.05734C16.8173 5.62345 15.6443 5.18802 14.4712 4.75298C10.4263 3.25265 6.38128 1.75272 2.33592 0.253161C2.13712 0.179242 1.93988 0.0976372 1.73565 0.0410429C0.957117 -0.174554 0.146417 0.486484 0.330878 1.38545C0.377769 1.61529 0.506426 1.79816 0.64981 1.97718C2.19448 3.90908 3.73721 5.84214 5.28072 7.7752C5.29128 7.78852 5.30177 7.80189 5.31219 7.81526C5.39566 7.92246 5.41757 8.05945 5.33226 8.1652C4.09141 9.71981 2.85017 11.2744 1.60854 12.829C1.26403 13.2602 0.921076 13.6929 0.57463 14.123C0.370405 14.3767 0.277787 14.6612 0.304914 14.9858C0.348316 15.5032 0.792033 15.9494 1.31248 15.9948C1.52019 16.0129 1.71821 15.9833 1.91546 15.9097C3.09392 15.4685 4.27432 15.0324 5.45472 14.5946C9.64927 13.04 13.8442 11.4862 18.0372 9.92693C18.3551 9.8091 18.6293 10.1178 18.9314 10.2717C19.439 10.5304 19.9908 10.6091 20.5825 10.494C21.8086 10.2557 22.7003 9.18774 22.7003 7.95383C22.7003 7.77558 22.6817 7.59386 22.6429 7.4106ZM5.13424 3.72004C6.53513 4.23747 7.93487 4.75721 9.33499 5.27619C11.6737 6.14358 14.0116 7.0106 16.3499 7.8776C16.3691 7.8848 16.3882 7.892 16.4074 7.89927C16.5234 7.94316 16.5401 8.057 16.424 8.10051C15.6214 8.40042 14.8177 8.6965 14.0143 8.9941C11.0862 10.0798 8.15808 11.1659 5.22879 12.2496C5.09693 12.2977 5.04638 12.1965 5.13337 12.0864C5.41975 11.7237 5.70596 11.3613 5.99376 10.9999C6.58745 10.2546 7.18152 9.50999 7.77792 8.76657C8.07941 8.39043 8.13948 7.98156 7.96471 7.53535C7.91704 7.41408 7.83682 7.31358 7.75661 7.2131C7.27027 6.60442 6.78431 5.99614 6.29836 5.38708C5.88758 4.87349 5.47719 4.35913 5.06758 3.84439C5.06629 3.84278 5.06499 3.84117 5.06368 3.83958C4.99602 3.75711 5.034 3.68356 5.13424 3.72004Z" fill="white"/>
</g>
<mask id="mask1_907_4061" style="mask-type:luminance" maskUnits="userSpaceOnUse" x="8" y="6" width="6" height="4">
<path d="M13.2465 7.93576C11.8487 7.53382 10.4509 7.13228 9.05309 6.73112C8.93338 6.69643 8.84696 6.78427 8.84316 6.90885C8.82858 7.38714 8.82469 8.54517 8.83671 9.07822C8.83983 9.21655 8.94565 9.30859 9.07867 9.27052C9.58865 9.12615 10.0982 8.97795 10.6078 8.83165C11.4887 8.57794 12.3691 8.32422 13.2504 8.07089C13.2549 8.0696 13.2595 8.06838 13.2641 8.0672C13.3461 8.04621 13.328 7.95863 13.2465 7.93576Z" fill="white"/>
</mask>
<g mask="url(#mask1_907_4061)">
<path d="M13.2465 7.93673C11.8487 7.5348 10.4509 7.13326 9.05309 6.7321C8.93338 6.69741 8.84696 6.78525 8.84316 6.90983C8.82858 7.38811 8.82469 8.54615 8.83671 9.07919C8.83983 9.21752 8.94565 9.30957 9.07867 9.2715C9.58865 9.12713 10.0982 8.97892 10.6078 8.83263C11.4887 8.57891 12.3691 8.3252 13.2504 8.07187C13.2549 8.07057 13.2595 8.06936 13.2641 8.06818C13.3461 8.04719 13.328 7.9596 13.2465 7.93673Z" fill="white"/>
</g>
</svg>
