<svg width="500" height="500" viewBox="0 0 500 500" fill="none" xmlns="http://www.w3.org/2000/svg">
<path d="M259.5 457.999C220.285 457.999 182.284 444.402 151.97 419.524C121.657 394.647 100.907 360.028 93.2571 321.567C85.6068 283.106 91.529 243.182 110.015 208.598C128.5 174.014 158.406 146.909 194.636 131.902C230.865 116.896 271.177 114.915 308.703 126.299C346.23 137.682 378.648 161.725 400.434 194.331C422.22 226.937 432.027 266.088 428.184 305.114C424.34 344.14 407.083 380.625 379.354 408.354C363.652 424.144 344.974 436.662 324.4 445.184C303.827 453.706 281.768 458.061 259.5 457.999ZM259.5 124.188C221.484 124.19 184.644 137.373 155.258 161.491C125.873 185.61 105.759 219.171 98.3439 256.457C90.9291 293.743 96.6721 332.447 114.594 365.973C132.517 399.499 161.509 425.774 196.632 440.32C231.755 454.867 270.835 456.784 307.214 445.747C343.593 434.71 375.018 411.4 396.137 379.79C417.256 348.179 426.761 310.224 423.033 272.391C419.304 234.559 402.573 199.189 375.69 172.309C360.466 157.005 342.359 144.872 322.415 136.612C302.471 128.352 281.086 124.129 259.5 124.188Z" fill="#44ADFD" fill-opacity="0.4"/>
<path d="M262.713 362.741C262.271 362.728 261.851 362.545 261.539 362.231C261.228 361.916 261.05 361.494 261.042 361.052C261.033 360.609 261.196 360.181 261.495 359.855C261.794 359.529 262.207 359.331 262.648 359.301L263.491 359.264C263.716 359.252 263.942 359.285 264.155 359.361C264.367 359.437 264.563 359.553 264.731 359.705C264.899 359.856 265.035 360.039 265.132 360.243C265.229 360.447 265.285 360.668 265.296 360.894C265.308 361.119 265.275 361.345 265.199 361.558C265.124 361.77 265.007 361.966 264.855 362.134C264.704 362.301 264.521 362.438 264.317 362.535C264.113 362.632 263.892 362.688 263.667 362.699L262.787 362.741H262.713ZM255.588 362.713H255.505L254.62 362.662C254.165 362.635 253.74 362.428 253.437 362.088C253.135 361.747 252.98 361.3 253.007 360.845C253.034 360.39 253.241 359.964 253.581 359.662C253.922 359.359 254.369 359.204 254.824 359.231L255.671 359.273C256.113 359.304 256.526 359.504 256.824 359.832C257.123 360.16 257.283 360.59 257.272 361.033C257.262 361.476 257.081 361.898 256.767 362.21C256.453 362.523 256.031 362.703 255.588 362.713ZM270.671 362.037C270.232 362.043 269.808 361.881 269.485 361.584C269.162 361.287 268.965 360.878 268.934 360.44C268.903 360.002 269.041 359.57 269.319 359.23C269.598 358.891 269.995 358.671 270.43 358.616L271.268 358.491C271.495 358.449 271.728 358.452 271.954 358.502C272.179 358.552 272.392 358.646 272.58 358.779C272.768 358.913 272.928 359.083 273.049 359.279C273.17 359.476 273.25 359.694 273.286 359.922C273.321 360.15 273.309 360.383 273.253 360.607C273.196 360.83 273.095 361.04 272.956 361.224C272.817 361.408 272.642 361.562 272.442 361.677C272.242 361.792 272.021 361.866 271.792 361.894L270.917 362.023C270.835 362.032 270.753 362.037 270.671 362.037ZM247.639 361.949C247.553 361.956 247.466 361.956 247.38 361.949L246.505 361.815C246.066 361.729 245.678 361.475 245.423 361.109C245.168 360.742 245.065 360.29 245.137 359.849C245.208 359.408 245.448 359.012 245.806 358.745C246.164 358.478 246.612 358.36 247.055 358.417L247.893 358.546C248.318 358.616 248.701 358.843 248.967 359.181C249.233 359.519 249.363 359.944 249.331 360.373C249.299 360.802 249.107 361.204 248.794 361.499C248.481 361.794 248.069 361.961 247.639 361.968V361.949ZM278.518 360.514C278.098 360.513 277.693 360.359 277.379 360.08C277.064 359.801 276.863 359.416 276.812 358.999C276.762 358.582 276.865 358.161 277.104 357.815C277.342 357.469 277.699 357.222 278.106 357.12L278.921 356.917C279.14 356.86 279.367 356.847 279.591 356.878C279.815 356.909 280.03 356.984 280.225 357.098C280.42 357.212 280.59 357.364 280.726 357.544C280.862 357.724 280.962 357.93 281.018 358.148C281.075 358.367 281.089 358.594 281.057 358.818C281.026 359.042 280.951 359.257 280.837 359.452C280.723 359.647 280.571 359.817 280.391 359.953C280.211 360.089 280.006 360.189 279.787 360.245L278.93 360.463C278.795 360.488 278.656 360.497 278.518 360.491V360.514ZM239.815 360.338C239.67 360.339 239.525 360.322 239.384 360.287L238.532 360.06C238.314 360.002 238.11 359.901 237.931 359.764C237.752 359.626 237.602 359.455 237.489 359.26C237.376 359.064 237.303 358.849 237.273 358.625C237.244 358.401 237.259 358.174 237.317 357.956C237.375 357.738 237.476 357.534 237.613 357.355C237.751 357.176 237.922 357.025 238.117 356.913C238.313 356.8 238.529 356.726 238.752 356.697C238.976 356.667 239.203 356.682 239.421 356.741L240.241 356.954C240.648 357.055 241.005 357.303 241.242 357.649C241.48 357.996 241.582 358.418 241.53 358.835C241.477 359.252 241.274 359.635 240.958 359.912C240.642 360.189 240.235 360.341 239.815 360.338ZM286.176 358.171C285.769 358.175 285.375 358.033 285.062 357.773C284.75 357.513 284.54 357.15 284.47 356.749C284.4 356.349 284.474 355.936 284.68 355.586C284.886 355.235 285.209 354.968 285.593 354.833L286.389 354.542C286.819 354.383 287.294 354.401 287.71 354.592C288.127 354.784 288.45 355.133 288.609 355.562C288.768 355.992 288.75 356.468 288.558 356.884C288.367 357.3 288.018 357.623 287.588 357.782L286.759 358.083C286.568 358.147 286.368 358.177 286.167 358.171H286.176ZM232.176 357.963C231.972 357.964 231.77 357.928 231.579 357.856L230.75 357.546C230.333 357.376 230 357.05 229.82 356.638C229.641 356.225 229.63 355.758 229.791 355.338C229.951 354.917 230.27 354.576 230.678 354.388C231.087 354.199 231.553 354.178 231.977 354.329L232.768 354.63C233.15 354.767 233.47 355.035 233.673 355.385C233.875 355.736 233.948 356.147 233.877 356.546C233.806 356.945 233.596 357.306 233.285 357.565C232.974 357.824 232.581 357.965 232.176 357.963ZM293.518 355.093C293.128 355.094 292.749 354.963 292.443 354.72C292.137 354.477 291.923 354.138 291.837 353.757C291.75 353.376 291.795 352.977 291.965 352.626C292.136 352.275 292.421 351.992 292.773 351.824L293.532 351.454C293.735 351.354 293.955 351.295 294.18 351.28C294.406 351.265 294.632 351.294 294.846 351.367C295.059 351.439 295.257 351.553 295.427 351.702C295.597 351.851 295.736 352.031 295.836 352.234C295.936 352.436 295.995 352.656 296.01 352.882C296.025 353.107 295.995 353.333 295.923 353.547C295.85 353.761 295.736 353.958 295.587 354.128C295.439 354.298 295.258 354.437 295.055 354.537L294.264 354.921C294.031 355.034 293.777 355.092 293.518 355.093ZM224.801 354.824C224.547 354.814 224.299 354.748 224.074 354.63L223.278 354.236C222.883 354.023 222.587 353.665 222.452 353.237C222.318 352.809 222.356 352.345 222.558 351.945C222.76 351.544 223.11 351.238 223.534 351.092C223.958 350.946 224.423 350.971 224.829 351.162C225.079 351.292 225.333 351.417 225.588 351.542C225.926 351.718 226.197 352.002 226.356 352.349C226.515 352.695 226.554 353.085 226.467 353.457C226.38 353.828 226.172 354.16 225.875 354.4C225.578 354.64 225.21 354.775 224.829 354.782L224.801 354.824ZM300.537 351.278C300.162 351.277 299.798 351.154 299.499 350.928C299.2 350.701 298.984 350.383 298.882 350.022C298.781 349.661 298.8 349.277 298.936 348.928C299.073 348.579 299.319 348.284 299.639 348.088L300.356 347.625C300.548 347.505 300.761 347.424 300.983 347.387C301.206 347.349 301.433 347.356 301.653 347.407C301.873 347.457 302.081 347.55 302.265 347.681C302.448 347.812 302.605 347.978 302.724 348.169C302.844 348.36 302.925 348.573 302.963 348.796C303 349.018 302.993 349.246 302.943 349.466C302.892 349.686 302.799 349.893 302.668 350.077C302.537 350.261 302.372 350.417 302.18 350.537C301.935 350.694 301.685 350.847 301.435 351C301.172 351.169 300.868 351.263 300.555 351.273L300.537 351.278ZM217.824 350.926C217.497 350.93 217.176 350.84 216.898 350.667L216.148 350.204C215.958 350.082 215.793 349.924 215.664 349.739C215.535 349.554 215.443 349.345 215.395 349.125C215.346 348.904 215.341 348.676 215.381 348.454C215.42 348.231 215.503 348.019 215.625 347.829C215.747 347.638 215.904 347.474 216.09 347.345C216.275 347.215 216.484 347.124 216.704 347.075C216.925 347.027 217.153 347.022 217.375 347.062C217.597 347.101 217.81 347.184 218 347.306L218.718 347.769C219.035 347.968 219.278 348.265 219.411 348.615C219.544 348.965 219.56 349.349 219.455 349.708C219.35 350.068 219.131 350.383 218.831 350.607C218.531 350.831 218.166 350.951 217.792 350.949L217.824 350.926ZM307.176 346.759C306.816 346.759 306.464 346.646 306.172 346.435C305.879 346.225 305.66 345.928 305.545 345.587C305.43 345.245 305.425 344.876 305.531 344.532C305.636 344.188 305.848 343.885 306.134 343.667L306.805 343.153C307.167 342.896 307.615 342.789 308.054 342.853C308.493 342.918 308.89 343.15 309.162 343.501C309.435 343.851 309.561 344.293 309.515 344.735C309.47 345.176 309.255 345.583 308.917 345.87L308.218 346.407C307.912 346.641 307.537 346.765 307.153 346.759H307.176ZM211.282 346.375C210.902 346.373 210.533 346.246 210.231 346.014L209.537 345.472C209.36 345.332 209.212 345.159 209.102 344.962C208.991 344.765 208.921 344.548 208.895 344.324C208.868 344.1 208.886 343.873 208.947 343.655C209.009 343.438 209.112 343.235 209.252 343.058C209.392 342.881 209.565 342.733 209.762 342.622C209.959 342.512 210.176 342.442 210.4 342.415C210.625 342.389 210.852 342.407 211.069 342.468C211.286 342.53 211.489 342.633 211.667 342.773L212.338 343.292C212.622 343.512 212.83 343.815 212.933 344.159C213.036 344.503 213.028 344.871 212.912 345.211C212.796 345.55 212.576 345.845 212.284 346.054C211.992 346.263 211.641 346.375 211.282 346.375ZM313.287 341.606C312.941 341.608 312.603 341.505 312.316 341.311C312.03 341.117 311.809 340.842 311.682 340.52C311.555 340.198 311.528 339.846 311.604 339.508C311.681 339.171 311.857 338.865 312.111 338.63C312.319 338.44 312.523 338.245 312.727 338.051C312.888 337.884 313.081 337.751 313.295 337.661C313.509 337.571 313.739 337.525 313.971 337.526C314.203 337.526 314.433 337.574 314.646 337.666C314.859 337.757 315.051 337.891 315.212 338.059C315.372 338.227 315.496 338.426 315.578 338.643C315.659 338.86 315.696 339.092 315.686 339.324C315.675 339.556 315.618 339.783 315.518 339.992C315.418 340.202 315.276 340.388 315.102 340.542L314.458 341.148C314.135 341.452 313.707 341.62 313.264 341.616L313.287 341.606ZM205.19 341.204C204.75 341.206 204.326 341.041 204.005 340.741L203.37 340.13C203.208 339.973 203.078 339.785 202.988 339.578C202.898 339.371 202.85 339.149 202.846 338.923C202.842 338.697 202.883 338.473 202.966 338.263C203.048 338.053 203.172 337.861 203.329 337.699C203.485 337.537 203.673 337.407 203.88 337.317C204.087 337.227 204.31 337.179 204.535 337.175C204.761 337.171 204.985 337.212 205.195 337.294C205.405 337.377 205.597 337.501 205.759 337.657L206.37 338.241C206.62 338.477 206.793 338.784 206.867 339.12C206.942 339.456 206.913 339.807 206.786 340.126C206.659 340.446 206.439 340.721 206.155 340.915C205.87 341.108 205.534 341.212 205.19 341.213V341.204ZM318.829 335.88C318.499 335.879 318.176 335.783 317.898 335.604C317.621 335.425 317.401 335.171 317.264 334.87C317.128 334.57 317.081 334.236 317.128 333.91C317.176 333.583 317.316 333.277 317.532 333.028L318.088 332.389C318.384 332.043 318.806 331.828 319.261 331.793C319.715 331.758 320.165 331.905 320.512 332.201C320.858 332.498 321.072 332.92 321.107 333.374C321.142 333.829 320.996 334.279 320.699 334.625C320.509 334.847 320.315 335.088 320.12 335.292C319.96 335.476 319.761 335.625 319.538 335.726C319.316 335.828 319.073 335.88 318.829 335.88ZM199.671 335.417C199.424 335.417 199.18 335.364 198.955 335.26C198.731 335.157 198.531 335.007 198.37 334.819C198.176 334.597 197.986 334.356 197.796 334.148C197.637 333.978 197.513 333.776 197.434 333.556C197.355 333.337 197.321 333.103 197.335 332.87C197.348 332.637 197.409 332.409 197.514 332.2C197.619 331.991 197.765 331.806 197.944 331.655C198.122 331.504 198.33 331.392 198.553 331.324C198.777 331.256 199.012 331.234 199.244 331.26C199.476 331.286 199.701 331.358 199.904 331.474C200.107 331.589 200.285 331.744 200.426 331.931L200.972 332.569C201.187 332.819 201.327 333.125 201.373 333.451C201.42 333.778 201.372 334.11 201.235 334.41C201.098 334.71 200.878 334.964 200.6 335.143C200.323 335.321 200.001 335.416 199.671 335.417ZM323.782 329.63C323.468 329.627 323.16 329.538 322.893 329.372C322.625 329.207 322.408 328.971 322.265 328.691C322.122 328.411 322.058 328.097 322.081 327.784C322.104 327.47 322.212 327.169 322.393 326.912L322.856 326.218C322.981 326.023 323.145 325.855 323.336 325.724C323.528 325.594 323.743 325.503 323.971 325.458C324.198 325.413 324.432 325.414 324.659 325.462C324.886 325.509 325.101 325.602 325.291 325.734C325.481 325.867 325.642 326.036 325.765 326.232C325.888 326.429 325.971 326.648 326.007 326.877C326.043 327.106 326.033 327.339 325.977 327.564C325.921 327.789 325.82 328 325.68 328.185L325.171 328.907C325.014 329.129 324.805 329.31 324.564 329.436C324.322 329.562 324.055 329.628 323.782 329.63ZM194.764 329.111C194.491 329.109 194.222 329.041 193.981 328.914C193.739 328.787 193.531 328.603 193.375 328.38C193.204 328.139 193.037 327.917 192.87 327.653C192.636 327.276 192.556 326.822 192.647 326.388C192.739 325.953 192.995 325.571 193.362 325.32C193.729 325.07 194.178 324.971 194.616 325.044C195.054 325.117 195.447 325.357 195.713 325.713L196.176 326.407C196.355 326.666 196.46 326.968 196.48 327.281C196.499 327.595 196.433 327.908 196.287 328.186C196.142 328.465 195.923 328.698 195.654 328.861C195.386 329.024 195.078 329.111 194.764 329.111ZM328.097 322.889C327.796 322.889 327.501 322.81 327.24 322.659C326.98 322.509 326.763 322.293 326.612 322.033C326.461 321.773 326.381 321.478 326.38 321.177C326.379 320.876 326.457 320.581 326.606 320.319C326.745 320.074 326.884 319.829 327.018 319.579C327.249 319.197 327.619 318.919 328.05 318.804C328.481 318.689 328.939 318.746 329.329 318.963C329.719 319.179 330.01 319.539 330.14 319.965C330.27 320.392 330.23 320.853 330.028 321.25L329.597 322.023C329.442 322.286 329.221 322.502 328.955 322.651C328.689 322.8 328.388 322.876 328.083 322.87L328.097 322.889ZM190.537 322.343C190.23 322.344 189.929 322.263 189.664 322.108C189.4 321.954 189.181 321.731 189.032 321.463C188.889 321.204 188.745 320.949 188.606 320.69C188.486 320.491 188.408 320.269 188.376 320.039C188.343 319.808 188.358 319.574 188.419 319.349C188.48 319.125 188.586 318.915 188.73 318.732C188.875 318.55 189.054 318.399 189.259 318.287C189.463 318.176 189.688 318.108 189.919 318.086C190.151 318.064 190.385 318.089 190.606 318.16C190.828 318.231 191.033 318.346 191.209 318.499C191.384 318.651 191.528 318.837 191.63 319.046C191.764 319.292 191.898 319.537 192.037 319.782C192.184 320.044 192.26 320.34 192.258 320.64C192.255 320.94 192.174 321.234 192.022 321.493C191.87 321.752 191.653 321.967 191.393 322.116C191.132 322.265 190.837 322.343 190.537 322.343ZM331.68 315.741C331.443 315.741 331.207 315.691 330.991 315.593C330.784 315.502 330.597 315.371 330.44 315.208C330.284 315.044 330.162 314.852 330.08 314.641C329.998 314.43 329.959 314.205 329.964 313.979C329.97 313.753 330.019 313.531 330.111 313.324L330.449 312.546C330.525 312.322 330.647 312.116 330.807 311.941C330.966 311.766 331.16 311.626 331.376 311.53C331.592 311.433 331.826 311.382 332.063 311.38C332.3 311.378 332.534 311.424 332.752 311.517C332.97 311.609 333.167 311.746 333.329 311.918C333.492 312.089 333.618 312.293 333.699 312.516C333.779 312.738 333.813 312.975 333.798 313.211C333.783 313.448 333.719 313.678 333.611 313.889L333.259 314.699C333.125 315.007 332.905 315.27 332.625 315.455C332.344 315.639 332.016 315.739 331.68 315.741ZM186.986 315.171C186.65 315.171 186.321 315.073 186.04 314.889C185.758 314.705 185.537 314.442 185.403 314.134C185.287 313.866 185.171 313.593 185.06 313.324C184.973 313.116 184.927 312.892 184.927 312.667C184.926 312.441 184.969 312.217 185.055 312.008C185.14 311.799 185.266 311.609 185.425 311.449C185.584 311.289 185.773 311.161 185.981 311.074C186.19 310.987 186.413 310.941 186.639 310.941C186.865 310.94 187.088 310.983 187.297 311.069C187.506 311.154 187.696 311.28 187.856 311.439C188.017 311.598 188.144 311.787 188.231 311.995C188.343 312.255 188.449 312.514 188.565 312.769C188.745 313.188 188.751 313.662 188.583 314.086C188.414 314.51 188.085 314.85 187.667 315.032C187.45 315.12 187.219 315.164 186.986 315.162V315.171ZM334.537 308.259C334.356 308.259 334.177 308.231 334.005 308.176C333.571 308.035 333.211 307.728 333.003 307.321C332.796 306.915 332.758 306.443 332.898 306.009C332.986 305.741 333.074 305.472 333.157 305.199C333.225 304.984 333.334 304.783 333.479 304.61C333.624 304.437 333.801 304.294 334.001 304.189C334.202 304.084 334.42 304.02 334.645 304C334.87 303.98 335.097 304.004 335.312 304.072C335.528 304.139 335.728 304.249 335.901 304.393C336.075 304.538 336.218 304.716 336.322 304.916C336.427 305.116 336.491 305.335 336.511 305.56C336.532 305.785 336.507 306.011 336.44 306.227C336.352 306.505 336.264 306.787 336.171 307.069C336.06 307.415 335.841 307.716 335.548 307.93C335.254 308.144 334.9 308.259 334.537 308.259ZM184.194 307.681C183.829 307.681 183.472 307.564 183.178 307.347C182.883 307.131 182.665 306.826 182.555 306.477C182.463 306.199 182.38 305.917 182.292 305.634C182.213 305.415 182.179 305.181 182.194 304.948C182.208 304.715 182.269 304.488 182.374 304.279C182.479 304.071 182.625 303.886 182.803 303.735C182.982 303.585 183.189 303.473 183.412 303.405C183.635 303.337 183.87 303.315 184.102 303.341C184.334 303.366 184.558 303.439 184.761 303.554C184.964 303.669 185.142 303.824 185.283 304.01C185.424 304.195 185.527 304.408 185.583 304.634L185.833 305.44C185.97 305.875 185.929 306.347 185.719 306.752C185.509 307.157 185.147 307.463 184.713 307.602C184.545 307.653 184.37 307.679 184.194 307.681ZM336.611 300.537C336.49 300.538 336.368 300.526 336.25 300.5C336.029 300.453 335.819 300.363 335.633 300.235C335.447 300.107 335.288 299.944 335.165 299.754C335.043 299.564 334.959 299.352 334.918 299.13C334.878 298.907 334.882 298.679 334.93 298.458C334.986 298.181 335.046 297.907 335.102 297.63C335.193 297.183 335.457 296.79 335.838 296.538C336.218 296.287 336.683 296.196 337.13 296.287C337.577 296.378 337.969 296.643 338.221 297.023C338.473 297.403 338.563 297.868 338.472 298.315L338.292 299.181C338.209 299.565 337.997 299.909 337.691 300.156C337.385 300.403 337.004 300.537 336.611 300.537ZM182.18 299.949C181.782 299.948 181.397 299.809 181.09 299.556C180.782 299.303 180.572 298.951 180.495 298.56C180.435 298.273 180.38 297.981 180.319 297.694C180.269 297.47 180.264 297.237 180.305 297.01C180.346 296.784 180.432 296.567 180.558 296.374C180.684 296.182 180.847 296.016 181.038 295.887C181.23 295.759 181.445 295.67 181.671 295.626C181.897 295.582 182.13 295.584 182.355 295.631C182.58 295.679 182.794 295.771 182.983 295.903C183.172 296.034 183.333 296.202 183.456 296.397C183.579 296.592 183.662 296.81 183.699 297.037C183.75 297.315 183.805 297.588 183.866 297.866C183.957 298.313 183.868 298.778 183.617 299.159C183.366 299.54 182.974 299.806 182.528 299.898C182.414 299.926 182.298 299.943 182.18 299.949ZM337.889 292.653H337.699C337.245 292.603 336.83 292.375 336.545 292.019C336.259 291.663 336.126 291.208 336.176 290.755C336.208 290.477 336.236 290.194 336.268 289.912C336.291 289.687 336.357 289.469 336.464 289.27C336.571 289.072 336.716 288.896 336.891 288.753C337.065 288.61 337.267 288.503 337.483 288.437C337.699 288.372 337.926 288.35 338.15 288.373C338.375 288.395 338.593 288.462 338.792 288.568C338.991 288.675 339.167 288.82 339.31 288.995C339.453 289.17 339.56 289.371 339.625 289.587C339.69 289.803 339.712 290.03 339.69 290.255C339.662 290.546 339.63 290.838 339.597 291.134C339.547 291.552 339.346 291.938 339.031 292.218C338.716 292.498 338.31 292.652 337.889 292.653ZM180.944 292.051C180.518 292.05 180.108 291.891 179.792 291.606C179.475 291.32 179.276 290.928 179.231 290.505L179.148 289.625C179.115 289.394 179.13 289.159 179.191 288.934C179.252 288.709 179.358 288.498 179.503 288.315C179.648 288.133 179.828 287.981 180.033 287.87C180.238 287.759 180.464 287.69 180.696 287.669C180.928 287.648 181.162 287.674 181.384 287.746C181.606 287.818 181.811 287.934 181.987 288.087C182.162 288.241 182.305 288.428 182.406 288.638C182.507 288.849 182.564 289.077 182.574 289.31C182.597 289.593 182.625 289.875 182.657 290.153C182.704 290.607 182.568 291.061 182.28 291.415C181.992 291.77 181.575 291.995 181.12 292.042L180.944 292.051ZM338.352 284.676C338.126 284.674 337.902 284.627 337.694 284.538C337.486 284.449 337.298 284.32 337.139 284.158C336.981 283.997 336.856 283.806 336.772 283.596C336.688 283.386 336.646 283.161 336.648 282.935C336.648 282.685 336.648 282.431 336.648 282.176V282.088C336.671 281.647 336.862 281.232 337.182 280.928C337.502 280.624 337.927 280.455 338.368 280.455C338.809 280.455 339.234 280.624 339.554 280.928C339.874 281.232 340.065 281.647 340.088 282.088V282.176C340.088 282.44 340.088 282.704 340.088 282.972C340.083 283.426 339.899 283.859 339.577 284.178C339.255 284.497 338.819 284.676 338.366 284.676H338.352ZM180.555 284.069C180.1 284.069 179.663 283.888 179.341 283.566C179.019 283.244 178.838 282.807 178.838 282.352V282.171C178.838 281.88 178.838 281.588 178.838 281.292C178.843 280.839 179.026 280.407 179.347 280.089C179.669 279.771 180.103 279.593 180.555 279.593C181.011 279.597 181.447 279.783 181.766 280.108C182.086 280.434 182.263 280.873 182.259 281.329C182.259 281.611 182.259 281.894 182.259 282.176V282.347C182.259 282.803 182.078 283.241 181.756 283.563C181.434 283.886 180.998 284.068 180.542 284.069H180.555ZM338.051 276.69C337.622 276.689 337.208 276.529 336.891 276.239C336.574 275.95 336.377 275.552 336.338 275.125C336.315 274.843 336.287 274.56 336.259 274.282C336.213 273.829 336.349 273.375 336.637 273.022C336.926 272.669 337.343 272.444 337.796 272.398C338.25 272.352 338.703 272.488 339.057 272.776C339.41 273.065 339.634 273.481 339.68 273.935C339.713 274.227 339.741 274.519 339.764 274.815C339.802 275.266 339.66 275.715 339.369 276.062C339.077 276.409 338.66 276.627 338.208 276.667L338.051 276.69ZM180.949 275.926H180.773C180.319 275.879 179.903 275.655 179.614 275.302C179.325 274.949 179.187 274.496 179.231 274.042L179.329 273.162C179.38 272.709 179.608 272.295 179.965 272.01C180.321 271.726 180.776 271.595 181.229 271.646C181.682 271.697 182.096 271.926 182.381 272.282C182.665 272.638 182.796 273.093 182.745 273.546C182.713 273.824 182.685 274.106 182.657 274.384C182.613 274.807 182.414 275.198 182.098 275.482C181.783 275.767 181.374 275.925 180.949 275.926ZM336.921 268.787C336.522 268.787 336.136 268.649 335.828 268.395C335.519 268.142 335.309 267.79 335.231 267.398C335.18 267.12 335.125 266.847 335.069 266.569C335.024 266.348 335.022 266.121 335.065 265.899C335.107 265.677 335.193 265.466 335.317 265.278C335.441 265.089 335.601 264.927 335.787 264.8C335.974 264.674 336.184 264.585 336.405 264.539C336.626 264.494 336.854 264.492 337.075 264.535C337.297 264.577 337.508 264.663 337.697 264.787C337.885 264.911 338.047 265.071 338.174 265.257C338.301 265.444 338.39 265.654 338.435 265.875C338.495 266.167 338.555 266.454 338.611 266.741C338.698 267.189 338.604 267.653 338.348 268.032C338.093 268.41 337.698 268.672 337.25 268.759C337.141 268.777 337.031 268.783 336.921 268.778V268.787ZM182.148 268.023C182.032 268.024 181.915 268.013 181.801 267.991C181.579 267.945 181.369 267.857 181.181 267.73C180.994 267.604 180.833 267.441 180.709 267.253C180.584 267.064 180.498 266.852 180.455 266.63C180.412 266.408 180.413 266.18 180.458 265.958C180.518 265.671 180.579 265.384 180.643 265.093C180.74 264.647 181.009 264.258 181.393 264.011C181.776 263.764 182.242 263.679 182.687 263.775C183.133 263.872 183.522 264.141 183.769 264.525C184.016 264.908 184.101 265.374 184.005 265.819C183.944 266.097 183.889 266.37 183.829 266.648C183.748 267.034 183.537 267.381 183.231 267.629C182.925 267.878 182.542 268.014 182.148 268.014V268.023ZM335 261.019C334.631 261.019 334.272 260.9 333.975 260.68C333.679 260.46 333.462 260.15 333.356 259.796L333.106 258.991C332.993 258.562 333.048 258.106 333.262 257.718C333.476 257.33 333.831 257.039 334.254 256.906C334.677 256.773 335.135 256.808 335.533 257.004C335.93 257.2 336.237 257.542 336.389 257.958C336.477 258.241 336.565 258.519 336.648 258.801C336.779 259.237 336.732 259.708 336.517 260.11C336.302 260.512 335.936 260.812 335.5 260.944C335.338 260.994 335.169 261.019 335 261.019ZM184.143 260.278C183.969 260.277 183.796 260.25 183.63 260.199C183.194 260.062 182.831 259.758 182.62 259.353C182.408 258.949 182.365 258.478 182.5 258.042C182.588 257.759 182.68 257.477 182.768 257.199C182.83 256.974 182.936 256.764 183.081 256.581C183.225 256.399 183.406 256.248 183.611 256.137C183.816 256.026 184.041 255.958 184.273 255.936C184.505 255.915 184.739 255.941 184.961 256.013C185.183 256.085 185.387 256.201 185.563 256.354C185.739 256.507 185.881 256.695 185.982 256.905C186.083 257.115 186.141 257.343 186.151 257.576C186.161 257.809 186.124 258.041 186.042 258.259C185.954 258.532 185.87 258.801 185.782 259.069C185.673 259.419 185.455 259.724 185.161 259.942C184.866 260.159 184.51 260.277 184.143 260.278ZM332.292 253.5C331.953 253.499 331.621 253.399 331.339 253.211C331.056 253.024 330.835 252.757 330.704 252.444C330.597 252.185 330.486 251.926 330.375 251.667C330.212 251.251 330.217 250.787 330.389 250.375C330.561 249.963 330.887 249.633 331.298 249.457C331.708 249.28 332.171 249.27 332.589 249.428C333.007 249.587 333.347 249.901 333.537 250.306C333.653 250.579 333.768 250.847 333.88 251.116C333.967 251.324 334.012 251.548 334.013 251.774C334.014 252 333.97 252.224 333.884 252.433C333.798 252.642 333.671 252.832 333.512 252.992C333.352 253.152 333.162 253.279 332.954 253.366C332.747 253.454 332.525 253.5 332.301 253.5H332.292ZM186.921 252.778C186.689 252.776 186.459 252.729 186.245 252.639C186.037 252.55 185.849 252.42 185.691 252.258C185.533 252.096 185.408 251.904 185.325 251.694C185.241 251.484 185.199 251.259 185.202 251.033C185.205 250.806 185.253 250.583 185.343 250.375C185.458 250.106 185.579 249.833 185.699 249.565C185.883 249.148 186.225 248.821 186.65 248.657C187.075 248.492 187.548 248.503 187.965 248.687C188.382 248.872 188.709 249.214 188.873 249.639C189.038 250.064 189.027 250.537 188.843 250.954L188.505 251.731C188.373 252.043 188.152 252.309 187.869 252.495C187.586 252.681 187.255 252.78 186.917 252.778H186.921ZM328.856 246.296C328.547 246.297 328.244 246.213 327.978 246.055C327.712 245.897 327.494 245.67 327.347 245.398L326.94 244.657C326.83 244.46 326.76 244.243 326.734 244.019C326.708 243.795 326.727 243.567 326.789 243.35C326.851 243.133 326.955 242.93 327.095 242.754C327.235 242.577 327.409 242.429 327.606 242.319C327.804 242.21 328.021 242.14 328.245 242.114C328.469 242.088 328.696 242.107 328.913 242.169C329.131 242.23 329.333 242.335 329.51 242.475C329.687 242.615 329.835 242.789 329.944 242.986L330.37 243.755C330.583 244.154 330.629 244.621 330.499 245.055C330.369 245.488 330.073 245.853 329.676 246.069C329.425 246.215 329.141 246.293 328.852 246.296H328.856ZM190.43 245.602C190.139 245.602 189.852 245.527 189.597 245.384C189.399 245.275 189.225 245.127 189.084 244.95C188.943 244.773 188.839 244.569 188.777 244.352C188.715 244.134 188.697 243.906 188.723 243.681C188.749 243.456 188.82 243.239 188.93 243.042L189.361 242.273C189.468 242.068 189.615 241.886 189.794 241.739C189.973 241.591 190.18 241.482 190.402 241.416C190.624 241.351 190.857 241.331 191.087 241.358C191.318 241.384 191.54 241.457 191.741 241.572C191.942 241.686 192.119 241.841 192.259 242.025C192.399 242.209 192.501 242.42 192.558 242.644C192.615 242.869 192.626 243.103 192.591 243.332C192.555 243.561 192.474 243.78 192.352 243.977L191.935 244.718C191.787 244.984 191.571 245.206 191.309 245.361C191.047 245.516 190.749 245.599 190.444 245.602H190.43ZM324.69 239.477C324.41 239.478 324.133 239.41 323.886 239.279C323.638 239.148 323.426 238.959 323.268 238.727L322.805 238.032C322.565 237.658 322.479 237.204 322.566 236.767C322.653 236.33 322.905 235.944 323.271 235.69C323.636 235.435 324.086 235.332 324.526 235.402C324.966 235.472 325.361 235.709 325.63 236.065L326.13 236.787C326.307 237.045 326.41 237.347 326.428 237.66C326.446 237.973 326.379 238.285 326.232 238.562C326.086 238.839 325.866 239.07 325.598 239.232C325.329 239.393 325.022 239.478 324.708 239.477H324.69ZM194.68 238.819C194.329 238.82 193.986 238.712 193.699 238.509C193.513 238.381 193.355 238.216 193.233 238.026C193.111 237.836 193.027 237.624 192.987 237.402C192.947 237.179 192.951 236.951 193 236.731C193.048 236.51 193.139 236.301 193.268 236.116C193.44 235.87 193.606 235.63 193.778 235.394C194.042 235.022 194.444 234.771 194.893 234.695C195.343 234.62 195.804 234.726 196.176 234.991C196.547 235.255 196.798 235.657 196.874 236.106C196.949 236.556 196.843 237.017 196.579 237.389L196.093 238.083C195.934 238.31 195.722 238.496 195.476 238.624C195.231 238.752 194.958 238.819 194.68 238.819ZM319.861 233.116C319.61 233.115 319.361 233.06 319.133 232.953C318.906 232.847 318.704 232.692 318.542 232.5C318.361 232.287 318.18 232.069 317.995 231.856C317.832 231.688 317.704 231.488 317.621 231.268C317.538 231.049 317.501 230.815 317.512 230.58C317.523 230.345 317.582 230.116 317.685 229.905C317.788 229.694 317.933 229.506 318.112 229.354C318.29 229.201 318.498 229.087 318.723 229.018C318.947 228.949 319.183 228.927 319.416 228.953C319.65 228.979 319.875 229.052 320.079 229.168C320.283 229.285 320.461 229.442 320.602 229.63C320.796 229.852 320.986 230.093 321.176 230.301C321.388 230.551 321.524 230.857 321.568 231.182C321.612 231.507 321.562 231.838 321.424 232.136C321.285 232.434 321.065 232.685 320.788 232.861C320.511 233.038 320.189 233.131 319.861 233.13V233.116ZM199.579 232.5C199.25 232.5 198.927 232.405 198.65 232.227C198.374 232.049 198.153 231.796 198.016 231.497C197.879 231.197 197.83 230.865 197.875 230.539C197.921 230.213 198.059 229.907 198.273 229.657L198.852 228.991C199.153 228.648 199.579 228.438 200.034 228.409C200.49 228.379 200.939 228.532 201.282 228.833C201.626 229.135 201.835 229.56 201.864 230.016C201.894 230.472 201.741 230.921 201.44 231.264C201.248 231.474 201.063 231.687 200.884 231.903C200.722 232.09 200.521 232.24 200.296 232.343C200.071 232.446 199.826 232.5 199.579 232.5ZM314.393 227.264C313.945 227.266 313.514 227.092 313.194 226.778L312.583 226.194C312.273 225.875 312.098 225.449 312.096 225.004C312.093 224.559 312.263 224.13 312.569 223.808C312.876 223.485 313.295 223.294 313.74 223.273C314.184 223.253 314.619 223.406 314.954 223.699L315.593 224.31C315.92 224.629 316.107 225.064 316.113 225.521C316.119 225.978 315.944 226.418 315.625 226.745C315.468 226.908 315.279 227.038 315.071 227.127C314.863 227.216 314.639 227.263 314.412 227.264H314.393ZM205.093 226.708C204.749 226.707 204.413 226.604 204.129 226.411C203.845 226.218 203.625 225.944 203.498 225.625C203.37 225.306 203.341 224.956 203.414 224.62C203.487 224.284 203.659 223.978 203.907 223.741L204.551 223.134C204.888 222.84 205.326 222.688 205.772 222.711C206.219 222.733 206.64 222.929 206.945 223.256C207.25 223.584 207.415 224.017 207.407 224.464C207.398 224.911 207.216 225.338 206.898 225.653L206.278 226.231C205.96 226.539 205.535 226.71 205.093 226.708ZM308.412 221.995C308.025 221.996 307.65 221.866 307.347 221.625L306.68 221.102C306.502 220.963 306.352 220.79 306.24 220.593C306.128 220.397 306.056 220.18 306.028 219.955C306 219.731 306.016 219.503 306.076 219.284C306.136 219.066 306.238 218.862 306.377 218.683C306.516 218.504 306.689 218.354 306.886 218.243C307.082 218.131 307.299 218.058 307.524 218.03C307.749 218.002 307.977 218.018 308.195 218.078C308.413 218.138 308.617 218.241 308.796 218.38L309.491 218.926C309.77 219.148 309.973 219.452 310.072 219.795C310.171 220.138 310.162 220.503 310.044 220.84C309.927 221.177 309.707 221.469 309.417 221.676C309.126 221.883 308.778 221.995 308.421 221.995H308.412ZM211.157 221.495C210.798 221.497 210.447 221.386 210.154 221.178C209.861 220.97 209.641 220.675 209.525 220.335C209.408 219.995 209.401 219.627 209.505 219.283C209.608 218.939 209.817 218.636 210.102 218.417L210.801 217.88C211.166 217.616 211.619 217.506 212.064 217.573C212.509 217.639 212.91 217.878 213.182 218.236C213.454 218.595 213.574 219.046 213.518 219.492C213.461 219.939 213.232 220.345 212.88 220.625C212.657 220.792 212.417 220.963 212.208 221.139C211.905 221.373 211.531 221.498 211.148 221.495H211.157ZM301.898 217.356C301.57 217.357 301.248 217.262 300.972 217.083C300.736 216.931 300.509 216.782 300.255 216.62C299.875 216.375 299.607 215.99 299.509 215.549C299.41 215.108 299.49 214.645 299.729 214.262C299.968 213.879 300.349 213.605 300.788 213.499C301.228 213.394 301.691 213.466 302.079 213.699L302.824 214.162C303.137 214.363 303.376 214.66 303.506 215.008C303.637 215.356 303.651 215.737 303.546 216.094C303.442 216.451 303.225 216.764 302.928 216.988C302.631 217.211 302.27 217.332 301.898 217.333V217.356ZM217.708 216.926C217.334 216.928 216.969 216.808 216.669 216.584C216.369 216.36 216.15 216.045 216.045 215.685C215.94 215.326 215.956 214.942 216.089 214.592C216.222 214.242 216.465 213.945 216.782 213.745L217.532 213.282C217.922 213.045 218.389 212.972 218.832 213.079C219.276 213.186 219.658 213.465 219.896 213.854C220.133 214.243 220.207 214.711 220.099 215.154C219.992 215.598 219.713 215.98 219.324 216.218C219.083 216.361 218.861 216.509 218.606 216.681C218.334 216.845 218.021 216.929 217.704 216.926H217.708ZM294.949 213.398C294.68 213.397 294.416 213.334 294.176 213.213L293.421 212.833C293.218 212.734 293.037 212.596 292.888 212.426C292.739 212.257 292.624 212.06 292.551 211.846C292.478 211.632 292.448 211.406 292.462 211.181C292.476 210.956 292.535 210.735 292.634 210.532C292.734 210.33 292.872 210.148 293.041 209.999C293.211 209.85 293.408 209.735 293.622 209.662C293.835 209.589 294.061 209.559 294.287 209.573C294.512 209.587 294.732 209.646 294.935 209.745L295.727 210.139C296.063 210.318 296.33 210.604 296.486 210.952C296.642 211.3 296.679 211.689 296.59 212.06C296.501 212.43 296.291 212.761 295.995 213C295.698 213.238 295.33 213.372 294.949 213.38V213.398ZM224.685 213.042C224.298 213.04 223.922 212.907 223.619 212.666C223.316 212.424 223.104 212.087 223.016 211.71C222.928 211.332 222.97 210.936 223.135 210.586C223.3 210.235 223.579 209.95 223.926 209.778L224.718 209.394C224.921 209.296 225.142 209.239 225.368 209.227C225.593 209.215 225.819 209.247 226.032 209.322C226.245 209.397 226.441 209.514 226.609 209.664C226.777 209.815 226.914 209.998 227.012 210.201C227.109 210.405 227.166 210.626 227.178 210.851C227.19 211.077 227.158 211.303 227.083 211.516C227.008 211.729 226.891 211.925 226.741 212.093C226.59 212.261 226.407 212.398 226.204 212.495L225.444 212.866C225.207 212.982 224.945 213.043 224.68 213.042H224.685ZM287.648 210.162C287.438 210.163 287.229 210.126 287.032 210.051L286.241 209.75C285.811 209.592 285.461 209.27 285.269 208.855C285.077 208.439 285.057 207.964 285.215 207.535C285.373 207.105 285.695 206.755 286.11 206.563C286.526 206.371 287.001 206.351 287.43 206.509L288.264 206.824C288.64 206.967 288.955 207.237 289.153 207.588C289.35 207.938 289.418 208.347 289.345 208.743C289.272 209.139 289.062 209.497 288.751 209.754C288.441 210.01 288.051 210.15 287.648 210.148V210.162ZM232.032 209.889C231.627 209.892 231.233 209.752 230.921 209.493C230.609 209.234 230.398 208.873 230.327 208.474C230.255 208.075 230.327 207.663 230.53 207.312C230.733 206.961 231.054 206.693 231.435 206.556C231.708 206.449 231.986 206.352 232.264 206.25C232.69 206.112 233.152 206.145 233.554 206.343C233.955 206.54 234.265 206.886 234.416 207.307C234.567 207.728 234.548 208.192 234.363 208.599C234.178 209.007 233.842 209.327 233.426 209.491L232.63 209.778C232.435 209.852 232.227 209.89 232.018 209.889H232.032ZM280.046 207.694C279.89 207.696 279.734 207.676 279.583 207.634L278.764 207.417C278.545 207.36 278.34 207.261 278.16 207.125C277.979 206.989 277.828 206.819 277.713 206.625C277.598 206.43 277.523 206.215 277.492 205.991C277.461 205.768 277.473 205.54 277.53 205.322C277.587 205.103 277.686 204.898 277.821 204.718C277.957 204.537 278.127 204.386 278.322 204.271C278.516 204.156 278.732 204.081 278.955 204.05C279.179 204.018 279.406 204.031 279.625 204.088L280.477 204.31C280.881 204.42 281.231 204.673 281.462 205.021C281.693 205.37 281.789 205.791 281.732 206.206C281.675 206.62 281.47 207 281.153 207.274C280.837 207.548 280.432 207.697 280.014 207.694H280.046ZM239.657 207.495C239.239 207.495 238.835 207.341 238.521 207.064C238.207 206.787 238.005 206.405 237.952 205.99C237.899 205.575 238 205.155 238.234 204.808C238.469 204.461 238.822 204.212 239.227 204.106L240.083 203.894C240.302 203.839 240.53 203.829 240.753 203.863C240.977 203.897 241.191 203.974 241.384 204.091C241.577 204.208 241.746 204.361 241.88 204.543C242.013 204.725 242.11 204.931 242.164 205.15C242.218 205.37 242.229 205.597 242.195 205.821C242.161 206.044 242.084 206.258 241.967 206.451C241.85 206.645 241.696 206.813 241.515 206.947C241.333 207.081 241.127 207.177 240.907 207.231L240.088 207.44C239.943 207.477 239.793 207.496 239.643 207.495H239.657ZM272.222 206.019C272.129 206.018 272.036 206.01 271.944 205.995L271.106 205.861C270.656 205.793 270.251 205.549 269.98 205.182C269.71 204.815 269.596 204.356 269.664 203.905C269.732 203.454 269.977 203.049 270.344 202.779C270.71 202.508 271.17 202.395 271.62 202.463L272.495 202.597C272.921 202.668 273.305 202.896 273.571 203.236C273.837 203.576 273.965 204.003 273.931 204.433C273.896 204.864 273.702 205.265 273.385 205.559C273.069 205.852 272.654 206.016 272.222 206.019ZM247.468 205.894C247.037 205.887 246.625 205.72 246.312 205.425C245.999 205.13 245.808 204.728 245.776 204.299C245.744 203.87 245.874 203.445 246.14 203.107C246.406 202.769 246.788 202.542 247.213 202.472C247.505 202.431 247.792 202.384 248.088 202.347C248.314 202.311 248.545 202.32 248.768 202.374C248.991 202.428 249.2 202.526 249.384 202.663C249.568 202.799 249.723 202.971 249.84 203.168C249.957 203.366 250.033 203.584 250.064 203.811C250.094 204.038 250.08 204.269 250.02 204.491C249.96 204.712 249.857 204.919 249.716 205.099C249.575 205.28 249.399 205.431 249.199 205.542C248.999 205.654 248.779 205.725 248.551 205.75L247.718 205.875C247.635 205.886 247.551 205.89 247.468 205.889V205.894ZM264.278 205.134H264.171L263.329 205.088C262.873 205.065 262.445 204.862 262.139 204.524C261.833 204.186 261.674 203.74 261.697 203.285C261.719 202.829 261.922 202.401 262.26 202.095C262.598 201.789 263.044 201.63 263.5 201.653L264.38 201.704C264.835 201.717 265.267 201.911 265.579 202.243C265.892 202.574 266.06 203.017 266.046 203.472C266.033 203.928 265.839 204.359 265.507 204.672C265.175 204.984 264.733 205.152 264.278 205.139V205.134ZM255.421 205.093C254.978 205.084 254.555 204.905 254.241 204.592C253.926 204.28 253.745 203.858 253.733 203.415C253.722 202.972 253.882 202.541 254.18 202.213C254.478 201.885 254.891 201.684 255.333 201.653L256.218 201.611C256.664 201.609 257.094 201.78 257.417 202.089C257.739 202.398 257.929 202.82 257.947 203.266C257.964 203.712 257.808 204.148 257.51 204.481C257.212 204.814 256.797 205.018 256.352 205.051L255.509 205.088L255.421 205.093Z" fill="#9774F3"/>
<path d="M177.648 264.861C177.648 264.861 168.389 268.278 166.477 271.806C164.565 275.333 165.935 296.102 169.278 300.685C172.62 305.269 179.315 303.273 179.315 303.273L181.213 265.398L177.648 264.861Z" fill="#44ADFD"/>
<path d="M237.806 325.162C237.806 325.162 224.426 303.19 222.032 300.843C219.639 298.495 208.884 324.232 208.884 324.232C208.884 324.232 229.759 332.032 231.838 332.481C233.917 332.931 237.444 329.139 237.806 325.162Z" fill="#EAEAEA"/>
<path d="M216.111 312.037C216.111 312.037 216.472 319.995 225.783 324.968C235.093 329.94 236.917 328.241 236.917 328.241C236.917 328.241 234.824 332.407 231.824 332.472L208.871 324.222L216.111 312.037Z" fill="#C6C6C6"/>
<path d="M223.852 269.583L244.879 262.176C244.879 262.176 248.879 263.801 248.477 268.194C248.074 272.588 229.25 284.861 224.926 287.315C220.602 289.769 223.852 269.583 223.852 269.583Z" fill="#EAEAEA"/>
<path d="M239.815 325.884C239.815 325.884 249.31 325.069 250.801 325.296C252.292 325.523 255.139 327.269 254.912 328.611C254.685 329.954 246.324 339.083 243.838 340.648C241.352 342.213 233.417 335.829 232.87 334.606C232.324 333.384 234.167 327.148 239.815 325.884Z" fill="#EAEAEA"/>
<path d="M250.838 333.87C250.838 333.87 244.82 340.458 243.301 340.875C241.783 341.292 234.579 337.218 232.889 334.606C231.199 331.995 238.023 327.338 238.023 327.338C238.023 327.338 235.431 330.477 237.264 333.083C239.097 335.69 241.398 337.014 244.551 336.676C247.704 336.338 250.838 333.87 250.838 333.87Z" fill="#C6C6C6"/>
<path d="M241.204 326.282C241.204 326.282 237.167 331.764 235.185 333.569C233.204 335.375 231.63 335.315 230.806 334.551C229.981 333.787 230.236 332.759 232.111 330.13C233.986 327.5 237.296 323.222 238.5 322.44C239.704 321.657 242.796 322.468 241.204 326.282Z" fill="#6764F5"/>
<path opacity="0.5" d="M234.889 330.449C233.898 329.616 237.065 324.222 238.504 323.218C239.944 322.213 241.5 323.528 241.083 325.255C240.667 326.981 236.018 331.398 234.889 330.449Z" fill="#8583F7"/>
<path d="M179.857 263.954C179.857 263.954 175.38 283.62 179.042 308.861C182.704 334.102 187.722 346.824 187.722 346.824C187.722 346.824 189.894 349.671 192.815 349.532C195.736 349.394 198.37 346.824 198.37 346.824C198.37 346.824 202.329 339.5 210.329 320.898C218.329 302.296 221.903 274.519 222.037 268.824C222.171 263.13 184.06 257.87 179.857 263.954Z" fill="#EAEAEA"/>
<path d="M208.884 324.232C208.884 324.232 216.292 323.264 221.083 310.514C225.875 297.764 225.148 271.731 224.324 268.204C223.5 264.676 216.213 264.861 216.213 264.861C216.213 264.861 219.801 281.407 215.19 300.843C210.579 320.278 208.884 324.232 208.884 324.232Z" fill="#F9F9F9"/>
<path d="M179.856 263.954C179.856 263.954 176.852 277.921 177.602 299.074C178.352 320.227 187.5 346.181 187.5 346.181C187.5 346.181 188.852 349.028 191.708 349.421C194.565 349.815 198.379 346.801 198.379 346.801L200.611 342.366C200.611 342.366 193.791 348.319 190.088 332.505C186.384 316.69 187.25 280.62 189.051 270.588C190.852 260.556 179.856 263.954 179.856 263.954Z" fill="#C6C6C6"/>
<path d="M245.657 262.611C245.657 262.611 247.75 263.685 246.583 266.171C245.417 268.657 237.639 274.847 231.481 277.065C225.324 279.282 224.921 277.065 224.921 277.065L224.741 287.44C224.741 287.44 228.949 285.75 238.481 278.287C248.014 270.824 248.106 269.875 248.472 268.227C248.838 266.579 248.037 263.889 245.657 262.611Z" fill="#C6C6C6"/>
<path d="M243.648 261.745C245.142 258.848 247.066 256.195 249.356 253.875C252.972 250.333 257.37 249.477 258.842 250.713C260.315 251.949 258.352 259.005 254.893 262.315C254.893 262.315 259.06 262.912 259.282 263.657C259.504 264.403 255.208 267.083 251.356 266.694C247.504 266.306 243.648 261.745 243.648 261.745Z" fill="#EAEAEA"/>
<path d="M251.852 265.097C251.949 265.097 254.074 264.606 254.264 264.25C254.454 263.894 251.023 262.907 251.023 262.907C251.023 262.907 254.806 258.375 256.037 254.787C257.269 251.199 255.732 250.319 255.732 250.319C255.732 250.319 257.847 249.63 258.921 250.843C259.995 252.056 258.806 256.213 257.509 258.625C256.808 259.978 255.918 261.225 254.866 262.329C254.866 262.329 259.495 262.88 259.255 263.671C259.014 264.463 256.056 266.806 252.264 266.745C248.472 266.685 251.852 265.097 251.852 265.097Z" fill="#C6C6C6"/>
<path d="M246.19 259.259C246.19 259.259 250.227 263.843 251.393 265.972C252.56 268.102 252.106 269.565 251.199 270.232C250.292 270.898 249.403 270.509 247.449 268.38C245.495 266.25 242.389 262.5 241.968 261.241C241.546 259.982 243.079 257.185 246.19 259.259Z" fill="#6764F5"/>
<path opacity="0.5" d="M248.509 265.806C247.954 266.662 243.329 262.644 242.801 261.097C242.273 259.551 243.639 258.931 244.736 259.37C245.834 259.81 249.56 264.199 248.509 265.806Z" fill="#8583F7"/>
<path d="M197.949 350.431C198.945 351.602 201.023 354.903 200.982 357.889C200.94 360.875 199.306 361.819 198.583 362C197.861 362.181 188.236 362.227 186.514 362C184.792 361.773 184.028 358.759 184.796 356.486C185.565 354.213 186.333 352.282 187.736 350.565C189.139 348.847 197.949 350.431 197.949 350.431Z" fill="#EAEAEA"/>
<path d="M193.204 351.704C193.204 351.704 190.222 351.468 189.408 353.954C188.593 356.44 188.324 359.972 190.357 361.051C191.52 361.702 192.817 362.077 194.148 362.148C194.148 362.148 188.32 362.245 186.69 362.019C185.06 361.792 184.079 359.704 184.611 357.181C185.144 354.657 186.519 351.982 187.301 351.102C188.084 350.222 193.204 351.704 193.204 351.704Z" fill="#C6C6C6"/>
<path d="M199.014 351.162C198.404 351.572 197.683 351.782 196.949 351.764C195.236 351.764 191.092 351.681 189.19 351.583C186.875 351.468 185.792 350.792 186 348.769C186.111 347.657 186.926 347.208 189.824 347.042C192.722 346.875 197.597 346.806 198.833 347.264C199.189 347.442 199.49 347.711 199.707 348.045C199.924 348.378 200.048 348.763 200.066 349.16C200.084 349.557 199.997 349.952 199.812 350.304C199.627 350.656 199.351 350.952 199.014 351.162Z" fill="#6764F5"/>
<path opacity="0.5" d="M190.366 349.338C190.505 347.722 197.384 347.287 198.472 348C199.56 348.713 199.792 350.338 197.824 350.676C195.857 351.014 190.278 350.542 190.366 349.338Z" fill="#8583F7"/>
<path d="M177.481 266.75C174.162 267.028 168.44 270.194 167.412 273.176C166.384 276.157 167.412 287.912 167.412 287.912C167.412 287.912 172.171 282.491 174.977 276.162C177.782 269.833 177.481 266.75 177.481 266.75Z" fill="#C6C6C6"/>
<path d="M177.745 301.657C177.745 301.657 210.819 303.509 223.578 299.963L223.333 302.491C223.333 302.491 213.935 307.611 177.903 304L177.745 301.657Z" fill="#9774F3"/>
<path d="M177.167 295.417C177.167 295.417 211.245 297.269 224.389 293.722L224.139 296.25C224.139 296.25 214.467 301.389 177.342 297.764L177.167 295.417Z" fill="#9774F3"/>
<path d="M182.796 267.347C182.796 267.347 166.296 294.375 165.667 297.676C165.037 300.977 168.662 304.542 171.092 303.917C173.523 303.292 193.518 289.722 193.518 289.722C193.518 289.722 197.907 285.745 197.685 278.282C197.463 270.819 186.954 265.449 182.796 267.347Z" fill="#EAEAEA"/>
<path d="M195.37 273.523C195.37 273.523 197.264 277.991 190.889 283.278C184.514 288.565 172.653 299.944 169.398 301.046C166.143 302.148 165.569 298.875 165.569 298.875C165.578 299.654 165.761 300.421 166.107 301.119C166.452 301.817 166.951 302.428 167.565 302.907C169.634 304.435 171.069 303.917 171.069 303.917C171.069 303.917 173.467 303.028 182.56 296.972C191.653 290.917 192.282 290.583 193.491 289.704C194.699 288.824 197.13 286.787 197.907 281.634C198.685 276.481 195.704 273.806 195.37 273.523Z" fill="#C6C6C6"/>
<path d="M162.963 298.986C160.424 300.938 158.196 303.264 156.356 305.884C153.555 310 153.491 314.412 154.944 315.606C156.398 316.801 162.893 313.685 165.495 309.764C165.495 309.764 166.796 313.685 167.56 313.778C168.324 313.87 170.171 309.236 169.12 305.569C168.069 301.903 162.963 298.986 162.963 298.986Z" fill="#EAEAEA"/>
<path d="M166.5 304.657C166.5 304.657 167.625 307.931 167.319 308.079C167.014 308.227 164.74 305.426 164.74 305.426C164.74 305.426 164.347 307.542 160.407 311.444C156.467 315.347 154.495 315.088 154.495 315.088C154.628 315.384 154.859 315.624 155.15 315.767C155.441 315.91 155.773 315.946 156.088 315.87C157.278 315.648 159.43 315.259 162.273 312.981C165.115 310.704 165.477 309.773 165.477 309.773C165.477 309.773 166.731 313.588 167.541 313.787C168.352 313.986 170.379 308.731 169.018 305.417C167.657 302.102 166.5 304.657 166.5 304.657Z" fill="#C6C6C6"/>
<path d="M161.796 300.074C161.796 300.074 166.565 304.583 168.81 305.917C171.055 307.25 172.643 306.843 173.393 305.87C174.143 304.898 173.759 303.954 171.542 301.769C169.324 299.583 165.43 296.111 164.106 295.611C162.782 295.111 159.694 296.653 161.796 300.074Z" fill="#6764F5"/>
<path opacity="0.5" d="M169.176 303.5C168.338 304.009 162.607 300.412 161.963 298.259C161.32 296.106 163.38 295.944 164.556 296.986C165.732 298.028 170.199 302.875 169.176 303.5Z" fill="#8583F7"/>
<path d="M196.546 270.833C196.546 270.833 200.083 271.426 197.935 281.667C195.787 291.907 195.324 293.986 193.768 296.065C192.213 298.144 177.639 300.194 177.639 300.194L177.838 303.213C177.838 303.213 186.125 303.986 196.953 300.704C207.782 297.421 206.972 272.319 205.796 271.713C204.62 271.107 196.546 270.833 196.546 270.833Z" fill="#44ADFD"/>
<path d="M200.144 271.81C199.745 272.273 200.56 276.44 199.111 285.199C197.662 293.958 195.315 296.375 195.315 296.375C195.315 296.375 199.755 297.486 203.093 288.366C206.431 279.245 205.44 271.699 203.995 271.81C202.551 271.921 200.144 271.81 200.144 271.81Z" fill="#C6C6C6"/>
<path d="M183.588 334.12C183.588 334.12 190.18 335.801 204.477 334.12L203.384 336.5C197.11 337.437 190.732 337.437 184.458 336.5L183.588 334.12Z" fill="#9774F3"/>
<path d="M230.847 313.926C228.214 319.64 224.033 324.503 218.778 327.963L222.019 329.083C222.019 329.083 230.269 323.616 232.509 316.583L230.847 313.926Z" fill="#9774F3"/>
<path d="M174.884 280.556C176.855 282.535 179.125 284.191 181.611 285.463C185.315 287.231 189.296 284.87 188.491 280.556C187.685 276.241 180.282 271.486 180.282 271.486L174.884 280.556Z" fill="#C1ACF8"/>
<path d="M224.699 269.287C224.699 269.287 225.343 274.745 227.185 276.648C229.028 278.551 232.482 277.801 233 274.403C233.519 271.005 231.917 266.75 231.917 266.75L224.699 269.287Z" fill="#C1ACF8"/>
<path d="M177.481 257.514C177.481 257.514 175.449 258.519 175.787 261.778C176.125 265.037 179.366 268.972 199.815 271.208C220.264 273.444 226.505 268.894 227.727 266.463C228.949 264.032 227.727 261.583 227.727 261.583L177.481 257.514Z" fill="#EAEAEA"/>
<path d="M176.616 258.282C176.616 258.282 182.981 264.639 199.815 266.329C216.648 268.019 222.13 265.097 224.296 264.231C226.463 263.366 226.778 262.38 226.778 262.38L227.833 262.185C227.833 262.185 228.81 265.708 217.241 267.606C205.671 269.505 188.718 267.426 181.213 263.81C173.708 260.194 176.616 258.282 176.616 258.282Z" fill="#9774F3"/>
<path d="M222.685 212.176C222.685 212.176 211.953 204.769 195.231 207.384C178.509 210 166.481 222.935 169.194 240.926C171.907 258.917 179.745 264.62 202.731 266.602C225.717 268.583 231.213 258.375 231.481 257.106C231.75 255.838 222.685 212.176 222.685 212.176Z" fill="#EAEAEA"/>
<path d="M227.537 214.815C227.537 214.815 232.893 218.954 235.13 231.088C237.366 243.222 234.667 252.449 234.667 252.449C234.667 252.449 235.727 255.69 218.514 255.333C201.301 254.977 191.481 243.69 191.481 243.69C191.481 243.69 209.773 213.329 227.537 214.815Z" fill="#6764F5"/>
<path d="M228.736 213.667L228.273 215.565C228.273 215.565 221.491 214.819 211.662 223.5C201.833 232.181 192.681 244.449 192.681 244.449L189.815 242.69C189.815 242.69 197.273 228.315 210.019 219.972C222.764 211.63 228.736 213.667 228.736 213.667Z" fill="#44ADFD"/>
<path d="M217.657 207.477C217.657 207.477 192.842 215.384 187.014 243.005L191.986 243.981C191.986 243.981 199.713 230.917 210.967 222.194C222.222 213.472 228.055 213.245 228.736 213.648C228.736 213.667 225.741 208.583 217.657 207.477Z" fill="#F9F9F9"/>
<path d="M236.259 252.884L234.681 251.718C234.681 251.718 233.584 253.282 227.412 253.435C221.241 253.588 202.38 249.861 192.755 244.227H192.074C192.074 244.227 191.736 248.986 208.144 253.407C224.551 257.829 235.153 255.093 236.259 252.884Z" fill="#44ADFD"/>
<path d="M191.986 243.981C191.986 243.981 202.38 250.875 217.912 253.704C233.445 256.532 236.222 252.824 236.222 252.824C236.222 252.824 234.12 259.537 229.917 261.5C225.713 263.463 217.37 262.588 210.116 260.486C202.861 258.384 189.056 248.62 189.056 248.62L191.986 243.981Z" fill="#F9F9F9"/>
<path d="M228.283 215.565C228.283 215.565 221.537 214.523 210.741 224.333C204.153 230.338 198.132 236.937 192.755 244.046C192.755 244.046 199.431 248.616 213.746 251.454C228.06 254.292 232.125 253.574 234.681 251.731C234.681 251.731 233.435 253.097 223.718 251.88C214 250.662 202.38 245.597 201.611 242.838C200.843 240.079 209.57 226.023 218.065 221.051C226.56 216.079 229.491 216.968 229.491 216.968L228.283 215.565Z" fill="#9774F3"/>
<path opacity="0.5" d="M215.898 223.208C215.898 223.208 222.694 226.417 224.393 236.268C226.037 245.801 223.491 251.143 223.491 251.143C223.491 251.143 225.611 252.185 229.773 252.361C233.935 252.537 236.254 245.176 235.106 234.056C233.958 222.935 228.736 216.893 228.736 216.893C223.876 217.521 219.361 219.741 215.898 223.208Z" fill="#8583F7"/>
<path d="M185.532 210.301C185.532 210.301 167.986 215.972 168.819 237.944C169.653 259.917 182.944 265.153 202.741 266.602C222.537 268.051 226.792 262.634 226.792 262.634C221.568 263.012 216.321 262.409 211.319 260.856C203.194 258.282 189.838 249.204 189.838 249.204C189.838 249.204 179.597 249.375 175.352 236.838C171.106 224.301 178.903 213.12 185.532 210.301Z" fill="#C6C6C6"/>
<path d="M189.94 252.704C194.453 252.704 198.111 249.045 198.111 244.532C198.111 240.02 194.453 236.361 189.94 236.361C185.427 236.361 181.769 240.02 181.769 244.532C181.769 249.045 185.427 252.704 189.94 252.704Z" fill="#44ADFD"/>
<path d="M194.754 249.368C197.725 246.398 197.725 241.581 194.754 238.611C191.784 235.64 186.968 235.64 183.997 238.611C181.027 241.581 181.027 246.398 183.997 249.368C186.968 252.339 191.784 252.339 194.754 249.368Z" fill="#F9F9F9"/>
<path d="M226.792 262.634C226.792 262.634 221.616 268.19 203.644 266.662C185.671 265.134 172.718 261.222 169.199 242.44C165.681 223.657 179.384 213.736 179.384 213.736C179.384 213.736 166.482 223.5 171.722 242.574C176.963 261.648 210.889 263.454 210.889 263.454C210.889 263.454 198.389 261.75 190.709 252.389L193.875 251.616C193.875 251.616 209.343 263.19 226.792 262.634Z" fill="#44ADFD"/>
<path d="M266.94 265.097C266.842 265.097 264.717 264.606 264.523 264.25C264.329 263.894 267.764 262.907 267.764 262.907C267.764 262.907 263.981 258.375 262.745 254.787C261.509 251.199 263.051 250.319 263.051 250.319C263.051 250.319 260.935 249.63 259.861 250.843C258.787 252.056 259.981 256.213 261.25 258.625C261.953 259.977 262.843 261.224 263.893 262.329C263.893 262.329 259.264 262.88 259.504 263.671C259.745 264.463 262.704 266.806 266.495 266.745C270.287 266.685 266.94 265.097 266.94 265.097Z" fill="#C6C6C6"/>
<path d="M341.144 264.861C341.144 264.861 350.403 268.278 352.315 271.806C354.227 275.333 352.861 296.102 349.537 300.685C346.213 305.269 339.505 303.273 339.505 303.273L337.602 265.398L341.144 264.861Z" fill="#44ADFD"/>
<path d="M280.986 325.162C280.986 325.162 294.366 303.19 296.764 300.843C299.162 298.495 309.908 324.232 309.908 324.232C309.908 324.232 289.033 332.032 286.954 332.481C284.875 332.931 281.347 329.139 280.986 325.162Z" fill="#EAEAEA"/>
<path d="M302.685 312.037C302.685 312.037 302.315 320.009 293.009 325C283.704 329.991 281.898 328.269 281.898 328.269C281.898 328.269 283.995 332.435 286.991 332.5L309.944 324.25L302.685 312.037Z" fill="#C6C6C6"/>
<path d="M294.94 269.583L273.912 262.176C273.912 262.176 269.912 263.801 270.32 268.194C270.727 272.588 289.547 284.861 293.866 287.315C298.185 289.769 294.94 269.583 294.94 269.583Z" fill="#EAEAEA"/>
<path d="M278.977 325.884C278.977 325.884 269.486 325.069 267.991 325.296C266.495 325.523 263.653 327.269 263.88 328.611C264.106 329.954 272.467 339.083 274.954 340.648C277.44 342.213 285.375 335.81 285.907 334.588C286.44 333.366 284.63 327.148 278.977 325.884Z" fill="#EAEAEA"/>
<path d="M267.954 333.87C267.954 333.87 273.972 340.458 275.491 340.875C277.009 341.292 284.213 337.218 285.907 334.606C287.602 331.995 280.773 327.338 280.773 327.338C280.773 327.338 283.361 330.477 281.532 333.083C279.704 335.69 277.393 337.014 274.241 336.676C271.088 336.338 267.954 333.87 267.954 333.87Z" fill="#C6C6C6"/>
<path d="M277.606 326.282C277.606 326.282 281.643 331.764 283.625 333.569C285.606 335.375 287.18 335.315 288.009 334.551C288.838 333.787 288.579 332.759 286.699 330.13C284.819 327.5 281.514 323.222 280.31 322.44C279.106 321.657 275.995 322.468 277.606 326.282Z" fill="#6764F5"/>
<path opacity="0.5" d="M283.903 330.449C284.898 329.616 281.731 324.222 280.287 323.218C278.842 322.213 277.292 323.528 277.713 325.255C278.134 326.981 282.773 331.398 283.903 330.449Z" fill="#8583F7"/>
<path d="M338.935 263.954C338.935 263.954 343.412 283.62 339.75 308.861C336.088 334.102 331.069 346.824 331.069 346.824C331.069 346.824 328.903 349.671 325.977 349.532C323.051 349.394 320.421 346.824 320.421 346.824C320.421 346.824 316.467 339.5 308.467 320.898C300.467 302.296 296.898 274.537 296.759 268.838C296.62 263.139 334.722 257.87 338.935 263.954Z" fill="#EAEAEA"/>
<path d="M309.907 324.232C309.907 324.232 302.5 323.264 297.713 310.514C292.926 297.764 293.643 271.731 294.472 268.204C295.301 264.676 302.579 264.861 302.579 264.861C302.579 264.861 298.991 281.407 303.602 300.843C308.213 320.278 309.907 324.232 309.907 324.232Z" fill="#F9F9F9"/>
<path d="M338.935 263.954C338.935 263.954 341.954 277.921 341.204 299.074C340.454 320.227 331.32 346.176 331.32 346.176C331.32 346.176 329.968 349.023 327.116 349.417C324.264 349.81 320.44 346.796 320.44 346.796L318.208 342.361C318.208 342.361 325 348.333 328.704 332.519C332.408 316.704 331.542 280.634 329.736 270.602C327.931 260.569 338.935 263.954 338.935 263.954Z" fill="#C6C6C6"/>
<path d="M273.148 262.611C273.148 262.611 271.051 263.685 272.222 266.171C273.394 268.657 281.162 274.847 287.315 277.065C293.468 279.282 293.87 277.065 293.87 277.065L294.051 287.44C294.051 287.44 289.847 285.75 280.31 278.287C270.773 270.824 270.685 269.875 270.324 268.227C269.963 266.579 270.759 263.889 273.148 262.611Z" fill="#C6C6C6"/>
<path d="M275.148 261.745C273.654 258.848 271.728 256.194 269.435 253.875C265.824 250.333 261.422 249.477 259.949 250.713C258.477 251.949 260.445 259.005 263.898 262.315C263.898 262.315 259.732 262.912 259.509 263.657C259.287 264.403 263.584 267.083 267.44 266.694C271.297 266.306 275.148 261.745 275.148 261.745Z" fill="#EAEAEA"/>
<path d="M272.602 259.259C272.602 259.259 268.565 263.843 267.403 265.972C266.241 268.102 266.685 269.565 267.597 270.232C268.509 270.898 269.389 270.509 271.347 268.38C273.305 266.25 276.389 262.5 276.852 261.241C277.315 259.982 275.717 257.185 272.602 259.259Z" fill="#6764F5"/>
<path opacity="0.5" d="M270.282 265.806C270.833 266.667 275.463 262.644 275.991 261.111C276.518 259.579 275.157 258.944 274.06 259.384C272.963 259.824 269.231 264.199 270.282 265.806Z" fill="#8583F7"/>
<path d="M320.833 350.431C319.838 351.602 317.759 354.903 317.805 357.889C317.852 360.875 319.477 361.819 320.199 362C320.921 362.181 330.551 362.227 332.268 362C333.986 361.773 334.755 358.759 333.986 356.486C333.217 354.213 332.449 352.282 331.051 350.565C329.653 348.847 320.833 350.431 320.833 350.431Z" fill="#EAEAEA"/>
<path d="M325.593 351.704C325.593 351.704 328.574 351.468 329.384 353.954C330.194 356.44 330.472 359.972 328.435 361.051C327.272 361.702 325.975 362.077 324.644 362.148C324.644 362.148 330.472 362.245 332.102 362.019C333.732 361.792 334.713 359.704 334.181 357.181C333.648 354.657 332.273 351.982 331.495 351.102C330.718 350.222 325.593 351.704 325.593 351.704Z" fill="#C6C6C6"/>
<path d="M319.782 351.162C320.391 351.572 321.113 351.782 321.847 351.764C323.555 351.764 327.699 351.681 329.602 351.583C331.917 351.468 333.005 350.792 332.796 348.769C332.68 347.657 331.87 347.208 328.968 347.042C326.065 346.875 321.194 346.806 319.958 347.264C319.602 347.441 319.299 347.711 319.082 348.044C318.865 348.378 318.741 348.764 318.723 349.161C318.705 349.559 318.794 349.954 318.98 350.306C319.166 350.658 319.443 350.953 319.782 351.162Z" fill="#6764F5"/>
<path opacity="0.5" d="M328.426 349.338C328.287 347.722 321.407 347.287 320.324 348C319.241 348.713 319 350.338 320.967 350.676C322.935 351.014 328.528 350.542 328.426 349.338Z" fill="#8583F7"/>
<path d="M341.315 266.75C344.634 267.028 350.356 270.194 351.38 273.176C352.403 276.157 351.38 287.912 351.38 287.912C351.38 287.912 346.62 282.491 343.819 276.162C341.018 269.833 341.315 266.75 341.315 266.75Z" fill="#C6C6C6"/>
<path d="M341.046 301.657C341.046 301.657 307.972 303.509 295.213 299.963L295.458 302.491C295.458 302.491 304.856 307.611 340.884 304L341.046 301.657Z" fill="#9774F3"/>
<path d="M341.625 295.417C341.625 295.417 307.546 297.269 294.403 293.722L294.657 296.25C294.657 296.25 304.338 301.375 341.468 297.764L341.625 295.417Z" fill="#9774F3"/>
<path d="M336 267.347C336 267.347 352.5 294.375 353.13 297.676C353.759 300.977 350.134 304.542 347.708 303.917C345.282 303.292 325.287 289.722 325.287 289.722C325.287 289.722 320.893 285.745 321.12 278.282C321.347 270.819 331.838 265.449 336 267.347Z" fill="#EAEAEA"/>
<path d="M323.403 273.523C323.403 273.523 321.509 277.991 327.884 283.278C334.259 288.565 346.125 299.944 349.38 301.046C352.634 302.148 353.204 298.875 353.204 298.875C353.195 299.654 353.012 300.421 352.666 301.119C352.321 301.817 351.823 302.428 351.208 302.907C349.144 304.435 347.708 303.917 347.708 303.917C347.708 303.917 345.31 303.028 336.213 296.972C327.116 290.917 326.491 290.583 325.287 289.704C324.083 288.824 321.648 286.787 320.866 281.634C320.083 276.481 323.088 273.806 323.403 273.523Z" fill="#C6C6C6"/>
<path d="M355.847 298.986C358.387 300.936 360.615 303.262 362.454 305.884C365.259 310 365.319 314.412 363.866 315.606C362.412 316.801 355.921 313.685 353.319 309.764C353.319 309.764 352.014 313.685 351.255 313.778C350.495 313.87 348.644 309.236 349.694 305.569C350.745 301.903 355.847 298.986 355.847 298.986Z" fill="#EAEAEA"/>
<path d="M352.315 304.657C352.315 304.657 351.19 307.931 351.491 308.079C351.792 308.227 354.069 305.426 354.069 305.426C354.069 305.426 354.463 307.542 358.403 311.444C362.343 315.347 364.319 315.088 364.319 315.088C364.187 315.385 363.954 315.625 363.663 315.768C363.371 315.911 363.038 315.947 362.722 315.87C361.537 315.648 359.38 315.259 356.537 312.981C353.694 310.704 353.338 309.773 353.338 309.773C353.338 309.773 352.079 313.588 351.273 313.787C350.468 313.986 348.435 308.731 349.796 305.417C351.157 302.102 352.315 304.657 352.315 304.657Z" fill="#C6C6C6"/>
<path d="M357 300.074C357 300.074 352.227 304.583 350 305.917C347.773 307.25 346.167 306.843 345.417 305.87C344.667 304.898 345.051 303.954 347.269 301.769C349.486 299.583 353.384 296.111 354.704 295.611C356.023 295.111 359.102 296.653 357 300.074Z" fill="#6764F5"/>
<path opacity="0.5" d="M349.62 303.5C350.453 304.009 356.19 300.412 356.828 298.259C357.467 296.106 355.412 295.944 354.241 296.986C353.069 298.028 348.611 302.875 349.62 303.5Z" fill="#8583F7"/>
<path d="M322.246 270.833C322.246 270.833 318.709 271.426 320.857 281.667C323.005 291.907 323.468 293.986 325.023 296.065C326.579 298.144 341.153 300.194 341.153 300.194L340.954 303.213C340.954 303.213 332.667 303.986 321.838 300.704C311.009 297.421 311.82 272.319 313 271.713C314.181 271.107 322.246 270.833 322.246 270.833Z" fill="#44ADFD"/>
<path d="M318.648 271.81C319.046 272.273 318.236 276.44 319.681 285.199C321.125 293.958 323.477 296.375 323.477 296.375C323.477 296.375 319.037 297.486 315.704 288.366C312.37 279.245 313.352 271.699 314.778 271.81C316.204 271.921 318.648 271.81 318.648 271.81Z" fill="#C6C6C6"/>
<path d="M335.208 334.12C335.208 334.12 328.616 335.801 314.315 334.12L315.412 336.5C321.686 337.437 328.064 337.437 334.338 336.5L335.208 334.12Z" fill="#9774F3"/>
<path d="M287.963 313.926C290.587 319.636 294.756 324.499 300 327.963L296.759 329.083C296.759 329.083 288.504 323.616 286.264 316.583L287.963 313.926Z" fill="#9774F3"/>
<path d="M343.912 280.556C341.941 282.536 339.669 284.192 337.181 285.463C333.477 287.231 329.496 284.87 330.306 280.556C331.116 276.241 338.509 271.486 338.509 271.486L343.912 280.556Z" fill="#C1ACF8"/>
<path d="M294.092 269.287C294.092 269.287 293.454 274.745 291.611 276.648C289.768 278.551 286.31 277.801 285.792 274.403C285.273 271.005 286.88 266.75 286.88 266.75L294.092 269.287Z" fill="#C1ACF8"/>
<path d="M341.31 257.514C341.31 257.514 343.343 258.519 343.005 261.778C342.667 265.037 339.426 268.981 318.982 271.208C298.537 273.435 292.292 268.894 291.07 266.463C289.847 264.032 291.07 261.583 291.07 261.583L341.31 257.514Z" fill="#EAEAEA"/>
<path d="M342.18 258.282C342.18 258.282 335.81 264.639 318.981 266.329C302.153 268.019 296.671 265.097 294.504 264.231C292.338 263.366 292.018 262.38 292.018 262.38L290.963 262.185C290.963 262.185 289.986 265.708 301.56 267.606C313.134 269.505 330.083 267.426 337.583 263.81C345.083 260.194 342.18 258.282 342.18 258.282Z" fill="#9774F3"/>
<path d="M296.097 212.176C296.097 212.176 306.829 204.769 323.556 207.384C340.282 210 352.306 222.935 349.593 240.926C346.88 258.917 339.037 264.62 316.051 266.602C293.065 268.583 287.574 258.375 287.301 257.106C287.028 255.838 296.097 212.176 296.097 212.176Z" fill="#EAEAEA"/>
<path d="M291.259 214.815C291.259 214.815 285.903 218.954 283.662 231.088C281.421 243.222 284.125 252.449 284.125 252.449C284.125 252.449 283.065 255.69 300.273 255.333C317.481 254.977 327.315 243.694 327.315 243.694C327.315 243.694 309.023 213.329 291.259 214.815Z" fill="#6764F5"/>
<path d="M290.06 213.667L290.523 215.565C290.523 215.565 297.305 214.819 307.139 223.5C316.972 232.181 326.12 244.449 326.12 244.449L328.986 242.69C328.986 242.69 321.528 228.315 308.778 219.972C296.028 211.63 290.06 213.667 290.06 213.667Z" fill="#44ADFD"/>
<path d="M301.134 207.477C301.134 207.477 325.949 215.384 331.782 243.005L326.81 243.981C326.81 243.981 319.079 230.917 307.829 222.194C296.579 213.472 290.741 213.264 290.06 213.667C290.06 213.667 293.055 208.583 301.134 207.477Z" fill="#F9F9F9"/>
<path d="M282.532 252.884L284.116 251.718C284.116 251.718 285.213 253.282 291.379 253.435C297.546 253.588 316.412 249.861 326.041 244.227H326.717C326.717 244.227 327.06 248.986 310.648 253.407C294.236 257.829 283.639 255.093 282.532 252.884Z" fill="#44ADFD"/>
<path d="M326.81 243.981C326.81 243.981 316.412 250.875 300.884 253.704C285.356 256.532 282.579 252.824 282.579 252.824C282.579 252.824 284.68 259.537 288.884 261.5C293.088 263.463 301.426 262.588 308.68 260.486C315.935 258.384 329.741 248.62 329.741 248.62L326.81 243.981Z" fill="#F9F9F9"/>
<path d="M290.509 215.565C290.509 215.565 297.255 214.523 308.056 224.333C314.642 230.339 320.663 236.938 326.042 244.046C326.042 244.046 319.361 248.616 305.051 251.454C290.741 254.292 286.667 253.574 284.116 251.731C284.116 251.731 285.356 253.097 295.079 251.88C304.801 250.662 316.412 245.597 317.181 242.838C317.949 240.079 309.227 226.023 300.727 221.051C292.227 216.079 289.301 216.968 289.301 216.968L290.509 215.565Z" fill="#9774F3"/>
<path opacity="0.5" d="M302.898 223.208C302.898 223.208 296.097 226.417 294.398 236.268C292.754 245.801 295.324 251.143 295.324 251.143C295.324 251.143 293.203 252.185 289.046 252.361C284.889 252.537 282.565 245.176 283.708 234.056C284.852 222.935 290.083 216.893 290.083 216.893C294.935 217.527 299.44 219.747 302.898 223.208Z" fill="#8583F7"/>
<path d="M333.259 210.301C333.259 210.301 350.81 215.972 349.972 237.944C349.134 259.917 335.852 265.153 316.051 266.602C296.25 268.051 292.004 262.634 292.004 262.634C297.226 263.012 302.472 262.409 307.472 260.856C315.597 258.282 328.958 249.204 328.958 249.204C328.958 249.204 339.194 249.375 343.444 236.838C347.694 224.301 339.893 213.12 333.259 210.301Z" fill="#C6C6C6"/>
<path d="M328.856 252.704C333.369 252.704 337.028 249.045 337.028 244.532C337.028 240.02 333.369 236.361 328.856 236.361C324.343 236.361 320.685 240.02 320.685 244.532C320.685 249.045 324.343 252.704 328.856 252.704Z" fill="#44ADFD"/>
<path d="M334.8 249.368C337.771 246.398 337.771 241.582 334.8 238.611C331.83 235.641 327.014 235.641 324.043 238.611C321.073 241.582 321.073 246.398 324.043 249.368C327.014 252.339 331.83 252.339 334.8 249.368Z" fill="#F9F9F9"/>
<path d="M292.004 262.634C292.004 262.634 297.176 268.19 315.153 266.662C333.129 265.134 346.078 261.222 349.597 242.44C353.116 223.657 339.412 213.736 339.412 213.736C339.412 213.736 352.319 223.5 347.074 242.574C341.828 261.648 307.907 263.454 307.907 263.454C307.907 263.454 320.407 261.75 328.088 252.389L324.926 251.616C324.926 251.616 309.449 263.19 292.004 262.634Z" fill="#44ADFD"/>
</svg>
