<svg width="439" height="316" viewBox="0 0 439 316" fill="none" xmlns="http://www.w3.org/2000/svg">
<path d="M179.823 53.6935C179.823 53.6935 188.741 14.59 230.137 19.3011C271.533 24.0122 272.302 56.7503 271.025 68.9772C269.749 81.2042 174.73 81.3343 179.823 53.6935Z" fill="#EAEAEA"/>
<path d="M235.946 20.1953C235.946 20.1953 257.762 23.9959 265.477 39.2999C273.192 54.604 272.233 70.0096 272.233 70.0096L219.439 59.8882C219.439 59.8882 248.779 64.136 252.323 47.0678C255.868 29.9997 235.946 20.1953 235.946 20.1953Z" fill="#C6C6C6"/>
<path d="M179.628 63.9002C179.628 63.9002 179.628 63.636 179.628 63.1441C179.628 59.4858 180.38 43.2265 193.079 30.7516C207.476 16.6264 227.122 18.2848 235.959 20.1831C235.959 20.1831 217.285 16.2321 206.842 31.5158C196.4 46.7995 210.789 57.1241 210.789 57.1241L179.628 63.9002Z" fill="#F9F9F9"/>
<path d="M143.659 85.3464C143.659 85.3464 138.427 83.5619 134.606 87.1918C130.785 90.8217 132.123 98.2603 136.07 101.012C140.016 103.764 146.963 103.288 146.963 103.288L154.54 96.5002C154.54 96.5002 151.101 78.2086 148.553 76.8469C146.004 75.4851 143.659 85.3464 143.659 85.3464Z" fill="#EAEAEA"/>
<path d="M154.256 96.4269C154.256 96.4269 149.699 102.463 147.407 103.28C145.114 104.097 138.968 103.13 136.07 101.004C134.241 99.5562 132.983 97.508 132.518 95.2219C132.054 92.9358 132.414 90.5592 133.533 88.5127C133.533 88.5127 132.188 94.0815 138.907 97.3699C145.626 100.658 153.947 94.0083 153.947 94.0083L154.256 96.4269Z" fill="#C6C6C6"/>
<path d="M151.358 99.7722C148.654 102.321 148.106 105.536 148.301 106.044C148.496 106.552 165.349 132.157 173.686 138.75C182.023 145.343 181.449 114.576 180.189 111.617C178.929 108.658 156.691 97.4797 156.691 97.4797C156.691 97.4797 154.699 96.6179 151.358 99.7722Z" fill="#EAEAEA"/>
<path d="M151.358 99.772C151.358 99.772 148.301 102.333 148.301 106.044C148.301 106.044 155.012 116.1 161.186 124.51C164.771 129.435 168.767 134.047 173.133 138.294L176.242 119.974C176.242 119.974 174.007 124.039 163.682 115.962C153.459 107.987 151.618 103.577 151.358 99.772Z" fill="#C6C6C6"/>
<path d="M283.858 157.09C283.858 157.09 263.989 122.718 260.071 119.938C256.152 117.157 251.571 139.225 252.425 145.339C253.279 151.452 255.677 153.062 255.677 153.062C255.677 153.062 275.188 164.143 276.79 164.716C278.391 165.289 284.131 161.391 283.858 157.09Z" fill="#EAEAEA"/>
<path d="M277.627 165.098L252.323 151.781L254.518 129.083C254.518 129.083 258.14 139.831 268.099 149.741C278.058 159.651 281.635 157.7 281.635 157.7L277.627 165.098Z" fill="#C6C6C6"/>
<path d="M175.75 159.671C175.75 159.671 174.856 176.483 177.34 190.621C179.823 204.758 189.912 209.156 189.912 209.156C189.912 209.156 197.733 210.539 220.138 206.864C220.138 206.864 221.285 205.527 220.711 200.653C220.138 195.779 205.525 191.674 205.334 191.304C205.143 190.934 204.269 187.926 207.712 185.65C211.155 183.373 217.468 187.276 217.468 187.276C217.468 187.276 223.833 159.001 175.75 159.671Z" fill="#EAEAEA"/>
<path d="M182.628 111.65C182.628 111.65 176.767 134.193 175.75 159.671C174.734 185.15 202.497 183.617 207.082 185.28C211.667 186.942 223.898 216.741 224.914 219.546C225.93 222.351 235.426 222.392 237.922 219.546C237.922 219.546 242.316 209.165 247.271 178.593C252.226 148.022 254.722 125.86 254.339 120.129C253.957 114.398 210.269 93.4353 182.628 111.65Z" fill="#EAEAEA"/>
<path d="M223.598 216.233C223.598 216.233 228.451 222.33 231.223 214.888C233.995 207.445 237.43 181.93 237.621 161.773C237.812 141.615 232.369 137.603 224.15 135.786C215.931 133.969 194.25 130.644 182.884 120.978C171.519 111.312 188.234 106.044 188.234 106.044L254.34 120.12C254.34 120.12 254.031 135.286 250.194 159.659C246.356 184.031 245.434 192.872 242.157 204.839C238.881 216.806 238.292 218.786 237.91 219.538C237.528 220.29 235.426 221.7 231.077 221.659C226.727 221.619 225.687 220.948 225.236 220.066C224.784 219.184 223.598 216.233 223.598 216.233Z" fill="#C6C6C6"/>
<path d="M208.615 186.499C208.615 186.499 202.647 178.012 189.104 171.707C189.104 171.707 194.9 173.809 195.664 182.15C196.428 190.491 194.644 195.08 195.026 197.307C195.408 199.535 204.619 196.876 215.586 198.364L213.716 194.685C213.716 194.685 206.237 191.576 205.314 191.291C205.334 191.291 204.542 185.56 208.615 186.499Z" fill="#C6C6C6"/>
<path d="M284.094 156.484C287.353 158.484 290.29 160.966 292.805 163.846C296.65 168.386 297.276 173.601 295.707 175.227C294.138 176.853 286.029 173.943 282.443 169.614C282.443 169.614 281.391 174.435 280.5 174.642C279.61 174.849 276.842 169.573 277.614 165.09C278.387 160.606 284.094 156.484 284.094 156.484Z" fill="#EAEAEA"/>
<path d="M279.46 165.821C279.436 165.935 279.866 168.467 280.273 168.723C280.679 168.98 282.118 165.065 282.118 165.065C282.118 165.065 287.11 169.882 291.211 171.634C295.313 173.386 296.496 171.634 296.496 171.634C296.496 171.634 297.122 174.174 295.609 175.333C294.097 176.491 289.321 174.735 286.606 173.012C285.078 172.075 283.691 170.927 282.484 169.601C282.484 169.601 281.44 175 280.541 174.63C279.643 174.26 277.135 170.614 277.533 166.175C277.932 161.736 279.46 165.821 279.46 165.821Z" fill="#C6C6C6"/>
<path d="M287.163 159.017C287.163 159.017 282.065 164.972 279.566 166.821C277.066 168.671 275.127 168.378 274.119 167.341C273.111 166.305 273.44 165.11 275.818 162.24C278.196 159.37 282.366 154.749 283.874 153.988C285.382 153.228 289.228 154.688 287.163 159.017Z" fill="#6764F5"/>
<path d="M279.253 163.163C278.066 162.606 282.338 156.005 284.208 155.058C286.078 154.111 287.114 155.729 286.753 157.204C286.391 158.68 281.484 164.191 279.253 163.163Z" fill="#4273BA"/>
<path d="M157.239 99.0242C157.239 99.0242 152.142 104.979 149.642 106.845C147.142 108.711 145.203 108.398 144.195 107.365C143.187 106.333 143.521 105.134 145.894 102.26C148.268 99.386 152.443 94.7684 153.951 94.0082C155.459 93.2481 159.304 94.6911 157.239 99.0242Z" fill="#6764F5"/>
<path d="M149.325 103.15C148.138 102.597 152.41 95.992 154.28 95.049C156.15 94.1059 157.187 95.7197 156.825 97.1911C156.463 98.6626 151.561 104.195 149.325 103.15Z" fill="#4273BA"/>
<path d="M224.215 223.802C222.813 225.46 219.886 230.106 219.947 234.313C220.008 238.52 222.305 239.854 223.325 240.106C224.345 240.358 237.902 240.427 240.328 240.106C242.755 239.785 243.832 235.521 242.767 232.338C241.702 229.155 240.601 226.415 238.625 223.993C236.65 221.57 224.215 223.802 224.215 223.802Z" fill="#EAEAEA"/>
<path d="M230.906 225.598C230.906 225.598 235.105 225.269 236.251 228.769C237.398 232.269 237.78 237.216 234.914 238.768C233.275 239.685 231.448 240.214 229.573 240.313C229.573 240.313 237.784 240.447 240.08 240.134C242.377 239.821 243.739 236.882 243.007 233.313C242.275 229.745 240.32 225.997 239.223 224.749C238.125 223.501 230.906 225.598 230.906 225.598Z" fill="#C6C6C6"/>
<path d="M222.719 224.834C223.577 225.414 224.595 225.711 225.63 225.684C228.04 225.651 233.877 225.57 236.556 225.432C239.808 225.269 241.348 224.314 241.056 221.465C240.893 219.895 239.759 219.265 235.662 219.026C231.564 218.786 224.711 218.692 222.971 219.335C221.492 219.887 220.028 222.96 222.719 224.834Z" fill="#6764F5"/>
<path d="M234.898 222.27C234.707 219.989 225.012 219.375 223.484 220.379C221.955 221.383 221.622 223.676 224.39 224.152C227.158 224.627 235.044 223.965 234.898 222.27Z" fill="#4273BA"/>
<path d="M187.27 104.357C187.27 104.357 179.649 104.39 178.328 106.044C177.006 107.699 172.523 131.519 172.523 136.36C172.523 141.201 174.763 153.131 176.433 153.79C178.104 154.448 187.9 117.04 189.278 110.036C190.376 104.357 187.27 104.357 187.27 104.357Z" fill="#44ADFD"/>
<path d="M247.352 112.796C247.161 113.975 244.933 165.862 248.754 169.581C248.754 169.581 253.746 160.419 255.961 153.798C258.177 147.176 260.006 123.621 260.136 118.271C260.266 112.922 252.181 110.247 252.181 110.247C252.181 110.247 248.311 109.06 247.397 112.117L247.352 112.796Z" fill="#44ADFD"/>
<path d="M183.9 106.044C183.9 106.044 179.953 107.316 181.352 112.666C182.75 118.015 190.396 122.73 211.671 126.807C232.946 130.884 255.36 124.002 258.034 119.547C260.709 115.092 257.522 110.389 257.522 110.389L183.9 106.044Z" fill="#C6C6C6"/>
<path d="M175.722 90.3785C175.722 90.3785 175.759 116.576 215.049 119.93C254.34 123.283 265.026 103.878 267.205 96.5002C269.384 89.1225 182.063 73.5624 175.722 90.3785Z" fill="#C6C6C6"/>
<path d="M271.335 86.4275C271.335 86.4275 261.774 54.5837 227.861 52.1936C193.949 49.8035 174.283 65.4327 173.71 73.3794C173.137 81.3261 181.697 103.979 221.484 105.386C261.27 106.792 270.44 90.7484 271.335 86.4275Z" fill="#6764F5"/>
<path d="M173.71 73.3834C173.71 72.798 175.722 56.3681 175.722 56.3681C175.722 56.3681 184.413 34.9668 226.699 38.5357C268.985 42.1046 274.595 66.3025 274.721 68.0869C274.847 69.8714 271.335 86.4274 271.335 86.4274C271.335 86.4274 266.457 56.2421 227.719 53.3113C188.981 50.3806 173.71 73.3834 173.71 73.3834Z" fill="#F9F9F9"/>
<path d="M173.71 74.4565C173.71 74.4565 183.189 98.9023 222.289 101.581C261.388 104.26 271.335 87.0656 271.335 87.0656C271.335 87.0656 269.778 97.0122 267.189 100.764C262.494 107.573 243.239 114.755 218.931 112.922C186.819 110.503 175.592 92.9677 174.348 89.9963C172.056 84.517 173.71 74.4565 173.71 74.4565Z" fill="#F9F9F9"/>
<path d="M173.71 73.3833C173.71 73.3833 184.136 99.5363 222.289 101.581C260.441 103.626 271.335 86.4273 271.335 86.4273L270.355 91.988C270.355 91.988 259.787 107.329 222.236 104.357C184.685 101.386 173.133 76.8384 173.133 76.8384L173.71 73.3833Z" fill="#44ADFD"/>
<path d="M174.275 68.3634C174.275 68.3634 191.615 47.9052 228.483 50.3807C265.351 52.8561 272.233 82.1106 272.233 82.1106L271.335 86.4274C271.335 86.4274 266.05 56.7543 227.719 53.3114C189.656 49.8969 173.71 73.3834 173.71 73.3834L174.275 68.3634Z" fill="#44ADFD"/>
<path opacity="0.5" d="M193.591 58.2908C189.632 60.6891 186.945 87.2201 195.993 95.0977C195.993 95.0977 202.371 99.5324 217.654 101.195C217.654 101.195 214.484 91.0695 221.484 76.8345C228.483 62.5995 242.125 57.6852 247.466 58.2908C247.466 58.2908 237.336 52.8155 220.459 52.9619C203.582 53.1082 193.591 58.2908 193.591 58.2908Z" fill="#8583F7"/>
<path d="M184.388 87.346C184.388 87.346 193.965 99.0242 220.711 101.573C247.458 104.122 264.384 96.2277 271.335 87.0574C271.335 87.0574 270.721 73.8549 254.38 61.8556C238.04 49.8562 207.326 50.4741 189.502 60.2825C189.502 60.2825 208.257 51.6204 227.861 54.9535C247.466 58.2867 260.071 76.4605 261.368 82.8463C261.368 82.8463 252.832 99.1665 228.886 99.8047C204.94 100.443 193.989 95.0488 184.388 87.346Z" fill="#9774F3"/>
<path d="M175.722 56.3682C175.722 56.3682 169.954 60.685 169.125 62.2825C168.295 63.8799 167.787 78.2775 167.852 80.44C167.917 82.6025 173.949 88.907 173.949 88.907C173.949 88.907 173.543 85.8869 174.181 73.3835C174.819 60.8801 175.722 56.3682 175.722 56.3682Z" fill="#EAEAEA"/>
<path d="M274.721 68.0869C274.721 68.0869 271.936 82.6999 270.717 89.9109C269.497 97.1219 267.465 100.366 267.465 100.366C267.465 100.366 275.09 95.8943 275.761 94.7643C276.432 93.6343 279.013 78.8505 279.013 76.0661C279.013 73.2817 274.721 68.0869 274.721 68.0869Z" fill="#EAEAEA"/>
<path d="M173.71 59.5103C173.202 59.8273 170.21 61.7378 169.954 63.3921C169.698 65.0465 168.734 78.9319 168.934 80.2083C169.133 81.4846 170.401 82.5618 170.401 82.5618L173.71 59.5103Z" fill="white"/>
<path d="M275.294 69.9976C275.294 69.9976 271.855 88.5941 270.583 95.5368C270.583 95.5368 271.969 95.2807 273.217 92.48C274.464 89.6794 277.903 77.6394 277.968 75.855C278.033 74.0705 275.294 69.9976 275.294 69.9976Z" fill="white"/>
<path d="M175.97 92.7197C175.97 92.7197 189.237 110.479 216.618 112.719C243.998 114.958 258.278 108.02 263.363 104.357C263.363 104.357 254.575 123.629 217.634 120.312C217.634 120.312 222.207 121.068 225.463 119.031C228.719 116.995 213.52 118.511 198.786 113.215C184.051 107.918 176.953 100.414 175.97 92.7197Z" fill="#44ADFD"/>
<path d="M181.559 108.194C181.559 108.194 178.677 111.747 183.648 117.047C188.619 122.348 203.993 127.665 223.768 128.527C243.543 129.388 255.327 123.08 258.034 119.547C260.741 116.015 257.868 110.979 257.868 110.979C257.868 110.979 246.454 122.807 215.049 119.921C215.049 119.921 221.382 122.596 233.341 122.116C245.299 121.637 249.962 118.787 250.344 119.677C250.726 120.568 244.336 127.197 218.687 125.563C193.196 123.937 186.892 117.348 183.547 114.483C180.201 111.617 181.559 108.194 181.559 108.194Z" fill="#44ADFD"/>
<path d="M249.755 126.043C249.181 127.954 248.799 155.371 248.799 157.854C248.799 160.338 251.572 155.562 253.767 144.481C255.962 133.4 257.112 123.844 256.348 123.56C255.583 123.275 249.755 126.043 249.755 126.043Z" fill="#C6C6C6"/>
<path d="M180.73 106.707C180.014 106.459 178.774 107.113 178.104 109.516C177.433 111.918 173.998 128.067 173.71 134.888C173.421 141.709 175.336 147.022 175.722 147.083C176.108 147.144 182.225 120.93 181.64 118.515C181.055 116.101 179.913 114.145 179.539 110.751C179.165 107.357 180.73 106.707 180.73 106.707Z" fill="#C6C6C6"/>
<path d="M182.323 106.044C182.323 106.044 190.099 117.499 216.63 120.052C243.161 122.604 257.868 110.979 257.868 110.979L258.376 112.064C258.376 112.064 247.982 124.214 216.63 121.36C185.278 118.507 180.73 106.727 180.73 106.727C180.73 106.727 180.335 105.247 182.323 106.044Z" fill="#9774F3"/>
<path d="M216.508 200.356H243.259L242.629 203.254H218.037L216.508 200.356Z" fill="#9774F3"/>
<path d="M207.927 192.3C207.927 192.3 206.619 202.482 201.375 209.161L205.68 208.799C205.68 208.799 210.655 199.747 211.224 193.649L207.927 192.3Z" fill="#9774F3"/>
<path d="M176.413 153.79C176.413 153.79 199.314 158.802 247.186 163.009L247.503 165.586C247.503 165.586 209.96 164.257 175.722 156.42L175.97 153.375L176.413 153.79Z" fill="#9774F3"/>
<path d="M176.413 163.724C176.413 163.724 200.278 168.707 248.145 172.919L247.767 175.524C247.767 175.524 209.964 174.195 175.722 166.362L175.97 163.313L176.413 163.724Z" fill="#9774F3"/>
<path d="M200.907 124.397C200.907 124.397 195.745 133.047 195.237 151.391C194.729 169.736 196.428 175.723 196.428 175.723C196.428 175.723 205.427 181.821 208.622 186.499C207.78 175.615 207.78 164.682 208.622 153.798C210.021 135.787 213.594 127.145 213.594 127.145L200.907 124.397Z" fill="#F9F9F9"/>
<path d="M225.861 38.4668C225.861 38.4668 240.397 38.7189 254.213 45.4095C254.213 45.4095 253.494 33.0037 244.588 26.374C245.889 27.4321 246.922 28.7817 247.604 30.3134C248.286 31.8451 248.598 33.5159 248.515 35.1906C248.336 41.113 234.576 38.8002 225.861 38.4668Z" fill="#C6C6C6"/>
<path d="M242.287 21.7075C242.287 21.7075 254.075 23.9432 263.168 35.5523C272.261 47.1614 271.936 60.9858 271.936 60.9858C271.936 60.9858 264.42 43.3689 231.215 38.9017C231.215 38.9017 246.279 40.7471 254.096 44.3323C261.912 47.9174 264.311 45.6249 259.38 35.8937C254.449 26.1626 242.287 21.7075 242.287 21.7075Z" fill="#939292"/>
<mask id="mask0_288_13237" style="mask-type:luminance" maskUnits="userSpaceOnUse" x="132" y="76" width="23" height="28">
<path d="M143.659 85.3464C143.659 85.3464 138.427 83.5619 134.606 87.1918C130.785 90.8217 132.123 98.2603 136.07 101.012C140.016 103.764 146.963 103.288 146.963 103.288L154.54 96.5002C154.54 96.5002 151.101 78.2086 148.553 76.8469C146.004 75.4851 143.659 85.3464 143.659 85.3464Z" fill="white"/>
</mask>
<g mask="url(#mask0_288_13237)">
<path d="M136.984 85.3464C136.984 85.3464 142.215 83.5619 146.036 87.1918C149.857 90.8217 148.52 98.2603 144.573 101.012C140.626 103.764 133.683 103.288 133.683 103.288L126.09 96.5002C126.09 96.5002 129.529 78.2086 132.078 76.8469C134.626 75.4851 136.984 85.3464 136.984 85.3464Z" fill="#EAEAEA"/>
</g>
</svg>
