<svg width="102" height="82" viewBox="0 0 102 82" fill="none" xmlns="http://www.w3.org/2000/svg">
<path d="M51.8195 81.9078C74.4358 81.9078 92.77 63.5721 92.77 40.9539C92.77 18.3357 74.4358 0 51.8195 0C29.2032 0 10.8691 18.3357 10.8691 40.9539C10.8691 63.5721 29.2032 81.9078 51.8195 81.9078Z" fill="url(#paint0_linear_907_4116)"/>
<path d="M91.7738 50.0155C91.3574 51.6941 90.6885 53.9027 90.1585 55.3919C92.2168 56.3459 94.1086 57.6242 95.7616 59.1781C94.9251 59.2907 94.0815 59.3413 93.2377 59.3295C84.6311 59.3295 67.4181 55.5433 49.4226 49.8262C25.5969 42.2538 9.96124 34.2019 6.22586 30.5419C7.06288 30.4356 7.90604 30.385 8.74977 30.3904C9.90027 30.3825 11.0504 30.4372 12.195 30.5545C12.6997 28.775 13.2297 27.1595 13.9743 25.216C12.24 25.0152 10.4956 24.9141 8.74977 24.9131C6.71802 24.9131 1.34211 24.9131 0.168488 28.5857C-2.8602 38.0385 35.7935 51.227 47.7189 55.089C66.5094 61.109 83.937 64.8447 93.1493 64.8447C95.1811 64.8447 100.557 64.8447 101.731 61.1847C102.892 57.8024 100.431 54.7104 91.7738 50.0155Z" fill="url(#paint1_linear_907_4116)"/>
<defs>
<linearGradient id="paint0_linear_907_4116" x1="81.5133" y1="11.2702" x2="21.8305" y2="70.948" gradientUnits="userSpaceOnUse">
<stop stop-color="#9C6AD8"/>
<stop offset="1" stop-color="#6541DD"/>
</linearGradient>
<linearGradient id="paint1_linear_907_4116" x1="79.7736" y1="81.9861" x2="20.5059" y2="11.7199" gradientUnits="userSpaceOnUse">
<stop stop-color="#BE99D4"/>
<stop offset="1" stop-color="#C084E0"/>
</linearGradient>
</defs>
</svg>
