<svg width="152" height="241" viewBox="0 0 152 241" fill="none" xmlns="http://www.w3.org/2000/svg">
<path d="M180.75 180.75C214.025 147.475 214.025 93.5251 180.75 60.25C147.475 26.9748 93.5252 26.9748 60.25 60.25C26.9748 93.5252 26.9748 147.475 60.25 180.75C93.5252 214.025 147.475 214.025 180.75 180.75Z" fill="url(#paint0_linear_466_26952)"/>
<path d="M142.732 114.032C146.707 124.675 142.189 136.193 132.594 139.766C122.999 143.339 112.051 137.594 108.076 126.961C104.101 116.329 108.647 104.8 118.22 101.227C127.794 97.654 138.763 103.388 142.732 114.032Z" fill="url(#paint1_linear_466_26952)"/>
<path d="M157.714 193.319C153.137 195.719 148.516 195.931 147.397 193.792C146.278 191.652 149.08 187.976 153.658 185.581C158.236 183.186 162.857 182.969 163.976 185.108C165.094 187.248 162.314 190.924 157.714 193.319Z" fill="url(#paint2_linear_466_26952)"/>
<path d="M76.5539 137.284C71.9055 150.453 61.9356 158.935 54.2897 156.236C46.6439 153.537 44.222 140.694 48.8486 127.504C53.4752 114.314 63.4615 105.854 71.1127 108.553C78.764 111.251 81.2022 124.116 76.5539 137.284Z" fill="url(#paint3_linear_466_26952)"/>
<path d="M109.483 176.165C102.966 170.783 95.1903 169.48 92.0625 173.254C91.4208 174.08 91.0187 175.066 90.9004 176.105C94.2237 174.834 97.862 174.416 101.386 175.692C111.649 179.401 115.57 186.466 115.364 192.923C115.429 192.852 115.516 192.814 115.581 192.738C118.703 188.964 115.977 181.546 109.483 176.165Z" fill="url(#paint4_linear_466_26952)"/>
<path d="M139.355 70.9173C131.288 68.4237 126.138 61.9582 127.838 56.4182C129.537 50.8783 137.465 48.4606 145.526 50.9601C153.588 53.4596 158.743 59.9192 157.043 65.4537C155.342 70.9883 147.417 73.4222 139.355 70.9173Z" fill="url(#paint5_linear_466_26952)"/>
<path d="M105.318 66.1095C103.406 61.1354 94.9244 59.7778 86.3717 63.0685C79.0408 65.8868 74.0721 71.2139 73.9961 75.7971C74.083 75.6776 74.2025 75.5853 74.2948 75.4713C76.6285 72.183 79.5614 69.3643 82.9398 67.163C87.2514 64.4207 96.396 61.4829 100.702 65.8488C103.341 68.5205 101.826 74.1626 96.6675 79.4842C103.195 75.922 106.963 70.3831 105.318 66.1095Z" fill="url(#paint6_linear_466_26952)"/>
<path d="M155.048 92.5929C155.048 92.5929 155.396 96.1063 156.818 97.529C158.051 98.7563 161.385 98.93 161.385 98.93C161.385 98.93 158.366 99.1092 156.818 100.331C155.271 101.553 155.048 105.267 155.048 105.267C155.048 105.267 154.874 101.83 153.462 100.331C152.376 99.1907 148.711 98.93 148.711 98.93C148.711 98.93 152.366 98.6477 153.462 97.4964C154.896 95.9868 155.048 92.5929 155.048 92.5929Z" fill="url(#paint7_linear_466_26952)"/>
<defs>
<linearGradient id="paint0_linear_466_26952" x1="186.281" y1="59.0838" x2="52.6151" y2="183.882" gradientUnits="userSpaceOnUse">
<stop stop-color="#D7C8FA"/>
<stop offset="1" stop-color="#C3AAFA"/>
</linearGradient>
<linearGradient id="paint1_linear_466_26952" x1="106.643" y1="120.499" x2="144.171" y2="120.499" gradientUnits="userSpaceOnUse">
<stop stop-color="#BE99D4"/>
<stop offset="1" stop-color="#C1ACF8"/>
</linearGradient>
<linearGradient id="paint2_linear_466_26952" x1="147.174" y1="189.453" x2="164.247" y2="189.453" gradientUnits="userSpaceOnUse">
<stop stop-color="#BE99D4"/>
<stop offset="1" stop-color="#C1ACF8"/>
</linearGradient>
<linearGradient id="paint3_linear_466_26952" x1="46.4919" y1="132.397" x2="78.9106" y2="132.397" gradientUnits="userSpaceOnUse">
<stop stop-color="#BE99D4"/>
<stop offset="1" stop-color="#C1ACF8"/>
</linearGradient>
<linearGradient id="paint4_linear_466_26952" x1="90.9004" y1="182.008" x2="116.873" y2="182.008" gradientUnits="userSpaceOnUse">
<stop stop-color="#B999D4"/>
<stop offset="1" stop-color="#9774F3"/>
</linearGradient>
<linearGradient id="paint5_linear_466_26952" x1="141.232" y1="49.673" x2="143.651" y2="72.2259" gradientUnits="userSpaceOnUse">
<stop stop-color="#BE99D4"/>
<stop offset="1" stop-color="#C1ACF8"/>
</linearGradient>
<linearGradient id="paint6_linear_466_26952" x1="73.9961" y1="70.3777" x2="105.703" y2="70.3777" gradientUnits="userSpaceOnUse">
<stop stop-color="#B999D4"/>
<stop offset="1" stop-color="#9774F3"/>
</linearGradient>
<linearGradient id="paint7_linear_466_26952" x1="148.711" y1="98.93" x2="161.385" y2="98.93" gradientUnits="userSpaceOnUse">
<stop stop-color="#955EFF"/>
<stop offset="1" stop-color="#5642BE"/>
</linearGradient>
</defs>
</svg>
