<svg width="36" height="36" viewBox="0 0 36 36" fill="none" xmlns="http://www.w3.org/2000/svg">
<path d="M32.8078 1.3584H3.19496C2.18066 1.3584 1.3584 2.18066 1.3584 3.19496V32.8078C1.3584 33.8221 2.18066 34.6443 3.19496 34.6443H32.8078C33.8221 34.6443 34.6443 33.8221 34.6443 32.8078V3.19496C34.6443 2.18066 33.8221 1.3584 32.8078 1.3584Z" fill="#9794A6"/>
<path d="M24.3224 34.6415V21.7518H28.6481L29.2949 16.7287H24.3224V13.5224C24.3224 12.0684 24.7274 11.0755 26.8115 11.0755H29.4721V6.57554C28.1838 6.44127 26.889 6.37742 25.5937 6.38429C21.7631 6.38429 19.1249 8.71866 19.1249 13.0246V16.7287H14.7993V21.7518H19.1249V34.6415H24.3224Z" fill="white"/>
</svg>
