<svg width="120" height="120" viewBox="0 0 120 120" fill="none" xmlns="http://www.w3.org/2000/svg">
<path d="M101.25 33.75H84.8063C84.9891 33.5953 85.1766 33.4453 85.3547 33.2812C86.7783 32.0164 87.9257 30.4715 88.725 28.743C89.5243 27.0146 89.9583 25.1398 90 23.2359C90.0616 21.1531 89.6968 19.0797 88.9281 17.143C88.1594 15.2063 87.0029 13.4472 85.5298 11.9735C84.0566 10.4999 82.2978 9.34296 80.3613 8.57367C78.4248 7.80438 76.3515 7.439 74.2688 7.49995C72.3641 7.54098 70.4884 7.97473 68.7591 8.77405C67.0298 9.57337 65.4841 10.7211 64.2188 12.1453C62.4679 14.1745 61.0445 16.4645 60 18.9328C58.9555 16.4645 57.5321 14.1745 55.7812 12.1453C54.5159 10.7211 52.9702 9.57337 51.2409 8.77405C49.5116 7.97473 47.6359 7.54098 45.7312 7.49995C43.6485 7.439 41.5752 7.80438 39.6387 8.57367C37.7022 9.34296 35.9434 10.4999 34.4702 11.9735C32.9971 13.4472 31.8406 15.2063 31.0719 17.143C30.3032 19.0797 29.9384 21.1531 30 23.2359C30.0417 25.1398 30.4757 27.0146 31.275 28.743C32.0743 30.4715 33.2217 32.0164 34.6453 33.2812C34.8234 33.4359 35.0109 33.5859 35.1938 33.75H18.75C16.7609 33.75 14.8532 34.5401 13.4467 35.9467C12.0402 37.3532 11.25 39.2608 11.25 41.25V56.25C11.25 58.2391 12.0402 60.1467 13.4467 61.5533C14.8532 62.9598 16.7609 63.75 18.75 63.75V93.75C18.75 95.7391 19.5402 97.6467 20.9467 99.0533C22.3532 100.46 24.2609 101.25 26.25 101.25H93.75C95.7391 101.25 97.6468 100.46 99.0533 99.0533C100.46 97.6467 101.25 95.7391 101.25 93.75V63.75C103.239 63.75 105.147 62.9598 106.553 61.5533C107.96 60.1467 108.75 58.2391 108.75 56.25V41.25C108.75 39.2608 107.96 37.3532 106.553 35.9467C105.147 34.5401 103.239 33.75 101.25 33.75ZM69.8438 17.114C70.4375 16.4583 71.1604 15.9325 71.9671 15.5695C72.7737 15.2065 73.6467 15.0142 74.5312 15.0046H74.7609C75.7977 15.0111 76.8227 15.2245 77.7759 15.6322C78.7291 16.0399 79.5914 16.6337 80.3121 17.3789C81.0329 18.1241 81.5977 19.0057 81.9734 19.972C82.349 20.9383 82.5281 21.9698 82.5 23.0062C82.4905 23.8907 82.2981 24.7637 81.9352 25.5704C81.5722 26.377 81.0463 27.0999 80.3906 27.6937C75.9422 31.6312 68.5594 33.0187 63.9844 33.5062C64.5469 28.5421 66.0938 21.3281 69.8438 17.114ZM39.8016 17.2828C41.2544 15.8301 43.222 15.0097 45.2766 15H45.5063C46.3908 15.0095 47.2638 15.2018 48.0704 15.5648C48.8771 15.9278 49.6 16.4536 50.1938 17.1093C54.1266 21.5531 55.5141 28.9218 56.0016 33.4781C51.4453 33.0093 44.0766 31.6031 39.6328 27.6703C38.9771 27.0765 38.4513 26.3536 38.0883 25.5469C37.7253 24.7403 37.533 23.8673 37.5234 22.9828C37.4944 21.9292 37.6796 20.8807 38.068 19.9008C38.4564 18.921 39.0398 18.0303 39.7828 17.2828H39.8016ZM18.75 41.25H56.25V56.25H18.75V41.25ZM26.25 63.75H56.25V93.75H26.25V63.75ZM93.75 93.75H63.75V63.75H93.75V93.75ZM101.25 56.25H63.75V41.25H101.25V56.25Z" fill="#281E59"/>
</svg>
