<svg width="24" height="24" viewBox="0 0 24 24" fill="none" xmlns="http://www.w3.org/2000/svg">
<path d="M15.6001 10.8001C15.6001 11.7548 15.2208 12.6705 14.5457 13.3456C13.8706 14.0208 12.9549 14.4001 12.0001 14.4001C11.0454 14.4001 10.1297 14.0208 9.45455 13.3456C8.77942 12.6705 8.40013 11.7548 8.40013 10.8001C8.40013 9.84528 8.77942 8.92961 9.45455 8.25448C10.1297 7.57934 11.0454 7.20006 12.0001 7.20006C12.9549 7.20006 13.8706 7.57934 14.5457 8.25448C15.2208 8.92961 15.6001 9.84528 15.6001 10.8001ZM14.4001 10.8001C14.4001 10.1635 14.1473 9.55309 13.6972 9.103C13.2471 8.65292 12.6367 8.40006 12.0001 8.40006C11.3636 8.40006 10.7532 8.65292 10.3031 9.103C9.85299 9.55309 9.60013 10.1635 9.60013 10.8001C9.60013 11.4366 9.85299 12.047 10.3031 12.4971C10.7532 12.9472 11.3636 13.2001 12.0001 13.2001C12.6367 13.2001 13.2471 12.9472 13.6972 12.4971C14.1473 12.047 14.4001 11.4366 14.4001 10.8001ZM17.9401 16.7461C19.5156 15.1698 20.4007 13.0323 20.4007 10.8037C20.4007 8.575 19.5156 6.43756 17.9401 4.86126C17.1603 4.08087 16.2343 3.4618 15.2151 3.03943C14.1958 2.61706 13.1034 2.39966 12.0001 2.39966C10.8969 2.39966 9.80441 2.61706 8.7852 3.03943C7.76599 3.4618 6.83999 4.08087 6.06013 4.86126C4.48464 6.43756 3.59961 8.575 3.59961 10.8037C3.59961 13.0323 4.48464 15.1698 6.06013 16.7461L7.88533 18.5449L10.3369 20.9269L10.4965 21.0685C11.4265 21.8221 12.7885 21.7741 13.6645 20.9269L16.5865 18.0829L17.9401 16.7461ZM6.90613 5.70726C7.57498 5.03811 8.36911 4.5073 9.24315 4.14515C10.1172 3.78299 11.054 3.59659 12.0001 3.59659C12.9462 3.59659 13.8831 3.78299 14.7571 4.14515C15.6312 4.5073 16.4253 5.03811 17.0941 5.70726C18.4078 7.0218 19.1631 8.79284 19.2024 10.6508C19.2418 12.5088 18.5622 14.3103 17.3053 15.6793L17.0941 15.9001L15.5089 17.4649L12.8329 20.0665L12.7201 20.1625C12.5127 20.3188 12.2599 20.4034 12.0001 20.4034C11.7403 20.4034 11.4876 20.3188 11.2801 20.1625L11.1685 20.0665L7.59253 16.5805L6.90613 15.9001L6.69493 15.6805C5.43811 14.3115 4.75847 12.51 4.79782 10.652C4.83717 8.79404 5.59247 7.0218 6.90613 5.70726Z" fill="#281E59"/>
</svg>
