<svg width="197" height="136" viewBox="0 0 197 136" fill="none" xmlns="http://www.w3.org/2000/svg">
<g clip-path="url(#clip0_466_26970)">
<mask id="mask0_466_26970" style="mask-type:luminance" maskUnits="userSpaceOnUse" x="0" y="27" width="62" height="87">
<path d="M28.5114 27.9566C21.1927 29.4984 17.977 38.3675 23.0206 44.2328C23.6664 44.9807 23.6826 44.7201 23.3049 45.7391C21.6356 50.2225 19.9603 54.7059 18.2865 59.1893C12.5142 74.6494 6.74337 90.1095 0.974009 105.571C0.689614 106.331 0.375648 107.085 0.157908 107.865C-0.671577 110.841 1.87169 113.939 5.33035 113.234C6.21464 113.055 6.9182 112.563 7.60697 112.015C15.0397 106.112 22.477 100.215 29.9142 94.3159C30.1867 94.1011 30.4652 93.8938 30.7214 93.6997C31.031 93.7605 31.2132 93.9574 31.4147 94.1189C37.3958 98.8615 43.377 103.606 49.3582 108.351C51.0172 109.668 52.682 110.979 54.3365 112.303C55.3127 113.083 56.4073 113.437 57.656 113.334C59.6468 113.168 61.3635 111.472 61.5383 109.483C61.6079 108.689 61.4938 107.932 61.2109 107.178C59.5134 102.674 57.8353 98.1624 56.1511 93.6509C50.1699 77.619 44.1917 61.5858 38.1927 45.5599C37.9335 44.8652 37.8387 44.2965 38.4756 43.7929C40.2753 41.4171 40.9464 38.7511 40.3746 35.8318C39.4577 31.1455 35.3488 27.7374 30.6015 27.7374C29.9156 27.7374 29.2165 27.8085 28.5114 27.9566ZM14.3124 94.8757C16.3032 89.5214 18.3028 84.1716 20.2995 78.8202C23.6367 69.8816 26.9725 60.9459 30.3082 52.0087C30.4415 51.6562 30.5762 51.3067 30.7303 50.9053C31.0295 51.1275 31.0636 51.4548 31.1658 51.7258C32.3196 54.7933 33.4588 57.8651 34.6038 60.9355C38.7808 72.127 42.9593 83.3184 47.129 94.5143C47.2519 94.8491 47.5052 95.1675 47.3763 95.566C45.6892 94.2418 44.0021 92.9206 42.3209 91.5906C39.4532 89.3215 36.5886 87.0509 33.7283 84.7715C32.2812 83.6191 30.7081 83.3895 28.9914 84.0575C28.5248 84.2397 28.1382 84.5463 27.7516 84.8529C25.4097 86.7117 23.0694 88.5691 20.7262 90.4264C18.7502 91.9964 16.7713 93.5649 14.7909 95.1305C14.6116 95.2727 14.4562 95.4564 14.2058 95.5082C14.0503 95.2638 14.2413 95.0698 14.3124 94.8757Z" fill="white"/>
</mask>
<g mask="url(#mask0_466_26970)">
<path d="M28.5114 27.9566C21.1927 29.4984 17.977 38.3675 23.0206 44.2328C23.6664 44.9807 23.6826 44.7201 23.3049 45.7391C21.6356 50.2225 19.9603 54.7059 18.2865 59.1893C12.5142 74.6494 6.74337 90.1095 0.974009 105.571C0.689614 106.331 0.375648 107.085 0.157908 107.865C-0.671577 110.841 1.87169 113.939 5.33035 113.234C6.21464 113.055 6.9182 112.563 7.60697 112.015C15.0397 106.112 22.477 100.215 29.9142 94.3159C30.1867 94.1011 30.4652 93.8938 30.7214 93.6997C31.031 93.7605 31.2132 93.9574 31.4147 94.1189C37.3958 98.8615 43.377 103.606 49.3582 108.351C51.0172 109.668 52.682 110.979 54.3365 112.303C55.3127 113.083 56.4073 113.437 57.656 113.334C59.6468 113.168 61.3635 111.472 61.5383 109.483C61.6079 108.689 61.4938 107.932 61.2109 107.178C59.5134 102.674 57.8353 98.1624 56.1511 93.6509C50.1699 77.619 44.1917 61.5858 38.1927 45.5599C37.9335 44.8652 37.8387 44.2965 38.4756 43.7929C40.2753 41.4171 40.9464 38.7511 40.3746 35.8318C39.4577 31.1455 35.3488 27.7374 30.6015 27.7374C29.9156 27.7374 29.2165 27.8085 28.5114 27.9566ZM14.3124 94.8757C16.3032 89.5214 18.3028 84.1716 20.2995 78.8202C23.6367 69.8816 26.9725 60.9459 30.3082 52.0087C30.4415 51.6562 30.5762 51.3067 30.7303 50.9053C31.0295 51.1275 31.0636 51.4548 31.1658 51.7258C32.3196 54.7933 33.4588 57.8651 34.6038 60.9355C38.7808 72.127 42.9593 83.3184 47.129 94.5143C47.2519 94.8491 47.5052 95.1675 47.3763 95.566C45.6892 94.2418 44.0021 92.9206 42.3209 91.5906C39.4532 89.3215 36.5886 87.0509 33.7283 84.7715C32.2812 83.6191 30.7081 83.3895 28.9914 84.0575C28.5248 84.2397 28.1382 84.5463 27.7516 84.8529C25.4097 86.7117 23.0694 88.5691 20.7262 90.4264C18.7502 91.9964 16.7713 93.5649 14.7909 95.1305C14.6116 95.2727 14.4562 95.4564 14.2058 95.5082C14.0503 95.2638 14.2413 95.0698 14.3124 94.8757Z" fill="url(#paint0_linear_466_26970)"/>
</g>
<mask id="mask1_466_26970" style="mask-type:luminance" maskUnits="userSpaceOnUse" x="112" y="50" width="25" height="64">
<path d="M112.906 51.9214C112.903 61.9739 112.904 72.0263 112.904 82.0788C112.904 92.1016 112.904 102.127 112.904 112.152C112.904 112.432 112.91 112.71 112.925 112.987C112.932 113.109 113.014 113.186 113.14 113.197C113.279 113.209 113.417 113.218 113.556 113.218C115.645 113.218 117.733 113.221 119.822 113.218C120.464 113.217 120.464 113.206 120.475 112.571C120.478 112.377 120.475 112.181 120.475 111.986C120.475 103.687 120.475 95.3897 120.475 87.0909C120.475 86.8406 120.469 86.5903 120.479 86.34C120.491 86.0023 120.531 85.9623 120.857 85.9046C121.38 85.8127 121.441 85.8497 121.575 86.3237C121.599 86.4037 121.611 86.4866 121.63 86.5681C123.528 94.1782 125.425 101.79 127.321 109.4C127.604 110.533 127.882 111.667 128.171 112.8C128.262 113.156 128.325 113.197 128.688 113.217C128.799 113.221 128.912 113.218 129.023 113.218C131.279 113.218 133.533 113.221 135.789 113.218C136.598 113.218 136.602 113.209 136.376 112.436C135.272 108.673 134.167 104.91 133.061 101.147C131.477 95.7556 129.891 90.3657 128.308 84.9729C128.253 84.7878 128.196 84.6011 128.155 84.4116C128.131 84.296 128.176 84.1894 128.279 84.1272C128.374 84.068 128.476 84.0205 128.576 83.9717C131.189 82.6786 132.767 80.5621 133.521 77.7835C133.859 76.5393 134.031 75.2745 134.035 73.9888C134.043 70.6193 134.049 67.2497 134.046 63.8816C134.046 62.3204 133.964 60.7638 133.652 59.2293C133.37 57.8311 132.954 56.4788 132.248 55.2302C131.143 53.2722 129.519 51.9569 127.36 51.3141C126.201 50.9705 125.016 50.8357 123.812 50.8372C120.527 50.8372 117.241 50.8328 113.955 50.8387C113.836 50.8402 113.729 50.8387 113.636 50.8372C113.549 50.8357 113.473 50.8342 113.405 50.8342C112.82 50.8342 112.906 50.9276 112.906 51.9214ZM120.479 77.2014C120.469 76.9792 120.473 76.7571 120.473 76.5334C120.473 73.8896 120.473 71.2443 120.473 68.6005C120.473 65.9833 120.473 63.3661 120.473 60.7504C120.473 60.5549 120.469 60.3609 120.476 60.1654C120.49 59.7773 120.534 59.721 120.906 59.7151C121.335 59.7107 121.766 59.7107 122.198 59.7107C122.463 59.7122 122.728 59.7122 122.993 59.7107C123.329 59.7092 123.658 59.7492 123.987 59.8129C124.97 60.004 125.637 60.5727 126.028 61.4806C126.286 62.0746 126.397 62.704 126.447 63.3439C126.466 63.5927 126.463 63.8445 126.463 64.0948C126.465 67.1297 126.463 70.163 126.465 73.1979C126.466 73.7563 126.437 74.3088 126.302 74.8538C126.175 75.3737 125.987 75.8625 125.661 76.292C125.114 77.0177 124.403 77.4828 123.485 77.5302C122.597 77.5746 121.706 77.5658 120.814 77.5687C120.813 77.5687 120.811 77.5687 120.808 77.5687C120.555 77.5687 120.491 77.4828 120.479 77.2014Z" fill="white"/>
</mask>
<g mask="url(#mask1_466_26970)">
<path d="M112.906 51.9214C112.903 61.9739 112.904 72.0263 112.904 82.0788C112.904 92.1016 112.904 102.127 112.904 112.152C112.904 112.432 112.91 112.71 112.925 112.987C112.932 113.109 113.014 113.186 113.14 113.197C113.279 113.209 113.417 113.218 113.556 113.218C115.645 113.218 117.733 113.221 119.822 113.218C120.464 113.217 120.464 113.206 120.475 112.571C120.478 112.377 120.475 112.181 120.475 111.986C120.475 103.687 120.475 95.3897 120.475 87.0909C120.475 86.8406 120.469 86.5903 120.479 86.34C120.491 86.0023 120.531 85.9623 120.857 85.9046C121.38 85.8127 121.441 85.8497 121.575 86.3237C121.599 86.4037 121.611 86.4866 121.63 86.5681C123.528 94.1782 125.425 101.79 127.321 109.4C127.604 110.533 127.882 111.667 128.171 112.8C128.262 113.156 128.325 113.197 128.688 113.217C128.799 113.221 128.912 113.218 129.023 113.218C131.279 113.218 133.533 113.221 135.789 113.218C136.598 113.218 136.602 113.209 136.376 112.436C135.272 108.673 134.167 104.91 133.061 101.147C131.477 95.7556 129.891 90.3657 128.308 84.9729C128.253 84.7878 128.196 84.6011 128.155 84.4116C128.131 84.296 128.176 84.1894 128.279 84.1272C128.374 84.068 128.476 84.0205 128.576 83.9717C131.189 82.6786 132.767 80.5621 133.521 77.7835C133.859 76.5393 134.031 75.2745 134.035 73.9888C134.043 70.6193 134.049 67.2497 134.046 63.8816C134.046 62.3204 133.964 60.7638 133.652 59.2293C133.37 57.8311 132.954 56.4788 132.248 55.2302C131.143 53.2722 129.519 51.9569 127.36 51.3141C126.201 50.9705 125.016 50.8357 123.812 50.8372C120.527 50.8372 117.241 50.8328 113.955 50.8387C113.836 50.8402 113.729 50.8387 113.636 50.8372C113.549 50.8357 113.473 50.8342 113.405 50.8342C112.82 50.8342 112.906 50.9276 112.906 51.9214ZM120.479 77.2014C120.469 76.9792 120.473 76.7571 120.473 76.5334C120.473 73.8896 120.473 71.2443 120.473 68.6005C120.473 65.9833 120.473 63.3661 120.473 60.7504C120.473 60.5549 120.469 60.3609 120.476 60.1654C120.49 59.7773 120.534 59.721 120.906 59.7151C121.335 59.7107 121.766 59.7107 122.198 59.7107C122.463 59.7122 122.728 59.7122 122.993 59.7107C123.329 59.7092 123.658 59.7492 123.987 59.8129C124.97 60.004 125.637 60.5727 126.028 61.4806C126.286 62.0746 126.397 62.704 126.447 63.3439C126.466 63.5927 126.463 63.8445 126.463 64.0948C126.465 67.1297 126.463 70.163 126.465 73.1979C126.466 73.7563 126.437 74.3088 126.302 74.8538C126.175 75.3737 125.987 75.8625 125.661 76.292C125.114 77.0177 124.403 77.4828 123.485 77.5302C122.597 77.5746 121.706 77.5658 120.814 77.5687C120.813 77.5687 120.811 77.5687 120.808 77.5687C120.555 77.5687 120.491 77.4828 120.479 77.2014Z" fill="url(#paint1_linear_466_26970)"/>
</g>
<mask id="mask2_466_26970" style="mask-type:luminance" maskUnits="userSpaceOnUse" x="138" y="49" width="23" height="66">
<path d="M146.137 50.3395C143.674 51.0046 141.828 52.4783 140.633 54.7474C140.229 55.5131 139.913 56.3144 139.682 57.1483C139.183 58.9583 138.989 60.8053 138.99 62.6819C138.995 75.5737 138.995 88.4684 138.989 101.362C138.989 102.758 139.097 104.143 139.35 105.513C139.598 106.861 139.996 108.163 140.645 109.378C141.788 111.521 143.512 112.962 145.836 113.685C146.906 114.018 148.003 114.169 149.12 114.224C150.578 114.293 152.015 114.19 153.425 113.82C156.113 113.117 158.085 111.524 159.304 109.018C159.831 107.933 160.173 106.792 160.406 105.613C160.698 104.13 160.781 102.632 160.779 101.126C160.778 94.7766 160.779 88.4269 160.779 82.0788C160.779 75.7573 160.779 69.4358 160.779 63.1143C160.779 61.888 160.749 60.666 160.57 59.4485C160.36 58.0089 160.018 56.6092 159.406 55.2836C158.212 52.6975 156.249 51.0194 153.485 50.304C152.28 49.993 151.071 49.8375 149.865 49.8375C148.62 49.8375 147.375 50.0033 146.137 50.3395ZM149.354 105.3C148.272 105.19 147.487 104.641 147.029 103.644C146.697 102.92 146.623 102.144 146.571 101.366C146.553 101.088 146.564 100.808 146.564 100.529C146.564 88.1974 146.564 75.8625 146.561 63.5276C146.561 62.8862 146.571 62.2464 146.688 61.6154C146.728 61.3962 146.774 61.177 146.835 60.9637C147.21 59.6411 148.076 58.899 149.451 58.7509C150.046 58.6857 150.619 58.7731 151.176 58.9627C151.901 59.2071 152.401 59.7107 152.723 60.3979C153.02 61.0393 153.151 61.7206 153.186 62.4182C153.211 62.8907 153.205 63.3646 153.205 63.8386C153.207 69.9068 153.207 75.978 153.207 82.0477C153.206 88.2285 153.206 94.4092 153.207 100.59C153.207 101.288 153.216 101.984 153.049 102.667C152.977 102.963 152.902 103.262 152.786 103.542C152.339 104.622 151.508 105.198 150.356 105.303C150.193 105.318 150.027 105.327 149.861 105.327C149.692 105.327 149.522 105.318 149.354 105.3Z" fill="white"/>
</mask>
<g mask="url(#mask2_466_26970)">
<path d="M146.137 50.3395C143.674 51.0046 141.828 52.4783 140.633 54.7474C140.229 55.5131 139.913 56.3144 139.682 57.1483C139.183 58.9583 138.989 60.8053 138.99 62.6819C138.995 75.5737 138.995 88.4684 138.989 101.362C138.989 102.758 139.097 104.143 139.35 105.513C139.598 106.861 139.996 108.163 140.645 109.378C141.788 111.521 143.512 112.962 145.836 113.685C146.906 114.018 148.003 114.169 149.12 114.224C150.578 114.293 152.015 114.19 153.425 113.82C156.113 113.117 158.085 111.524 159.304 109.018C159.831 107.933 160.173 106.792 160.406 105.613C160.698 104.13 160.781 102.632 160.779 101.126C160.778 94.7766 160.779 88.4269 160.779 82.0788C160.779 75.7573 160.779 69.4358 160.779 63.1143C160.779 61.888 160.749 60.666 160.57 59.4485C160.36 58.0089 160.018 56.6092 159.406 55.2836C158.212 52.6975 156.249 51.0194 153.485 50.304C152.28 49.993 151.071 49.8375 149.865 49.8375C148.62 49.8375 147.375 50.0033 146.137 50.3395ZM149.354 105.3C148.272 105.19 147.487 104.641 147.029 103.644C146.697 102.92 146.623 102.144 146.571 101.366C146.553 101.088 146.564 100.808 146.564 100.529C146.564 88.1974 146.564 75.8625 146.561 63.5276C146.561 62.8862 146.571 62.2464 146.688 61.6154C146.728 61.3962 146.774 61.177 146.835 60.9637C147.21 59.6411 148.076 58.899 149.451 58.7509C150.046 58.6857 150.619 58.7731 151.176 58.9627C151.901 59.2071 152.401 59.7107 152.723 60.3979C153.02 61.0393 153.151 61.7206 153.186 62.4182C153.211 62.8907 153.205 63.3646 153.205 63.8386C153.207 69.9068 153.207 75.978 153.207 82.0477C153.206 88.2285 153.206 94.4092 153.207 100.59C153.207 101.288 153.216 101.984 153.049 102.667C152.977 102.963 152.902 103.262 152.786 103.542C152.339 104.622 151.508 105.198 150.356 105.303C150.193 105.318 150.027 105.327 149.861 105.327C149.692 105.327 149.522 105.318 149.354 105.3Z" fill="url(#paint2_linear_466_26970)"/>
</g>
<mask id="mask3_466_26970" style="mask-type:luminance" maskUnits="userSpaceOnUse" x="62" y="49" width="23" height="66">
<path d="M70.8864 50.1396C67.6277 50.7854 65.3644 52.6413 64.1009 55.7146C63.3825 57.4594 63.0359 59.2886 62.9648 61.1637C62.8567 64.0297 62.8774 66.9002 62.9425 69.7676C63.0077 72.7492 63.8639 75.5204 65.3792 78.0901C66.6116 80.1756 68.2246 81.9322 70.0628 83.4933C71.4211 84.6516 72.7216 85.8676 73.8874 87.2243C74.7613 88.2389 75.5537 89.3127 76.1684 90.508C76.7253 91.5863 77.1075 92.7193 77.1208 93.9383C77.1445 96.3881 77.1416 98.8394 77.1194 101.289C77.112 102.068 77.0127 102.844 76.6957 103.575C76.3269 104.42 75.7241 104.995 74.8205 105.213C74.1051 105.385 73.3881 105.383 72.6742 105.173C71.938 104.956 71.4078 104.494 71.0479 103.828C70.8494 103.459 70.7205 103.061 70.6449 102.647C70.5412 102.099 70.4909 101.547 70.4924 100.987C70.4998 98.5372 70.4953 96.0859 70.4938 93.6347C70.4938 93.411 70.4879 93.1888 70.476 92.9681C70.4686 92.8423 70.3901 92.7667 70.2642 92.7563C70.1279 92.743 69.9872 92.7356 69.848 92.7356C67.7595 92.7341 65.671 92.7341 63.5824 92.7341C63.4699 92.7341 63.3588 92.7371 63.2477 92.74C63.0566 92.743 62.9292 92.823 62.9233 93.0318C62.9174 93.254 62.9159 93.4762 62.9159 93.6998C62.9144 95.2328 62.9144 96.7643 62.9144 98.2958C62.9159 99.2422 62.9114 100.19 62.9159 101.137C62.9203 102.307 62.9545 103.474 63.1248 104.635C63.3648 106.272 63.7736 107.854 64.5483 109.324C65.6799 111.473 67.4069 112.921 69.7206 113.66C70.7871 114.002 71.8847 114.159 73.003 114.219C74.4872 114.301 75.9536 114.197 77.3919 113.821C79.9885 113.144 81.914 111.617 83.136 109.218C83.5034 108.498 83.7953 107.745 84.0086 106.965C84.4514 105.345 84.6884 103.695 84.6943 102.016C84.7047 98.9253 84.7002 95.8341 84.6987 92.743C84.6987 92.1017 84.6395 91.4648 84.561 90.8279C84.1981 87.9175 83.1212 85.2959 81.4312 82.9157C80.2951 81.3146 78.922 79.9356 77.4334 78.6663C76.0544 77.4918 74.7345 76.2535 73.551 74.8776C72.5853 73.7534 71.7159 72.5655 71.1101 71.2029C70.7679 70.4312 70.5146 69.6329 70.5057 68.7886C70.4864 66.7002 70.485 64.6118 70.5117 62.5234C70.5205 61.8006 70.6493 61.0837 70.9589 60.4143C71.3781 59.5108 72.0654 58.9776 73.0519 58.8117C73.5259 58.7332 73.9896 58.7347 74.4621 58.8058C75.5522 58.9717 76.2928 59.5626 76.7135 60.5698C76.8527 60.906 76.9594 61.2511 77.0053 61.6125C77.0794 62.1916 77.1356 62.7723 77.1327 63.3588C77.1223 65.6694 77.1283 67.9829 77.1283 70.2934C77.1283 70.5171 77.1238 70.7393 77.1327 70.9614C77.1475 71.2977 77.1993 71.3465 77.5237 71.3658C77.5504 71.3673 77.5785 71.3673 77.6067 71.3673C79.8344 71.3673 82.0622 71.3688 84.2914 71.3643C84.6292 71.3628 84.6884 71.2977 84.7032 70.9881C84.7121 70.8207 84.7091 70.6534 84.7091 70.486C84.7091 68.0362 84.7076 65.5849 84.7091 63.1351C84.7106 61.9636 84.678 60.7949 84.5166 59.6337C84.2899 57.9986 83.9063 56.4078 83.1539 54.9252C81.9526 52.5569 80.067 51.0165 77.5044 50.3263C76.2913 50.0004 75.0709 49.8434 73.8444 49.8434C72.8609 49.8434 71.8744 49.9456 70.8864 50.1396Z" fill="white"/>
</mask>
<g mask="url(#mask3_466_26970)">
<path d="M70.8864 50.1396C67.6277 50.7854 65.3644 52.6413 64.1009 55.7146C63.3825 57.4594 63.0359 59.2886 62.9648 61.1637C62.8567 64.0297 62.8774 66.9002 62.9425 69.7676C63.0077 72.7492 63.8639 75.5204 65.3792 78.0901C66.6116 80.1756 68.2246 81.9322 70.0628 83.4933C71.4211 84.6516 72.7216 85.8676 73.8874 87.2243C74.7613 88.2389 75.5537 89.3127 76.1684 90.508C76.7253 91.5863 77.1075 92.7193 77.1208 93.9383C77.1445 96.3881 77.1416 98.8394 77.1194 101.289C77.112 102.068 77.0127 102.844 76.6957 103.575C76.3269 104.42 75.7241 104.995 74.8205 105.213C74.1051 105.385 73.3881 105.383 72.6742 105.173C71.938 104.956 71.4078 104.494 71.0479 103.828C70.8494 103.459 70.7205 103.061 70.6449 102.647C70.5412 102.099 70.4909 101.547 70.4924 100.987C70.4998 98.5372 70.4953 96.0859 70.4938 93.6347C70.4938 93.411 70.4879 93.1888 70.476 92.9681C70.4686 92.8423 70.3901 92.7667 70.2642 92.7563C70.1279 92.743 69.9872 92.7356 69.848 92.7356C67.7595 92.7341 65.671 92.7341 63.5824 92.7341C63.4699 92.7341 63.3588 92.7371 63.2477 92.74C63.0566 92.743 62.9292 92.823 62.9233 93.0318C62.9174 93.254 62.9159 93.4762 62.9159 93.6998C62.9144 95.2328 62.9144 96.7643 62.9144 98.2958C62.9159 99.2422 62.9114 100.19 62.9159 101.137C62.9203 102.307 62.9545 103.474 63.1248 104.635C63.3648 106.272 63.7736 107.854 64.5483 109.324C65.6799 111.473 67.4069 112.921 69.7206 113.66C70.7871 114.002 71.8847 114.159 73.003 114.219C74.4872 114.301 75.9536 114.197 77.3919 113.821C79.9885 113.144 81.914 111.617 83.136 109.218C83.5034 108.498 83.7953 107.745 84.0086 106.965C84.4514 105.345 84.6884 103.695 84.6943 102.016C84.7047 98.9253 84.7002 95.8341 84.6987 92.743C84.6987 92.1017 84.6395 91.4648 84.561 90.8279C84.1981 87.9175 83.1212 85.2959 81.4312 82.9157C80.2951 81.3146 78.922 79.9356 77.4334 78.6663C76.0544 77.4918 74.7345 76.2535 73.551 74.8776C72.5853 73.7534 71.7159 72.5655 71.1101 71.2029C70.7679 70.4312 70.5146 69.6329 70.5057 68.7886C70.4864 66.7002 70.485 64.6118 70.5117 62.5234C70.5205 61.8006 70.6493 61.0837 70.9589 60.4143C71.3781 59.5108 72.0654 58.9776 73.0519 58.8117C73.5259 58.7332 73.9896 58.7347 74.4621 58.8058C75.5522 58.9717 76.2928 59.5626 76.7135 60.5698C76.8527 60.906 76.9594 61.2511 77.0053 61.6125C77.0794 62.1916 77.1356 62.7723 77.1327 63.3588C77.1223 65.6694 77.1283 67.9829 77.1283 70.2934C77.1283 70.5171 77.1238 70.7393 77.1327 70.9614C77.1475 71.2977 77.1993 71.3465 77.5237 71.3658C77.5504 71.3673 77.5785 71.3673 77.6067 71.3673C79.8344 71.3673 82.0622 71.3688 84.2914 71.3643C84.6292 71.3628 84.6884 71.2977 84.7032 70.9881C84.7121 70.8207 84.7091 70.6534 84.7091 70.486C84.7091 68.0362 84.7076 65.5849 84.7091 63.1351C84.7106 61.9636 84.678 60.7949 84.5166 59.6337C84.2899 57.9986 83.9063 56.4078 83.1539 54.9252C81.9526 52.5569 80.067 51.0165 77.5044 50.3263C76.2913 50.0004 75.0709 49.8434 73.8444 49.8434C72.8609 49.8434 71.8744 49.9456 70.8864 50.1396Z" fill="url(#paint3_linear_466_26970)"/>
</g>
<mask id="mask4_466_26970" style="mask-type:luminance" maskUnits="userSpaceOnUse" x="165" y="50" width="21" height="64">
<path d="M165.868 51.92C165.867 61.9739 165.867 72.0264 165.867 82.0788C165.867 92.1046 165.867 102.13 165.868 112.155C165.868 112.433 165.876 112.712 165.892 112.99C165.898 113.112 165.985 113.189 166.11 113.197C166.274 113.209 166.443 113.218 166.609 113.218C168.643 113.22 170.675 113.218 172.709 113.218C172.846 113.218 172.987 113.217 173.125 113.211C173.32 113.205 173.436 113.112 173.44 112.909C173.443 112.63 173.448 112.352 173.448 112.073C173.448 103.887 173.448 95.6993 173.448 87.5116C173.448 87.2613 173.446 87.011 173.46 86.7592C173.469 86.5993 173.578 86.5089 173.732 86.5C173.981 86.4852 174.231 86.4808 174.483 86.4808C177.183 86.4793 179.885 86.4793 182.587 86.4793C182.754 86.4793 182.922 86.4808 183.088 86.4793C183.833 86.4719 183.837 86.4719 183.843 85.7639C183.846 85.1226 183.843 84.4827 183.843 83.8414C183.843 81.9204 183.844 79.9993 183.84 78.0783C183.839 77.6354 183.787 77.591 183.375 77.5791C183.151 77.5717 182.929 77.5762 182.707 77.5762C179.81 77.5762 176.914 77.5777 174.018 77.5732C173.461 77.5732 173.461 77.5614 173.448 77.0133C173.446 76.9037 173.448 76.7912 173.448 76.6801C173.448 71.3332 173.448 65.9863 173.448 60.6394C173.448 60.4439 173.443 60.2499 173.455 60.0558C173.47 59.7966 173.543 59.73 173.824 59.7181C174.046 59.7078 174.27 59.7122 174.492 59.7122C177.834 59.7122 181.177 59.7122 184.518 59.7107C184.769 59.7107 185.019 59.7078 185.269 59.6974C185.434 59.6885 185.515 59.5863 185.526 59.4293C185.536 59.2901 185.539 59.1509 185.539 59.0116C185.541 56.5337 185.542 54.0557 185.539 51.5778C185.538 50.8461 185.53 50.8461 184.803 50.8372C184.69 50.8358 184.579 50.8372 184.468 50.8372C178.619 50.8372 172.771 50.8343 166.923 50.8387C166.806 50.8387 166.704 50.8387 166.613 50.8372C166.526 50.8358 166.449 50.8343 166.381 50.8343C165.788 50.8343 165.868 50.9276 165.868 51.92Z" fill="white"/>
</mask>
<g mask="url(#mask4_466_26970)">
<path d="M165.868 51.92C165.867 61.9739 165.867 72.0264 165.867 82.0788C165.867 92.1046 165.867 102.13 165.868 112.155C165.868 112.433 165.876 112.712 165.892 112.99C165.898 113.112 165.985 113.189 166.11 113.197C166.274 113.209 166.443 113.218 166.609 113.218C168.643 113.22 170.675 113.218 172.709 113.218C172.846 113.218 172.987 113.217 173.125 113.211C173.32 113.205 173.436 113.112 173.44 112.909C173.443 112.63 173.448 112.352 173.448 112.073C173.448 103.887 173.448 95.6993 173.448 87.5116C173.448 87.2613 173.446 87.011 173.46 86.7592C173.469 86.5993 173.578 86.5089 173.732 86.5C173.981 86.4852 174.231 86.4808 174.483 86.4808C177.183 86.4793 179.885 86.4793 182.587 86.4793C182.754 86.4793 182.922 86.4808 183.088 86.4793C183.833 86.4719 183.837 86.4719 183.843 85.7639C183.846 85.1226 183.843 84.4827 183.843 83.8414C183.843 81.9204 183.844 79.9993 183.84 78.0783C183.839 77.6354 183.787 77.591 183.375 77.5791C183.151 77.5717 182.929 77.5762 182.707 77.5762C179.81 77.5762 176.914 77.5777 174.018 77.5732C173.461 77.5732 173.461 77.5614 173.448 77.0133C173.446 76.9037 173.448 76.7912 173.448 76.6801C173.448 71.3332 173.448 65.9863 173.448 60.6394C173.448 60.4439 173.443 60.2499 173.455 60.0558C173.47 59.7966 173.543 59.73 173.824 59.7181C174.046 59.7078 174.27 59.7122 174.492 59.7122C177.834 59.7122 181.177 59.7122 184.518 59.7107C184.769 59.7107 185.019 59.7078 185.269 59.6974C185.434 59.6885 185.515 59.5863 185.526 59.4293C185.536 59.2901 185.539 59.1509 185.539 59.0116C185.541 56.5337 185.542 54.0557 185.539 51.5778C185.538 50.8461 185.53 50.8461 184.803 50.8372C184.69 50.8358 184.579 50.8372 184.468 50.8372C178.619 50.8372 172.771 50.8343 166.923 50.8387C166.806 50.8387 166.704 50.8387 166.613 50.8372C166.526 50.8358 166.449 50.8343 166.381 50.8343C165.788 50.8343 165.868 50.9276 165.868 51.92Z" fill="url(#paint4_linear_466_26970)"/>
</g>
<mask id="mask5_466_26970" style="mask-type:luminance" maskUnits="userSpaceOnUse" x="-915" y="-313" width="1248" height="705">
<path d="M-914.546 -312.851H332.481V391.586H-914.546V-312.851Z" fill="white"/>
</mask>
<g mask="url(#mask5_466_26970)">
<path d="M29.2428 6.25503C28.9376 6.27429 28.4163 6.31576 27.8949 6.33946C26.7306 6.3913 25.5856 6.572 24.4466 6.80009C21.2071 7.45031 18.298 8.85295 15.5859 10.7044C14.8171 11.2287 14.1032 11.8226 13.4278 12.4625C12.7109 13.1453 12.0606 13.8873 11.4829 14.6916C11.1896 15.1004 10.96 15.5432 11.043 16.0646C11.1482 16.7385 11.4311 17.3384 11.914 17.8331C12.2058 18.1323 12.5642 18.31 12.9775 18.3826C13.8588 18.5366 14.6527 18.3663 15.3267 17.7546C15.6052 17.5013 15.8807 17.2421 16.1458 16.974C16.6968 16.4141 17.2612 15.872 17.8833 15.3922C22.9165 11.5012 28.5007 10.383 34.6241 12.1277C36.9185 12.7809 38.927 13.9954 40.7667 15.4988C41.4184 16.032 42.0776 16.5548 42.7367 17.0792C43.0789 17.3517 43.4418 17.5857 43.8595 17.7323C45.5066 18.3159 47.1804 17.0629 47.1137 15.4203C47.0841 14.6886 46.8471 14.0621 46.3376 13.5378C45.5881 12.7661 44.7956 12.0418 43.9543 11.3709C39.715 7.985 34.8685 6.3202 29.2428 6.25503ZM53.4045 15.5255C53.3408 20.0414 50.1843 22.9963 47.0441 23.8331C44.4238 24.5308 41.9754 24.1146 39.7224 22.6275C38.9744 22.1343 38.2886 21.5433 37.5761 20.9938C37.0251 20.5672 36.4889 20.1214 35.9261 19.7111C33.9071 18.2404 31.632 17.565 29.1465 17.6153C25.9204 17.679 23.1624 18.8773 20.865 21.1345C20.2014 21.7862 19.5423 22.435 18.7957 22.9963C15.5815 25.4091 11.4089 25.0536 8.88041 23.4081C6.6645 21.9669 5.39509 19.8741 4.90036 17.3117C4.45896 15.0219 5.02627 12.9364 6.36677 11.0524C8.0213 8.73001 10.0817 6.82675 12.4472 5.25231C15.9147 2.94173 19.6563 1.28286 23.7785 0.539333C25.1516 0.291985 26.5321 0.136465 27.926 0.05056C31.5046 -0.167168 34.9929 0.32457 38.3967 1.40136C43.2596 2.93877 47.4233 5.61518 50.9486 9.28395C52.6135 11.0169 53.3882 13.129 53.4045 15.5255Z" fill="#6764F5"/>
</g>
<mask id="mask6_466_26970" style="mask-type:luminance" maskUnits="userSpaceOnUse" x="87" y="50" width="23" height="64">
<path d="M108.431 50.8387C101.829 50.8343 95.2276 50.8372 88.6258 50.8372C88.4317 50.8372 88.2362 50.8328 88.0422 50.8387C87.703 50.8521 87.6452 50.9054 87.623 51.2194C87.6126 51.3571 87.6157 51.4964 87.6157 51.6356C87.6157 54.0869 87.6156 56.5382 87.6171 58.9894C87.6171 59.1553 87.6185 59.3242 87.6378 59.4886C87.6511 59.6115 87.7386 59.6915 87.86 59.6989C88.0822 59.7122 88.3044 59.7122 88.5266 59.7122C90.2552 59.7122 91.9807 59.7093 93.7093 59.7137C93.8115 59.7152 93.9049 59.7137 93.9893 59.7122C94.8321 59.7063 94.727 59.6974 94.727 60.746C94.7299 69.3248 94.7285 77.905 94.7285 86.4823C94.7285 95.0343 94.7285 103.585 94.7285 112.136C94.7285 112.386 94.724 112.638 94.7358 112.886C94.7462 113.147 94.8188 113.214 95.0973 113.233C95.2365 113.245 95.3772 113.242 95.5149 113.242C97.5501 113.243 99.5824 113.243 101.616 113.242C101.755 113.242 101.896 113.243 102.034 113.232C102.229 113.218 102.336 113.106 102.339 112.91C102.346 112.63 102.348 112.352 102.348 112.075C102.348 95.0003 102.348 77.9257 102.348 60.8527C102.348 60.5742 102.346 60.2958 102.36 60.0173C102.369 59.8204 102.49 59.7226 102.686 59.7196C102.909 59.7152 103.131 59.7122 103.354 59.7122C105.082 59.7122 106.808 59.7122 108.536 59.7108C108.757 59.7108 108.981 59.7048 109.203 59.693C109.326 59.6856 109.41 59.61 109.416 59.4841C109.43 59.2634 109.437 59.0398 109.437 58.8176C109.439 56.5056 109.441 54.1935 109.435 51.8829C109.434 50.9202 109.524 50.8343 108.929 50.8343C108.799 50.8343 108.636 50.8387 108.431 50.8387Z" fill="white"/>
</mask>
<g mask="url(#mask6_466_26970)">
<path d="M108.431 50.8387C101.829 50.8343 95.2276 50.8372 88.6258 50.8372C88.4317 50.8372 88.2362 50.8328 88.0422 50.8387C87.703 50.8521 87.6452 50.9054 87.623 51.2194C87.6126 51.3571 87.6157 51.4964 87.6157 51.6356C87.6157 54.0869 87.6156 56.5382 87.6171 58.9894C87.6171 59.1553 87.6185 59.3242 87.6378 59.4886C87.6511 59.6115 87.7386 59.6915 87.86 59.6989C88.0822 59.7122 88.3044 59.7122 88.5266 59.7122C90.2552 59.7122 91.9807 59.7093 93.7093 59.7137C93.8115 59.7152 93.9049 59.7137 93.9893 59.7122C94.8321 59.7063 94.727 59.6974 94.727 60.746C94.7299 69.3248 94.7285 77.905 94.7285 86.4823C94.7285 95.0343 94.7285 103.585 94.7285 112.136C94.7285 112.386 94.724 112.638 94.7358 112.886C94.7462 113.147 94.8188 113.214 95.0973 113.233C95.2365 113.245 95.3772 113.242 95.5149 113.242C97.5501 113.243 99.5824 113.243 101.616 113.242C101.755 113.242 101.896 113.243 102.034 113.232C102.229 113.218 102.336 113.106 102.339 112.91C102.346 112.63 102.348 112.352 102.348 112.075C102.348 95.0003 102.348 77.9257 102.348 60.8527C102.348 60.5742 102.346 60.2958 102.36 60.0173C102.369 59.8204 102.49 59.7226 102.686 59.7196C102.909 59.7152 103.131 59.7122 103.354 59.7122C105.082 59.7122 106.808 59.7122 108.536 59.7108C108.757 59.7108 108.981 59.7048 109.203 59.693C109.326 59.6856 109.41 59.61 109.416 59.4841C109.43 59.2634 109.437 59.0398 109.437 58.8176C109.439 56.5056 109.441 54.1935 109.435 51.8829C109.434 50.9202 109.524 50.8343 108.929 50.8343C108.799 50.8343 108.636 50.8387 108.431 50.8387Z" fill="url(#paint5_linear_466_26970)"/>
</g>
<mask id="mask7_466_26970" style="mask-type:luminance" maskUnits="userSpaceOnUse" x="189" y="50" width="8" height="64">
<path d="M190.2 50.8373C190.035 50.8373 189.867 50.8417 189.7 50.8447C189.494 50.8476 189.404 50.9795 189.395 51.1646C189.381 51.4416 189.383 51.72 189.383 51.9985C189.381 62.0258 189.381 72.0516 189.381 82.0774V105.473C189.381 107.756 189.381 110.04 189.383 112.324C189.383 112.546 189.387 112.769 189.408 112.992C189.418 113.109 189.515 113.189 189.633 113.203C189.771 113.22 189.91 113.218 190.049 113.218C192.138 113.218 194.226 113.218 196.316 113.218C196.456 113.218 196.595 113.218 196.734 113.203C196.891 113.187 196.983 113.094 196.987 112.932C196.996 112.71 196.999 112.487 196.999 112.264C196.999 110.12 196.999 107.975 196.999 105.83C196.999 87.8657 196.999 69.9024 196.999 51.9392C196.999 51.6608 196.998 51.3823 196.986 51.1039C196.978 50.9439 196.878 50.8565 196.719 50.8476C196.552 50.8387 196.385 50.8373 196.217 50.8373C195.214 50.8373 194.213 50.8358 193.21 50.8358C192.208 50.8358 191.205 50.8373 190.2 50.8373Z" fill="white"/>
</mask>
<g mask="url(#mask7_466_26970)">
<path d="M190.2 50.8373C190.035 50.8373 189.867 50.8417 189.7 50.8447C189.494 50.8476 189.404 50.9795 189.395 51.1646C189.381 51.4416 189.383 51.72 189.383 51.9985C189.381 62.0258 189.381 72.0516 189.381 82.0774V105.473C189.381 107.756 189.381 110.04 189.383 112.324C189.383 112.546 189.387 112.769 189.408 112.992C189.418 113.109 189.515 113.189 189.633 113.203C189.771 113.22 189.91 113.218 190.049 113.218C192.138 113.218 194.226 113.218 196.316 113.218C196.456 113.218 196.595 113.218 196.734 113.203C196.891 113.187 196.983 113.094 196.987 112.932C196.996 112.71 196.999 112.487 196.999 112.264C196.999 110.12 196.999 107.975 196.999 105.83C196.999 87.8657 196.999 69.9024 196.999 51.9392C196.999 51.6608 196.998 51.3823 196.986 51.1039C196.978 50.9439 196.878 50.8565 196.719 50.8476C196.552 50.8387 196.385 50.8373 196.217 50.8373C195.214 50.8373 194.213 50.8358 193.21 50.8358C192.208 50.8358 191.205 50.8373 190.2 50.8373Z" fill="url(#paint6_linear_466_26970)"/>
</g>
<mask id="mask8_466_26970" style="mask-type:luminance" maskUnits="userSpaceOnUse" x="-915" y="-313" width="1248" height="705">
<path d="M-914.546 -312.851H332.481V391.586H-914.546V-312.851Z" fill="white"/>
</mask>
<g mask="url(#mask8_466_26970)">
<path d="M197 127.81C197 129.99 197 132.172 197 134.352C196.999 134.665 196.996 134.976 196.984 135.287C196.976 135.513 196.845 135.642 196.619 135.644C195.879 135.651 195.14 135.658 194.401 135.647C194.045 135.642 193.959 135.536 193.95 135.124C193.938 134.54 193.944 133.955 193.944 133.372C193.943 132.009 193.949 130.645 193.938 129.282C193.935 128.808 193.844 128.702 193.418 128.699C191.588 128.69 189.757 128.69 187.926 128.699C187.479 128.7 187.385 128.796 187.382 129.257C187.372 130.971 187.381 132.684 187.375 134.398C187.371 135.764 187.517 135.653 186.126 135.657C185.815 135.657 185.503 135.66 185.192 135.656C184.331 135.645 184.321 135.644 184.321 134.728C184.316 130.132 184.319 125.536 184.319 120.942C184.319 120.746 184.324 120.552 184.339 120.358C184.352 120.192 184.442 120.038 184.61 120.035C185.427 120.022 186.243 120.027 187.061 120.034C187.24 120.035 187.34 120.169 187.35 120.338C187.369 120.649 187.375 120.96 187.375 121.271C187.378 122.673 187.372 124.075 187.381 125.477C187.385 125.969 187.454 126.044 187.901 126.047C189.77 126.055 191.64 126.049 193.509 126.049C193.796 126.049 193.937 125.898 193.937 125.618C193.941 124.255 193.935 122.891 193.946 121.528C193.961 119.772 193.725 120.028 195.519 120.006C195.868 120.001 196.219 120.007 196.569 120.012C196.858 120.015 196.987 120.178 196.993 120.45C197 120.761 197 121.072 197 121.385C197 123.526 197 125.668 197 127.81Z" fill="#6764F5"/>
<path d="M155.622 127.727C155.622 125.587 155.622 123.445 155.622 121.305C155.623 120.994 155.625 120.683 155.643 120.372C155.655 120.151 155.783 120.015 156.007 119.997C156.2 119.983 156.395 119.987 156.589 119.987C158.848 119.987 161.105 119.987 163.363 119.987C163.557 119.987 163.752 119.984 163.946 119.999C164.115 120.011 164.255 120.111 164.259 120.282C164.272 120.979 164.272 121.678 164.262 122.378C164.259 122.552 164.121 122.656 163.954 122.666C163.644 122.684 163.332 122.686 163.021 122.686C161.736 122.69 160.452 122.69 159.168 122.695C158.897 122.696 158.722 122.82 158.722 123.111C158.719 123.967 158.718 124.823 158.722 125.679C158.722 125.975 158.906 126.083 159.175 126.083C160.381 126.086 161.588 126.086 162.794 126.091C163.105 126.091 163.418 126.091 163.727 126.107C163.896 126.114 164.041 126.217 164.044 126.385C164.06 127.083 164.06 127.782 164.05 128.481C164.047 128.65 163.918 128.763 163.746 128.773C163.475 128.791 163.203 128.794 162.93 128.794C161.723 128.797 160.517 128.789 159.31 128.801C158.773 128.806 158.724 128.859 158.716 129.42C158.703 130.315 158.703 131.211 158.713 132.106C158.724 132.953 158.741 132.974 159.55 132.981C160.756 132.991 161.963 132.982 163.169 132.985C163.441 132.985 163.714 132.99 163.985 133.006C164.166 133.017 164.255 133.139 164.277 133.307C164.292 133.422 164.3 133.541 164.293 133.656C164.247 134.271 164.406 134.898 164.194 135.505C163.603 135.78 162.978 135.622 162.37 135.629C160.503 135.654 158.633 135.64 156.765 135.638C156.494 135.638 156.22 135.635 155.951 135.614C155.78 135.601 155.663 135.484 155.652 135.315C155.629 135.006 155.623 134.695 155.623 134.384C155.62 132.165 155.622 129.946 155.622 127.727Z" fill="#6764F5"/>
<path d="M180.487 131.555C180.487 132.752 180.481 133.713 180.49 134.676C180.493 135.006 180.296 135.154 180.031 135.273C178.987 135.741 177.885 135.996 176.749 136C172.252 136.013 169.237 132.921 168.531 129.56C167.529 124.798 171.024 120.069 175.875 119.693C177.298 119.582 178.664 119.771 179.973 120.365C180.342 120.532 180.506 120.756 180.498 121.165C180.478 122.091 180.492 123.016 180.492 123.954C180.052 124.015 179.89 123.69 179.658 123.521C178.855 122.932 177.99 122.551 176.98 122.486C174.313 122.317 172.278 124.098 171.696 126.503C171.406 127.709 171.487 128.904 171.958 130.053C173.262 133.239 177.123 134.077 179.548 132.26C179.794 132.076 180.04 131.891 180.487 131.555Z" fill="#6764F5"/>
<path d="M144.945 129.111V124.203C144.945 123.969 144.948 123.735 144.944 123.502C144.929 122.707 144.929 122.703 144.186 122.689C143.681 122.68 143.174 122.685 142.667 122.688C141.396 122.692 141.447 122.753 141.457 121.488C141.471 119.779 141.278 119.995 142.944 119.989C145.36 119.98 147.776 119.986 150.192 119.988C150.503 119.988 150.814 119.986 151.127 119.995C151.346 120.001 151.49 120.106 151.51 120.34C151.521 120.456 151.538 120.574 151.53 120.688C151.484 121.304 151.642 121.929 151.432 122.535C150.847 122.839 150.219 122.628 149.611 122.682C149.263 122.713 148.911 122.68 148.56 122.695C148.135 122.714 148.052 122.808 148.032 123.276C148.021 123.587 148.026 123.898 148.026 124.21C148.026 127.599 148.026 130.988 148.025 134.377C148.025 134.689 148.019 135 148.001 135.311C147.991 135.48 147.884 135.617 147.712 135.618C146.896 135.625 146.079 135.622 145.262 135.608C145.094 135.605 144.983 135.476 144.971 135.304C144.953 135.033 144.947 134.759 144.947 134.488C144.944 132.696 144.945 130.904 144.945 129.111Z" fill="#6764F5"/>
</g>
<mask id="mask9_466_26970" style="mask-type:luminance" maskUnits="userSpaceOnUse" x="47" y="96" width="1" height="1">
<path d="M47.0537 96.3081H47.1189L47.0656 96.2962L47.0537 96.3081Z" fill="white"/>
</mask>
<g mask="url(#mask9_466_26970)">
<path d="M47.0537 96.3081H47.1189L47.0656 96.2962L47.0537 96.3081Z" fill="url(#paint7_linear_466_26970)"/>
</g>
<mask id="mask10_466_26970" style="mask-type:luminance" maskUnits="userSpaceOnUse" x="25" y="63" width="11" height="18">
<path d="M30.5249 63.8696C28.9785 69.2121 27.4336 74.5545 25.8902 79.897C25.8176 80.1458 25.7124 80.3902 25.7923 80.6568C26.4263 80.7605 34.6175 80.7901 35.8351 80.6879C35.8691 80.3398 35.7387 80.0717 35.6602 79.7992C35.1048 77.85 34.5346 75.9024 33.9717 73.9547C32.9956 70.588 32.0194 67.2229 31.0448 63.8548C30.9855 63.6489 30.9692 63.4179 30.7248 63.2638C30.6508 63.4875 30.5797 63.6756 30.5249 63.8696Z" fill="white"/>
</mask>
<g mask="url(#mask10_466_26970)">
<path d="M30.5249 63.8696C28.9785 69.2121 27.4336 74.5545 25.8902 79.897C25.8176 80.1458 25.7124 80.3902 25.7923 80.6568C26.4263 80.7605 34.6175 80.7901 35.8351 80.6879C35.8691 80.3398 35.7387 80.0717 35.6602 79.7992C35.1048 77.85 34.5346 75.9024 33.9717 73.9547C32.9956 70.588 32.0194 67.2229 31.0448 63.8548C30.9855 63.6489 30.9692 63.4179 30.7248 63.2638C30.6508 63.4875 30.5797 63.6756 30.5249 63.8696Z" fill="url(#paint8_linear_466_26970)"/>
</g>
</g>
<defs>
<linearGradient id="paint0_linear_466_26970" x1="-3.90855" y1="70.5443" x2="196.998" y2="70.5443" gradientUnits="userSpaceOnUse">
<stop stop-color="#9774F3"/>
<stop offset="1" stop-color="#6764F5"/>
</linearGradient>
<linearGradient id="paint1_linear_466_26970" x1="-3.90824" y1="82.0269" x2="196.999" y2="82.0269" gradientUnits="userSpaceOnUse">
<stop stop-color="#9774F3"/>
<stop offset="1" stop-color="#6764F5"/>
</linearGradient>
<linearGradient id="paint2_linear_466_26970" x1="-3.90826" y1="82.0405" x2="196.999" y2="82.0405" gradientUnits="userSpaceOnUse">
<stop stop-color="#9774F3"/>
<stop offset="1" stop-color="#6764F5"/>
</linearGradient>
<linearGradient id="paint3_linear_466_26970" x1="-3.90856" y1="82.045" x2="196.999" y2="82.045" gradientUnits="userSpaceOnUse">
<stop stop-color="#9774F3"/>
<stop offset="1" stop-color="#6764F5"/>
</linearGradient>
<linearGradient id="paint4_linear_466_26970" x1="-3.90882" y1="82.0264" x2="196.999" y2="82.0264" gradientUnits="userSpaceOnUse">
<stop stop-color="#9774F3"/>
<stop offset="1" stop-color="#6764F5"/>
</linearGradient>
<linearGradient id="paint5_linear_466_26970" x1="-3.90803" y1="82.0383" x2="196.999" y2="82.0383" gradientUnits="userSpaceOnUse">
<stop stop-color="#9774F3"/>
<stop offset="1" stop-color="#6764F5"/>
</linearGradient>
<linearGradient id="paint6_linear_466_26970" x1="-3.90857" y1="82.0281" x2="196.999" y2="82.0281" gradientUnits="userSpaceOnUse">
<stop stop-color="#9774F3"/>
<stop offset="1" stop-color="#6764F5"/>
</linearGradient>
<linearGradient id="paint7_linear_466_26970" x1="-3.91562" y1="96.3021" x2="197.021" y2="96.3021" gradientUnits="userSpaceOnUse">
<stop stop-color="#9774F3"/>
<stop offset="1" stop-color="#6764F5"/>
</linearGradient>
<linearGradient id="paint8_linear_466_26970" x1="-3.90824" y1="72.008" x2="197" y2="72.008" gradientUnits="userSpaceOnUse">
<stop stop-color="#9774F3"/>
<stop offset="1" stop-color="#6764F5"/>
</linearGradient>
<clipPath id="clip0_466_26970">
<rect width="197" height="136" fill="white"/>
</clipPath>
</defs>
</svg>
