<svg width="104" height="69" viewBox="0 0 104 69" fill="none" xmlns="http://www.w3.org/2000/svg">
<g clip-path="url(#clip0_288_13295)">
<mask id="mask0_288_13295" style="mask-type:luminance" maskUnits="userSpaceOnUse" x="0" y="14" width="33" height="44">
<path d="M15.0517 14.184C11.188 14.9663 9.49041 19.466 12.153 22.4418C12.4939 22.8213 12.5025 22.689 12.3031 23.206C11.4218 25.4807 10.5374 27.7553 9.6538 30.03C6.60648 37.8737 3.55995 45.7175 0.514198 53.5619C0.36406 53.9474 0.198312 54.3299 0.0833626 54.7259C-0.354538 56.2356 0.9881 57.8077 2.81399 57.45C3.28082 57.359 3.65225 57.1096 4.01586 56.8315C7.93976 53.8362 11.866 50.8447 15.7923 47.8516C15.9361 47.7426 16.0831 47.6374 16.2184 47.539C16.3818 47.5698 16.478 47.6697 16.5844 47.7516C19.742 50.1578 22.8996 52.5647 26.0571 54.9724C26.9329 55.6405 27.8118 56.3055 28.6853 56.9773C29.2006 57.3733 29.7785 57.5529 30.4377 57.5003C31.4887 57.4162 32.3949 56.5557 32.4872 55.5465C32.524 55.1437 32.4637 54.7597 32.3144 54.3773C31.4182 52.0921 30.5323 49.8031 29.6432 47.5142C26.4856 39.3804 23.3296 31.2459 20.1627 23.1151C20.0258 22.7627 19.9757 22.4741 20.312 22.2186C21.2621 21.0133 21.6163 19.6606 21.3145 18.1795C20.8305 15.8019 18.6613 14.0728 16.1551 14.0728C15.793 14.0728 15.4239 14.1089 15.0517 14.184ZM7.5558 48.1356C8.60676 45.4191 9.66241 42.7049 10.7165 39.9898C12.4783 35.4548 14.2393 30.9212 16.0003 26.3869C16.0706 26.2081 16.1418 26.0307 16.2231 25.8271C16.3811 25.9398 16.399 26.1059 16.453 26.2434C17.0621 27.7997 17.6635 29.3582 18.268 30.916C20.4731 36.594 22.679 42.272 24.8803 47.9523C24.9452 48.1221 25.0789 48.2837 25.0109 48.4858C24.1202 47.814 23.2295 47.1437 22.342 46.4689C20.8281 45.3177 19.3158 44.1657 17.8058 43.0092C17.0418 42.4246 16.2114 42.3081 15.3051 42.647C15.0588 42.7394 14.8547 42.895 14.6506 43.0505C13.4143 43.9936 12.1788 44.9359 10.9417 45.8783C9.89858 46.6748 8.85386 47.4706 7.80837 48.2649C7.71376 48.337 7.63168 48.4302 7.49953 48.4565C7.41742 48.3325 7.51827 48.2341 7.5558 48.1356Z" fill="white"/>
</mask>
<g mask="url(#mask0_288_13295)">
<path d="M15.0517 14.184C11.188 14.9663 9.49041 19.466 12.153 22.4418C12.4939 22.8213 12.5025 22.689 12.3031 23.206C11.4218 25.4807 10.5374 27.7553 9.6538 30.03C6.60648 37.8737 3.55995 45.7175 0.514198 53.5619C0.36406 53.9474 0.198312 54.3299 0.0833626 54.7259C-0.354538 56.2356 0.9881 57.8077 2.81399 57.45C3.28082 57.359 3.65225 57.1096 4.01586 56.8315C7.93976 53.8362 11.866 50.8447 15.7923 47.8516C15.9361 47.7426 16.0831 47.6374 16.2184 47.539C16.3818 47.5698 16.478 47.6697 16.5844 47.7516C19.742 50.1578 22.8996 52.5647 26.0571 54.9724C26.9329 55.6405 27.8118 56.3055 28.6853 56.9773C29.2006 57.3733 29.7785 57.5529 30.4377 57.5003C31.4887 57.4162 32.3949 56.5557 32.4872 55.5465C32.524 55.1437 32.4637 54.7597 32.3144 54.3773C31.4182 52.0921 30.5323 49.8031 29.6432 47.5142C26.4856 39.3804 23.3296 31.2459 20.1627 23.1151C20.0258 22.7627 19.9757 22.4741 20.312 22.2186C21.2621 21.0133 21.6163 19.6606 21.3145 18.1795C20.8305 15.8019 18.6613 14.0728 16.1551 14.0728C15.793 14.0728 15.4239 14.1089 15.0517 14.184ZM7.5558 48.1356C8.60676 45.4191 9.66241 42.7049 10.7165 39.9898C12.4783 35.4548 14.2393 30.9212 16.0003 26.3869C16.0706 26.2081 16.1418 26.0307 16.2231 25.8271C16.3811 25.9398 16.399 26.1059 16.453 26.2434C17.0621 27.7997 17.6635 29.3582 18.268 30.916C20.4731 36.594 22.679 42.272 24.8803 47.9523C24.9452 48.1221 25.0789 48.2837 25.0109 48.4858C24.1202 47.814 23.2295 47.1437 22.342 46.4689C20.8281 45.3177 19.3158 44.1657 17.8058 43.0092C17.0418 42.4246 16.2114 42.3081 15.3051 42.647C15.0588 42.7394 14.8547 42.895 14.6506 43.0505C13.4143 43.9936 12.1788 44.9359 10.9417 45.8783C9.89858 46.6748 8.85386 47.4706 7.80837 48.2649C7.71376 48.337 7.63168 48.4302 7.49953 48.4565C7.41742 48.3325 7.51827 48.2341 7.5558 48.1356Z" fill="url(#paint0_linear_288_13295)"/>
</g>
<mask id="mask1_288_13295" style="mask-type:luminance" maskUnits="userSpaceOnUse" x="59" y="25" width="14" height="33">
<path d="M59.6049 26.3426C59.6033 31.4428 59.6041 36.5429 59.6041 41.6431C59.6041 46.7282 59.6041 51.8148 59.6041 56.9007C59.6041 57.0427 59.6072 57.184 59.615 57.3245C59.619 57.3861 59.662 57.4252 59.7284 57.4312C59.8019 57.4372 59.8747 57.4417 59.9482 57.4417C61.0508 57.4417 62.1533 57.4432 63.2559 57.4417C63.5953 57.441 63.5952 57.4357 63.6007 57.1133C63.6023 57.0149 63.6007 56.9157 63.6007 56.8165C63.6007 52.6061 63.6007 48.3964 63.6007 44.186C63.6007 44.059 63.5976 43.932 63.603 43.805C63.6093 43.6337 63.6304 43.6134 63.8025 43.5841C64.0785 43.5375 64.1106 43.5563 64.1817 43.7967C64.1943 43.8373 64.2005 43.8794 64.2107 43.9207C65.2124 47.7817 66.214 51.6435 67.215 55.5045C67.3643 56.0793 67.5113 56.6549 67.6638 57.2298C67.7115 57.4102 67.7452 57.4312 67.9367 57.441C67.9954 57.4432 68.0548 57.4417 68.1134 57.4417C69.3044 57.4417 70.4945 57.4432 71.6854 57.4417C72.1124 57.4417 72.1147 57.4372 71.9951 57.0449C71.4125 55.1355 70.8292 53.2268 70.2451 51.3173C69.4092 48.582 68.5717 45.8475 67.7358 43.1114C67.7068 43.0175 67.6771 42.9228 67.6552 42.8266C67.6427 42.768 67.6662 42.7139 67.7209 42.6823C67.771 42.6523 67.8249 42.6282 67.8773 42.6034C69.2567 41.9474 70.0902 40.8736 70.4882 39.4638C70.6665 38.8326 70.7573 38.1909 70.7596 37.5386C70.7635 35.829 70.7666 34.1195 70.7651 32.4106C70.7651 31.6186 70.7221 30.8288 70.5571 30.0503C70.4085 29.3409 70.1888 28.6549 69.8158 28.0214C69.2324 27.0279 68.3754 26.3606 67.2353 26.0345C66.6238 25.8602 65.9982 25.7918 65.3625 25.7925C63.6281 25.7925 61.8937 25.7903 60.1585 25.7933C60.096 25.7941 60.0396 25.7933 59.9904 25.7925C59.9442 25.7918 59.9044 25.791 59.8684 25.791C59.5595 25.791 59.6049 25.8384 59.6049 26.3426ZM63.603 39.1685C63.5976 39.0558 63.5999 38.9431 63.5999 38.8296C63.5999 37.4882 63.5999 36.1461 63.5999 34.8048C63.5999 33.477 63.5999 32.1491 63.5999 30.8221C63.5999 30.7229 63.5976 30.6244 63.6015 30.5252C63.6086 30.3283 63.632 30.2998 63.8283 30.2968C64.055 30.2945 64.2826 30.2945 64.5102 30.2945C64.6501 30.2953 64.7901 30.2953 64.9301 30.2945C65.1076 30.2938 65.2812 30.3141 65.4548 30.3464C65.974 30.4433 66.3259 30.7319 66.5323 31.1925C66.6684 31.4939 66.727 31.8132 66.7536 32.1379C66.7638 32.2641 66.7622 32.3919 66.7622 32.5188C66.763 34.0586 66.7622 35.5976 66.763 37.1373C66.7638 37.4206 66.7481 37.7009 66.677 37.9774C66.6097 38.2412 66.5104 38.4892 66.3384 38.7071C66.0499 39.0753 65.6745 39.3113 65.1897 39.3353C64.7213 39.3579 64.2505 39.3534 63.7798 39.3549C63.779 39.3549 63.7782 39.3549 63.7767 39.3549C63.643 39.3549 63.6093 39.3113 63.603 39.1685Z" fill="white"/>
</mask>
<g mask="url(#mask1_288_13295)">
<path d="M59.6049 26.3426C59.6033 31.4428 59.6041 36.5429 59.6041 41.6431C59.6041 46.7282 59.6041 51.8148 59.6041 56.9007C59.6041 57.0427 59.6072 57.184 59.615 57.3245C59.619 57.3861 59.662 57.4252 59.7284 57.4312C59.8019 57.4372 59.8747 57.4417 59.9482 57.4417C61.0508 57.4417 62.1533 57.4432 63.2559 57.4417C63.5953 57.441 63.5952 57.4357 63.6007 57.1133C63.6023 57.0149 63.6007 56.9157 63.6007 56.8165C63.6007 52.6061 63.6007 48.3964 63.6007 44.186C63.6007 44.059 63.5976 43.932 63.603 43.805C63.6093 43.6337 63.6304 43.6134 63.8025 43.5841C64.0785 43.5375 64.1106 43.5563 64.1817 43.7967C64.1943 43.8373 64.2005 43.8794 64.2107 43.9207C65.2124 47.7817 66.214 51.6435 67.215 55.5045C67.3643 56.0793 67.5113 56.6549 67.6638 57.2298C67.7115 57.4102 67.7452 57.4312 67.9367 57.441C67.9954 57.4432 68.0548 57.4417 68.1134 57.4417C69.3044 57.4417 70.4945 57.4432 71.6854 57.4417C72.1124 57.4417 72.1147 57.4372 71.9951 57.0449C71.4125 55.1355 70.8292 53.2268 70.2451 51.3173C69.4092 48.582 68.5717 45.8475 67.7358 43.1114C67.7068 43.0175 67.6771 42.9228 67.6552 42.8266C67.6427 42.768 67.6662 42.7139 67.7209 42.6823C67.771 42.6523 67.8249 42.6282 67.8773 42.6034C69.2567 41.9474 70.0902 40.8736 70.4882 39.4638C70.6665 38.8326 70.7573 38.1909 70.7596 37.5386C70.7635 35.829 70.7666 34.1195 70.7651 32.4106C70.7651 31.6186 70.7221 30.8288 70.5571 30.0503C70.4085 29.3409 70.1888 28.6549 69.8158 28.0214C69.2324 27.0279 68.3754 26.3606 67.2353 26.0345C66.6238 25.8602 65.9982 25.7918 65.3625 25.7925C63.6281 25.7925 61.8937 25.7903 60.1585 25.7933C60.096 25.7941 60.0396 25.7933 59.9904 25.7925C59.9442 25.7918 59.9044 25.791 59.8684 25.791C59.5595 25.791 59.6049 25.8384 59.6049 26.3426ZM63.603 39.1685C63.5976 39.0558 63.5999 38.9431 63.5999 38.8296C63.5999 37.4882 63.5999 36.1461 63.5999 34.8048C63.5999 33.477 63.5999 32.1491 63.5999 30.8221C63.5999 30.7229 63.5976 30.6244 63.6015 30.5252C63.6086 30.3283 63.632 30.2998 63.8283 30.2968C64.055 30.2945 64.2826 30.2945 64.5102 30.2945C64.6501 30.2953 64.7901 30.2953 64.9301 30.2945C65.1076 30.2938 65.2812 30.3141 65.4548 30.3464C65.974 30.4433 66.3259 30.7319 66.5323 31.1925C66.6684 31.4939 66.727 31.8132 66.7536 32.1379C66.7638 32.2641 66.7622 32.3919 66.7622 32.5188C66.763 34.0586 66.7622 35.5976 66.763 37.1373C66.7638 37.4206 66.7481 37.7009 66.677 37.9774C66.6097 38.2412 66.5104 38.4892 66.3384 38.7071C66.0499 39.0753 65.6745 39.3113 65.1897 39.3353C64.7213 39.3579 64.2505 39.3534 63.7798 39.3549C63.779 39.3549 63.7782 39.3549 63.7767 39.3549C63.643 39.3549 63.6093 39.3113 63.603 39.1685Z" fill="url(#paint1_linear_288_13295)"/>
</g>
<mask id="mask2_288_13295" style="mask-type:luminance" maskUnits="userSpaceOnUse" x="73" y="25" width="12" height="33">
<path d="M77.1483 25.5402C75.8479 25.8776 74.8735 26.6253 74.2425 27.7766C74.029 28.1651 73.8625 28.5716 73.7405 28.9947C73.477 29.913 73.3745 30.85 73.3753 31.8021C73.3776 38.3428 73.3776 44.885 73.3745 51.4264C73.3745 52.1351 73.4316 52.8377 73.5653 53.5328C73.6959 54.2166 73.9062 54.8771 74.2487 55.4933C74.8524 56.5807 75.7626 57.3119 76.9895 57.6786C77.5541 57.8477 78.1335 57.9243 78.7231 57.9521C79.4926 57.9874 80.2511 57.9348 80.9955 57.747C82.4148 57.3908 83.4556 56.5822 84.0991 55.3107C84.3775 54.7607 84.5582 54.1813 84.6809 53.5831C84.835 52.8309 84.8788 52.0712 84.878 51.307C84.8772 48.0855 84.878 44.864 84.878 41.6432C84.878 38.436 84.878 35.2288 84.878 32.0215C84.878 31.3993 84.8624 30.7794 84.7678 30.1617C84.6567 29.4313 84.4761 28.7211 84.1531 28.0486C83.5229 26.7365 82.4867 25.8851 81.0276 25.5222C80.3911 25.3644 79.753 25.2855 79.1165 25.2855C78.4589 25.2855 77.802 25.3696 77.1483 25.5402ZM78.8467 53.4246C78.2751 53.369 77.8606 53.0902 77.619 52.5844C77.4438 52.217 77.4048 51.8232 77.3774 51.4287C77.368 51.2874 77.3735 51.1454 77.3735 51.0041C77.3735 44.7475 77.3735 38.4894 77.3719 32.2312C77.3719 31.9058 77.3774 31.5812 77.4392 31.2611C77.4603 31.1499 77.4845 31.0386 77.5166 30.9304C77.7144 30.2594 78.1719 29.8829 78.8975 29.8078C79.2119 29.7747 79.5145 29.819 79.8085 29.9152C80.1909 30.0392 80.4552 30.2947 80.6249 30.6434C80.782 30.9688 80.8509 31.3144 80.8696 31.6684C80.8829 31.9081 80.8798 32.1485 80.8798 32.389C80.8806 35.4677 80.8806 38.548 80.8806 41.6274C80.8798 44.7633 80.8798 47.8991 80.8806 51.0349C80.8806 51.3889 80.8853 51.7421 80.7969 52.0885C80.7594 52.2388 80.7195 52.3906 80.6585 52.5326C80.4224 53.0804 79.9837 53.3727 79.3753 53.4261C79.2893 53.4336 79.2017 53.4381 79.1141 53.4381C79.025 53.4381 78.9351 53.4336 78.8467 53.4246Z" fill="white"/>
</mask>
<g mask="url(#mask2_288_13295)">
<path d="M77.1483 25.5402C75.8479 25.8776 74.8735 26.6253 74.2425 27.7766C74.029 28.1651 73.8625 28.5716 73.7405 28.9947C73.477 29.913 73.3745 30.85 73.3753 31.8021C73.3776 38.3428 73.3776 44.885 73.3745 51.4264C73.3745 52.1351 73.4316 52.8377 73.5653 53.5328C73.6959 54.2166 73.9062 54.8771 74.2487 55.4933C74.8524 56.5807 75.7626 57.3119 76.9895 57.6786C77.5541 57.8477 78.1335 57.9243 78.7231 57.9521C79.4926 57.9874 80.2511 57.9348 80.9955 57.747C82.4148 57.3908 83.4556 56.5822 84.0991 55.3107C84.3775 54.7607 84.5582 54.1813 84.6809 53.5831C84.835 52.8309 84.8788 52.0712 84.878 51.307C84.8772 48.0855 84.878 44.864 84.878 41.6432C84.878 38.436 84.878 35.2288 84.878 32.0215C84.878 31.3993 84.8624 30.7794 84.7678 30.1617C84.6567 29.4313 84.4761 28.7211 84.1531 28.0486C83.5229 26.7365 82.4867 25.8851 81.0276 25.5222C80.3911 25.3644 79.753 25.2855 79.1165 25.2855C78.4589 25.2855 77.802 25.3696 77.1483 25.5402ZM78.8467 53.4246C78.2751 53.369 77.8606 53.0902 77.619 52.5844C77.4438 52.217 77.4048 51.8232 77.3774 51.4287C77.368 51.2874 77.3735 51.1454 77.3735 51.0041C77.3735 44.7475 77.3735 38.4894 77.3719 32.2312C77.3719 31.9058 77.3774 31.5812 77.4392 31.2611C77.4603 31.1499 77.4845 31.0386 77.5166 30.9304C77.7144 30.2594 78.1719 29.8829 78.8975 29.8078C79.2119 29.7747 79.5145 29.819 79.8085 29.9152C80.1909 30.0392 80.4552 30.2947 80.6249 30.6434C80.782 30.9688 80.8509 31.3144 80.8696 31.6684C80.8829 31.9081 80.8798 32.1485 80.8798 32.389C80.8806 35.4677 80.8806 38.548 80.8806 41.6274C80.8798 44.7633 80.8798 47.8991 80.8806 51.0349C80.8806 51.3889 80.8853 51.7421 80.7969 52.0885C80.7594 52.2388 80.7195 52.3906 80.6585 52.5326C80.4224 53.0804 79.9837 53.3727 79.3753 53.4261C79.2893 53.4336 79.2017 53.4381 79.1141 53.4381C79.025 53.4381 78.9351 53.4336 78.8467 53.4246Z" fill="url(#paint2_linear_288_13295)"/>
</g>
<mask id="mask3_288_13295" style="mask-type:luminance" maskUnits="userSpaceOnUse" x="33" y="25" width="12" height="33">
<path d="M37.4223 25.4386C35.702 25.7662 34.5072 26.7078 33.8402 28.2671C33.4609 29.1523 33.2779 30.0804 33.2404 31.0317C33.1833 32.4858 33.1942 33.9421 33.2286 35.3969C33.263 36.9096 33.715 38.3156 34.515 39.6194C35.1656 40.6774 36.0171 41.5687 36.9875 42.3607C37.7046 42.9483 38.3912 43.5653 39.0066 44.2536C39.468 44.7684 39.8863 45.3132 40.2108 45.9196C40.5048 46.4667 40.7066 47.0415 40.7136 47.66C40.7261 48.9029 40.7246 50.1466 40.7129 51.3895C40.709 51.7847 40.6566 52.1785 40.4892 52.549C40.2945 52.978 39.9762 53.2696 39.4992 53.3801C39.1216 53.4672 38.7431 53.4665 38.3662 53.3598C37.9775 53.2501 37.6976 53.0156 37.5076 52.6775C37.4028 52.4904 37.3347 52.2882 37.2949 52.0786C37.2401 51.8005 37.2136 51.5202 37.2143 51.2362C37.2183 49.9933 37.2159 48.7496 37.2151 47.5059C37.2151 47.3925 37.212 47.2797 37.2057 47.1678C37.2018 47.1039 37.1604 47.0656 37.0939 47.0603C37.0219 47.0535 36.9477 47.0498 36.8741 47.0498C35.7716 47.049 34.669 47.049 33.5664 47.049C33.507 47.049 33.4484 47.0505 33.3897 47.052C33.2888 47.0535 33.2216 47.0941 33.2185 47.2001C33.2153 47.3128 33.2146 47.4255 33.2146 47.539C33.2138 48.3168 33.2138 49.0938 33.2138 49.8708C33.2146 50.351 33.2122 50.8319 33.2146 51.3121C33.2169 51.9057 33.2349 52.4979 33.3249 53.087C33.4515 53.9174 33.6674 54.7199 34.0763 55.4661C34.6737 56.5565 35.5855 57.2907 36.8069 57.6656C37.3699 57.8392 37.9494 57.9189 38.5397 57.9497C39.3233 57.991 40.0974 57.9384 40.8567 57.7475C42.2275 57.4041 43.244 56.6294 43.8892 55.412C44.0831 55.0468 44.2372 54.6651 44.3498 54.2691C44.5836 53.447 44.7087 52.6098 44.7118 51.7584C44.7173 50.1901 44.7149 48.6218 44.7141 47.0535C44.7141 46.7282 44.6829 46.405 44.6414 46.0819C44.4499 44.6053 43.8813 43.2752 42.9891 42.0676C42.3894 41.2553 41.6645 40.5557 40.8786 39.9117C40.1506 39.3158 39.4539 38.6876 38.8291 37.9895C38.3192 37.4191 37.8602 36.8164 37.5404 36.1251C37.3598 35.7336 37.2261 35.3286 37.2214 34.9002C37.2112 33.8407 37.2104 32.7811 37.2245 31.7215C37.2292 31.3548 37.2972 30.9911 37.4606 30.6515C37.6819 30.1931 38.0448 29.9226 38.5656 29.8384C38.8158 29.7986 39.0606 29.7993 39.31 29.8354C39.8855 29.9195 40.2765 30.2194 40.4986 30.7304C40.5721 30.901 40.6284 31.076 40.6526 31.2594C40.6917 31.5532 40.7214 31.8478 40.7199 32.1454C40.7144 33.3176 40.7175 34.4914 40.7175 35.6637C40.7175 35.7772 40.7152 35.8899 40.7199 36.0026C40.7277 36.1732 40.755 36.198 40.9263 36.2078C40.9404 36.2085 40.9553 36.2085 40.9701 36.2085C42.1462 36.2085 43.3223 36.2093 44.4991 36.207C44.6774 36.2063 44.7087 36.1732 44.7165 36.0161C44.7212 35.9312 44.7196 35.8463 44.7196 35.7614C44.7196 34.5185 44.7188 33.2748 44.7196 32.0319C44.7204 31.4375 44.7032 30.8446 44.618 30.2555C44.4983 29.4258 44.2958 28.6188 43.8986 27.8666C43.2644 26.665 42.2689 25.8835 40.9161 25.5333C40.2757 25.368 39.6314 25.2883 38.9839 25.2883C38.4647 25.2883 37.9439 25.3402 37.4223 25.4386Z" fill="white"/>
</mask>
<g mask="url(#mask3_288_13295)">
<path d="M37.4223 25.4386C35.702 25.7662 34.5072 26.7078 33.8402 28.2671C33.4609 29.1523 33.2779 30.0804 33.2404 31.0317C33.1833 32.4858 33.1942 33.9421 33.2286 35.3969C33.263 36.9096 33.715 38.3156 34.515 39.6194C35.1656 40.6774 36.0171 41.5687 36.9875 42.3607C37.7046 42.9483 38.3912 43.5653 39.0066 44.2536C39.468 44.7684 39.8863 45.3132 40.2108 45.9196C40.5048 46.4667 40.7066 47.0415 40.7136 47.66C40.7261 48.9029 40.7246 50.1466 40.7129 51.3895C40.709 51.7847 40.6566 52.1785 40.4892 52.549C40.2945 52.978 39.9762 53.2696 39.4992 53.3801C39.1216 53.4672 38.7431 53.4665 38.3662 53.3598C37.9775 53.2501 37.6976 53.0156 37.5076 52.6775C37.4028 52.4904 37.3347 52.2882 37.2949 52.0786C37.2401 51.8005 37.2136 51.5202 37.2143 51.2362C37.2183 49.9933 37.2159 48.7496 37.2151 47.5059C37.2151 47.3925 37.212 47.2797 37.2057 47.1678C37.2018 47.1039 37.1604 47.0656 37.0939 47.0603C37.0219 47.0535 36.9477 47.0498 36.8741 47.0498C35.7716 47.049 34.669 47.049 33.5664 47.049C33.507 47.049 33.4484 47.0505 33.3897 47.052C33.2888 47.0535 33.2216 47.0941 33.2185 47.2001C33.2153 47.3128 33.2146 47.4255 33.2146 47.539C33.2138 48.3168 33.2138 49.0938 33.2138 49.8708C33.2146 50.351 33.2122 50.8319 33.2146 51.3121C33.2169 51.9057 33.2349 52.4979 33.3249 53.087C33.4515 53.9174 33.6674 54.7199 34.0763 55.4661C34.6737 56.5565 35.5855 57.2907 36.8069 57.6656C37.3699 57.8392 37.9494 57.9189 38.5397 57.9497C39.3233 57.991 40.0974 57.9384 40.8567 57.7475C42.2275 57.4041 43.244 56.6294 43.8892 55.412C44.0831 55.0468 44.2372 54.6651 44.3498 54.2691C44.5836 53.447 44.7087 52.6098 44.7118 51.7584C44.7173 50.1901 44.7149 48.6218 44.7141 47.0535C44.7141 46.7282 44.6829 46.405 44.6414 46.0819C44.4499 44.6053 43.8813 43.2752 42.9891 42.0676C42.3894 41.2553 41.6645 40.5557 40.8786 39.9117C40.1506 39.3158 39.4539 38.6876 38.8291 37.9895C38.3192 37.4191 37.8602 36.8164 37.5404 36.1251C37.3598 35.7336 37.2261 35.3286 37.2214 34.9002C37.2112 33.8407 37.2104 32.7811 37.2245 31.7215C37.2292 31.3548 37.2972 30.9911 37.4606 30.6515C37.6819 30.1931 38.0448 29.9226 38.5656 29.8384C38.8158 29.7986 39.0606 29.7993 39.31 29.8354C39.8855 29.9195 40.2765 30.2194 40.4986 30.7304C40.5721 30.901 40.6284 31.076 40.6526 31.2594C40.6917 31.5532 40.7214 31.8478 40.7199 32.1454C40.7144 33.3176 40.7175 34.4914 40.7175 35.6637C40.7175 35.7772 40.7152 35.8899 40.7199 36.0026C40.7277 36.1732 40.755 36.198 40.9263 36.2078C40.9404 36.2085 40.9553 36.2085 40.9701 36.2085C42.1462 36.2085 43.3223 36.2093 44.4991 36.207C44.6774 36.2063 44.7087 36.1732 44.7165 36.0161C44.7212 35.9312 44.7196 35.8463 44.7196 35.7614C44.7196 34.5185 44.7188 33.2748 44.7196 32.0319C44.7204 31.4375 44.7032 30.8446 44.618 30.2555C44.4983 29.4258 44.2958 28.6188 43.8986 27.8666C43.2644 26.665 42.2689 25.8835 40.9161 25.5333C40.2757 25.368 39.6314 25.2883 38.9839 25.2883C38.4647 25.2883 37.9439 25.3402 37.4223 25.4386Z" fill="url(#paint3_linear_288_13295)"/>
</g>
<mask id="mask4_288_13295" style="mask-type:luminance" maskUnits="userSpaceOnUse" x="87" y="25" width="11" height="33">
<path d="M87.5649 26.3417C87.5641 31.4426 87.5641 36.5428 87.5641 41.6429C87.5641 46.7295 87.5641 51.8161 87.5649 56.902C87.5649 57.0433 87.5688 57.1846 87.5774 57.3258C87.5805 57.3875 87.6267 57.4265 87.6924 57.431C87.7792 57.4371 87.8683 57.4416 87.9559 57.4416C89.0295 57.4423 90.1024 57.4416 91.176 57.4416C91.2488 57.4416 91.3231 57.4408 91.3958 57.4378C91.499 57.4348 91.56 57.3875 91.5623 57.2845C91.5639 57.1432 91.5662 57.002 91.5662 56.8607C91.5662 52.7074 91.5662 48.5533 91.5662 44.3992C91.5662 44.2723 91.5654 44.1453 91.5725 44.0175C91.5772 43.9364 91.635 43.8905 91.7164 43.886C91.8477 43.8785 91.9799 43.8762 92.1128 43.8762C93.5384 43.8755 94.9646 43.8755 96.3909 43.8755C96.4793 43.8755 96.5677 43.8762 96.6552 43.8755C97.0486 43.8717 97.0509 43.8717 97.0541 43.5125C97.0556 43.1872 97.0541 42.8625 97.0541 42.5371C97.0541 41.5625 97.0548 40.5878 97.0525 39.6132C97.0517 39.3885 97.0244 39.366 96.807 39.36C96.6889 39.3562 96.5716 39.3585 96.4543 39.3585C94.9248 39.3585 93.396 39.3592 91.8673 39.357C91.5733 39.357 91.5733 39.351 91.5662 39.0729C91.5654 39.0173 91.5662 38.9602 91.5662 38.9038C91.5662 36.1911 91.5662 33.4783 91.5662 30.7655C91.5662 30.6664 91.5639 30.5679 91.5701 30.4695C91.5779 30.338 91.6163 30.3041 91.7649 30.2981C91.8822 30.2929 92.0002 30.2951 92.1175 30.2951C93.8816 30.2951 95.6465 30.2951 97.4106 30.2944C97.5428 30.2944 97.6749 30.2929 97.8071 30.2876C97.8939 30.2831 97.9369 30.2313 97.9424 30.1516C97.9478 30.081 97.9494 30.0103 97.9494 29.9397C97.9502 28.6825 97.951 27.4253 97.9494 26.1681C97.9486 25.7969 97.9447 25.7969 97.5608 25.7924C97.5013 25.7916 97.4427 25.7924 97.384 25.7924C94.2961 25.7924 91.2089 25.7909 88.1217 25.7931C88.0599 25.7931 88.0059 25.7931 87.9582 25.7924C87.9121 25.7916 87.8714 25.7909 87.8355 25.7909C87.5227 25.7909 87.5649 25.8382 87.5649 26.3417Z" fill="white"/>
</mask>
<g mask="url(#mask4_288_13295)">
<path d="M87.5649 26.3417C87.5641 31.4426 87.5641 36.5428 87.5641 41.6429C87.5641 46.7295 87.5641 51.8161 87.5649 56.902C87.5649 57.0433 87.5688 57.1846 87.5774 57.3258C87.5805 57.3875 87.6267 57.4265 87.6924 57.431C87.7792 57.4371 87.8683 57.4416 87.9559 57.4416C89.0295 57.4423 90.1024 57.4416 91.176 57.4416C91.2488 57.4416 91.3231 57.4408 91.3958 57.4378C91.499 57.4348 91.56 57.3875 91.5623 57.2845C91.5639 57.1432 91.5662 57.002 91.5662 56.8607C91.5662 52.7074 91.5662 48.5533 91.5662 44.3992C91.5662 44.2723 91.5654 44.1453 91.5725 44.0175C91.5772 43.9364 91.635 43.8905 91.7164 43.886C91.8477 43.8785 91.9799 43.8762 92.1128 43.8762C93.5384 43.8755 94.9646 43.8755 96.3909 43.8755C96.4793 43.8755 96.5677 43.8762 96.6552 43.8755C97.0486 43.8717 97.0509 43.8717 97.0541 43.5125C97.0556 43.1872 97.0541 42.8625 97.0541 42.5371C97.0541 41.5625 97.0548 40.5878 97.0525 39.6132C97.0517 39.3885 97.0244 39.366 96.807 39.36C96.6889 39.3562 96.5716 39.3585 96.4543 39.3585C94.9248 39.3585 93.396 39.3592 91.8673 39.357C91.5733 39.357 91.5733 39.351 91.5662 39.0729C91.5654 39.0173 91.5662 38.9602 91.5662 38.9038C91.5662 36.1911 91.5662 33.4783 91.5662 30.7655C91.5662 30.6664 91.5639 30.5679 91.5701 30.4695C91.5779 30.338 91.6163 30.3041 91.7649 30.2981C91.8822 30.2929 92.0002 30.2951 92.1175 30.2951C93.8816 30.2951 95.6465 30.2951 97.4106 30.2944C97.5428 30.2944 97.6749 30.2929 97.8071 30.2876C97.8939 30.2831 97.9369 30.2313 97.9424 30.1516C97.9478 30.081 97.9494 30.0103 97.9494 29.9397C97.9502 28.6825 97.951 27.4253 97.9494 26.1681C97.9486 25.7969 97.9447 25.7969 97.5608 25.7924C97.5013 25.7916 97.4427 25.7924 97.384 25.7924C94.2961 25.7924 91.2089 25.7909 88.1217 25.7931C88.0599 25.7931 88.0059 25.7931 87.9582 25.7924C87.9121 25.7916 87.8714 25.7909 87.8355 25.7909C87.5227 25.7909 87.5649 25.8382 87.5649 26.3417Z" fill="url(#paint4_linear_288_13295)"/>
</g>
<mask id="mask5_288_13295" style="mask-type:luminance" maskUnits="userSpaceOnUse" x="-483" y="-159" width="659" height="358">
<path d="M-482.806 -158.726H175.523V198.672H-482.806V-158.726Z" fill="white"/>
</mask>
<g mask="url(#mask5_288_13295)">
<path d="M15.4374 3.1736C15.2764 3.18337 15.0011 3.20441 14.7259 3.21643C14.1112 3.24273 13.5068 3.33441 12.9054 3.45014C11.1953 3.78003 9.6595 4.49166 8.22772 5.43098C7.82188 5.697 7.44497 5.99833 7.0884 6.32296C6.70993 6.66938 6.36664 7.04587 6.06168 7.45391C5.90685 7.66131 5.78564 7.88599 5.82943 8.15051C5.88495 8.49242 6.03431 8.79676 6.28923 9.04775C6.44327 9.19954 6.63251 9.28972 6.85068 9.32654C7.31595 9.40469 7.73508 9.31827 8.09088 9.00792C8.23788 8.87942 8.38333 8.74792 8.5233 8.6119C8.81419 8.32785 9.11212 8.05282 9.44055 7.80935C12.0977 5.83527 15.0457 5.26791 18.2783 6.15313C19.4896 6.48453 20.5499 7.10072 21.5211 7.86345C21.8652 8.13398 22.2132 8.39924 22.5611 8.66526C22.7418 8.80353 22.9334 8.92226 23.1539 8.99665C24.0234 9.29272 24.907 8.65699 24.8719 7.82362C24.8562 7.4524 24.7311 7.13454 24.4621 6.86852C24.0664 6.47701 23.6481 6.10955 23.2039 5.76914C20.9659 4.0513 18.4073 3.20667 15.4374 3.1736ZM28.1929 7.87698C28.1592 10.1682 26.4929 11.6673 24.8351 12.0919C23.4518 12.4458 22.1592 12.2347 20.9698 11.4802C20.575 11.23 20.2129 10.9302 19.8368 10.6514C19.5459 10.4349 19.2628 10.2088 18.9657 10.0006C17.8998 9.2544 16.6988 8.91174 15.3866 8.93728C13.6835 8.9696 12.2275 9.57753 11.0146 10.7227C10.6643 11.0534 10.3163 11.3825 9.92224 11.6673C8.22537 12.8915 6.02258 12.7111 4.68776 11.8762C3.51794 11.1451 2.8478 10.0833 2.58662 8.78324C2.3536 7.62148 2.65309 6.56343 3.36077 5.60757C4.23422 4.42929 5.32194 3.46366 6.57074 2.66486C8.40132 1.49259 10.3766 0.650956 12.5528 0.273724C13.2777 0.148231 14.0064 0.0693274 14.7423 0.0257425C16.6315 -0.0847216 18.473 0.164762 20.27 0.711073C22.8372 1.49109 25.0353 2.84897 26.8964 4.71033C27.7753 5.58954 28.1843 6.66112 28.1929 7.87698Z" fill="#6764F5"/>
</g>
<mask id="mask6_288_13295" style="mask-type:luminance" maskUnits="userSpaceOnUse" x="46" y="25" width="12" height="33">
<path d="M57.2426 25.7936C53.7574 25.7913 50.2721 25.7928 46.7869 25.7928C46.6845 25.7928 46.5813 25.7906 46.4788 25.7936C46.2997 25.8003 46.2692 25.8274 46.2575 25.9867C46.252 26.0566 46.2536 26.1272 46.2536 26.1979C46.2536 27.4415 46.2536 28.6852 46.2544 29.9289C46.2544 30.013 46.2552 30.0987 46.2653 30.1821C46.2724 30.2445 46.3185 30.285 46.3826 30.2888C46.4999 30.2956 46.6172 30.2956 46.7345 30.2956C47.6471 30.2956 48.5581 30.2941 49.4706 30.2963C49.5246 30.2971 49.5738 30.2963 49.6184 30.2956C50.0634 30.2926 50.0078 30.2881 50.0078 30.8201C50.0094 35.1725 50.0086 39.5257 50.0086 43.8774C50.0086 48.2163 50.0086 52.5545 50.0086 56.8927C50.0086 57.0197 50.0062 57.1474 50.0125 57.2737C50.018 57.4059 50.0563 57.4397 50.2033 57.4495C50.2768 57.4555 50.3511 57.454 50.4238 57.454C51.4982 57.4548 52.5711 57.4548 53.6447 57.454C53.7183 57.454 53.7925 57.4548 53.8652 57.4488C53.9685 57.442 54.0248 57.3849 54.0264 57.2857C54.0303 57.1437 54.0311 57.0024 54.0311 56.8619C54.0311 48.1991 54.0311 39.5363 54.0311 30.8742C54.0311 30.7329 54.0303 30.5917 54.0373 30.4504C54.042 30.3504 54.1061 30.3008 54.2093 30.2993C54.3274 30.2971 54.4447 30.2956 54.562 30.2956C55.4746 30.2956 56.3855 30.2956 57.2981 30.2948C57.4146 30.2948 57.5327 30.2918 57.65 30.2858C57.7149 30.282 57.7594 30.2437 57.7626 30.1798C57.7696 30.0679 57.7735 29.9544 57.7735 29.8417C57.7743 28.6687 57.7759 27.4956 57.7727 26.3234C57.772 25.8349 57.8197 25.7913 57.5053 25.7913C57.4365 25.7913 57.3505 25.7936 57.2426 25.7936Z" fill="white"/>
</mask>
<g mask="url(#mask6_288_13295)">
<path d="M57.2426 25.7936C53.7574 25.7913 50.2721 25.7928 46.7869 25.7928C46.6845 25.7928 46.5813 25.7906 46.4788 25.7936C46.2997 25.8003 46.2692 25.8274 46.2575 25.9867C46.252 26.0566 46.2536 26.1272 46.2536 26.1979C46.2536 27.4415 46.2536 28.6852 46.2544 29.9289C46.2544 30.013 46.2552 30.0987 46.2653 30.1821C46.2724 30.2445 46.3185 30.285 46.3826 30.2888C46.4999 30.2956 46.6172 30.2956 46.7345 30.2956C47.6471 30.2956 48.5581 30.2941 49.4706 30.2963C49.5246 30.2971 49.5738 30.2963 49.6184 30.2956C50.0634 30.2926 50.0078 30.2881 50.0078 30.8201C50.0094 35.1725 50.0086 39.5257 50.0086 43.8774C50.0086 48.2163 50.0086 52.5545 50.0086 56.8927C50.0086 57.0197 50.0062 57.1474 50.0125 57.2737C50.018 57.4059 50.0563 57.4397 50.2033 57.4495C50.2768 57.4555 50.3511 57.454 50.4238 57.454C51.4982 57.4548 52.5711 57.4548 53.6447 57.454C53.7183 57.454 53.7925 57.4548 53.8652 57.4488C53.9685 57.442 54.0248 57.3849 54.0264 57.2857C54.0303 57.1437 54.0311 57.0024 54.0311 56.8619C54.0311 48.1991 54.0311 39.5363 54.0311 30.8742C54.0311 30.7329 54.0303 30.5917 54.0373 30.4504C54.042 30.3504 54.1061 30.3008 54.2093 30.2993C54.3274 30.2971 54.4447 30.2956 54.562 30.2956C55.4746 30.2956 56.3855 30.2956 57.2981 30.2948C57.4146 30.2948 57.5327 30.2918 57.65 30.2858C57.7149 30.282 57.7594 30.2437 57.7626 30.1798C57.7696 30.0679 57.7735 29.9544 57.7735 29.8417C57.7743 28.6687 57.7759 27.4956 57.7727 26.3234C57.772 25.8349 57.8197 25.7913 57.5053 25.7913C57.4365 25.7913 57.3505 25.7936 57.2426 25.7936Z" fill="url(#paint5_linear_288_13295)"/>
</g>
<mask id="mask7_288_13295" style="mask-type:luminance" maskUnits="userSpaceOnUse" x="99" y="25" width="5" height="33">
<path d="M100.41 25.7927C100.323 25.7927 100.234 25.795 100.146 25.7965C100.037 25.798 99.9897 25.8648 99.985 25.9588C99.978 26.0993 99.9788 26.2406 99.9788 26.3819C99.978 31.4692 99.978 36.5558 99.978 41.6425V53.5125C99.978 54.6705 99.978 55.8292 99.9788 56.988C99.9788 57.1007 99.9812 57.2142 99.9921 57.3269C99.9976 57.3863 100.048 57.4269 100.111 57.4344C100.184 57.4426 100.257 57.4419 100.331 57.4419C101.433 57.4419 102.536 57.4419 103.639 57.4419C103.713 57.4419 103.786 57.4419 103.86 57.4344C103.943 57.4261 103.991 57.3788 103.993 57.2969C103.998 57.1841 104 57.0707 104 56.9579C104 55.8698 104 54.7817 104 53.6936C104 44.5792 104 35.4655 104 26.3518C104 26.2105 103.999 26.0692 103.993 25.928C103.989 25.8468 103.936 25.8025 103.852 25.798C103.764 25.7935 103.675 25.7927 103.587 25.7927C103.057 25.7927 102.529 25.792 101.999 25.792C101.47 25.792 100.941 25.7927 100.41 25.7927Z" fill="white"/>
</mask>
<g mask="url(#mask7_288_13295)">
<path d="M100.41 25.7927C100.323 25.7927 100.234 25.795 100.146 25.7965C100.037 25.798 99.9897 25.8648 99.985 25.9588C99.978 26.0993 99.9788 26.2406 99.9788 26.3819C99.978 31.4692 99.978 36.5558 99.978 41.6425V53.5125C99.978 54.6705 99.978 55.8292 99.9788 56.988C99.9788 57.1007 99.9812 57.2142 99.9921 57.3269C99.9976 57.3863 100.048 57.4269 100.111 57.4344C100.184 57.4426 100.257 57.4419 100.331 57.4419C101.433 57.4419 102.536 57.4419 103.639 57.4419C103.713 57.4419 103.786 57.4419 103.86 57.4344C103.943 57.4261 103.991 57.3788 103.993 57.2969C103.998 57.1841 104 57.0707 104 56.9579C104 55.8698 104 54.7817 104 53.6936C104 44.5792 104 35.4655 104 26.3518C104 26.2105 103.999 26.0692 103.993 25.928C103.989 25.8468 103.936 25.8025 103.852 25.798C103.764 25.7935 103.675 25.7927 103.587 25.7927C103.057 25.7927 102.529 25.792 101.999 25.792C101.47 25.792 100.941 25.7927 100.41 25.7927Z" fill="url(#paint6_linear_288_13295)"/>
</g>
<mask id="mask8_288_13295" style="mask-type:luminance" maskUnits="userSpaceOnUse" x="-483" y="-159" width="659" height="358">
<path d="M-482.806 -158.726H175.523V198.672H-482.806V-158.726Z" fill="white"/>
</mask>
<g mask="url(#mask8_288_13295)">
<path d="M104 64.8449C104 65.9511 104 67.058 104 68.1641C103.999 68.3227 103.998 68.4805 103.991 68.6383C103.988 68.7533 103.918 68.8187 103.799 68.8194C103.408 68.8232 103.018 68.8269 102.628 68.8209C102.44 68.8187 102.395 68.7646 102.39 68.5556C102.384 68.2596 102.387 67.9627 102.387 67.6667C102.386 66.9753 102.389 66.2832 102.384 65.5919C102.382 65.3514 102.334 65.2973 102.109 65.2958C101.143 65.2913 100.176 65.2913 99.2098 65.2958C98.9736 65.2966 98.9244 65.3454 98.9228 65.5791C98.9173 66.4486 98.922 67.318 98.9189 68.1874C98.9165 68.8803 98.994 68.8239 98.2597 68.8262C98.0955 68.8262 97.9305 68.8277 97.7663 68.8254C97.3119 68.8202 97.3065 68.8194 97.3065 68.355C97.3041 66.0232 97.3057 63.6915 97.3057 61.3604C97.3057 61.2612 97.308 61.1628 97.3159 61.0644C97.3229 60.9802 97.3706 60.902 97.459 60.9005C97.8906 60.8938 98.3215 60.896 98.7531 60.8998C98.8477 60.9005 98.9001 60.9682 98.9056 61.0538C98.9158 61.2116 98.9189 61.3694 98.9189 61.5273C98.9204 62.2389 98.9173 62.9498 98.922 63.6614C98.9244 63.9109 98.9603 63.9492 99.1965 63.9507C100.183 63.9545 101.17 63.9515 102.157 63.9515C102.309 63.9515 102.383 63.8748 102.383 63.7328C102.385 63.0414 102.382 62.3494 102.388 61.658C102.396 60.7668 102.271 60.8968 103.218 60.8855C103.403 60.8833 103.588 60.8863 103.773 60.8885C103.925 60.89 103.993 60.9727 103.996 61.1109C104 61.2688 104 61.4266 104 61.5851C104 62.6717 104 63.7583 104 64.8449Z" fill="#6764F5"/>
<path d="M82.156 64.8029C82.156 63.717 82.156 62.6304 82.156 61.5446C82.1567 61.3867 82.1575 61.2289 82.1669 61.0711C82.1732 60.9592 82.2412 60.89 82.3593 60.881C82.4609 60.8735 82.5641 60.8758 82.6666 60.8758C83.8591 60.8758 85.0508 60.8758 86.2425 60.8758C86.3449 60.8758 86.4482 60.8742 86.5506 60.8818C86.6397 60.8878 86.7133 60.9389 86.7156 61.0253C86.7226 61.3792 86.7226 61.7339 86.7172 62.0886C86.7156 62.1773 86.6429 62.2299 86.5545 62.2351C86.3911 62.2442 86.2261 62.2449 86.0619 62.2449C85.3839 62.2472 84.7059 62.2472 84.028 62.2494C83.8849 62.2502 83.7926 62.3133 83.7926 62.4606C83.791 62.8949 83.7903 63.3293 83.7926 63.7636C83.7926 63.9139 83.8896 63.9688 84.0319 63.9688C84.6684 63.9703 85.3057 63.9703 85.9422 63.9725C86.1064 63.9725 86.2714 63.9725 86.4349 63.9808C86.524 63.9845 86.6006 64.0364 86.6022 64.1221C86.6108 64.476 86.6108 64.8307 86.6053 65.1854C86.6038 65.271 86.5357 65.3281 86.445 65.3334C86.3019 65.3424 86.1581 65.3439 86.0142 65.3439C85.3769 65.3454 84.7404 65.3417 84.1031 65.3477C83.8192 65.3499 83.7934 65.377 83.7895 65.6618C83.7824 66.1157 83.7824 66.5703 83.7879 67.0242C83.7934 67.454 83.8028 67.4645 84.2297 67.4683C84.8663 67.4736 85.5036 67.469 86.1401 67.4705C86.284 67.4705 86.4278 67.4728 86.5709 67.4811C86.6663 67.4863 86.7133 67.5487 86.725 67.6336C86.7328 67.6922 86.7375 67.7523 86.7336 67.811C86.7093 68.1228 86.793 68.4407 86.6812 68.7488C86.3692 68.8886 86.0392 68.8081 85.7186 68.8119C84.7325 68.8247 83.7457 68.8172 82.7596 68.8164C82.6165 68.8164 82.4719 68.8149 82.3296 68.8044C82.2396 68.7976 82.1779 68.7383 82.1716 68.6526C82.1599 68.4955 82.1567 68.3377 82.1567 68.1799C82.1552 67.0542 82.156 65.9286 82.156 64.8029Z" fill="#6764F5"/>
<path d="M95.2826 66.7449C95.2826 67.352 95.2795 67.8397 95.2842 68.3282C95.2858 68.4957 95.1818 68.5709 95.0418 68.631C94.4905 68.8685 93.9087 68.9977 93.309 69C90.9349 69.0067 89.3436 67.4377 88.9706 65.7326C88.442 63.3167 90.2867 60.9173 92.8476 60.7264C93.5991 60.6701 94.32 60.7663 95.0113 61.0676C95.206 61.1525 95.2928 61.266 95.2881 61.4734C95.278 61.943 95.285 62.4127 95.285 62.8884C95.0527 62.9192 94.9675 62.7546 94.8447 62.6689C94.4209 62.3699 93.9643 62.1767 93.431 62.1437C92.0234 62.058 90.949 62.9613 90.6417 64.1816C90.4884 64.7933 90.5314 65.3997 90.7801 65.9829C91.4682 67.5993 93.5068 68.0246 94.7869 67.1025C94.9167 67.0094 95.0465 66.9154 95.2826 66.7449Z" fill="#6764F5"/>
<path d="M76.5194 65.505V63.0146C76.5194 62.8959 76.521 62.7772 76.5187 62.6592C76.5108 62.2557 76.5108 62.2534 76.1183 62.2466C75.8516 62.2421 75.5842 62.2444 75.3168 62.2459C74.6459 62.2482 74.6724 62.279 74.6779 61.6372C74.6849 60.77 74.5833 60.8797 75.463 60.8767C76.7384 60.8722 78.0138 60.8752 79.2892 60.876C79.4534 60.876 79.6176 60.8752 79.7826 60.8797C79.8983 60.8828 79.9742 60.9361 79.9851 61.0548C79.9906 61.1134 80 61.1736 79.9953 61.2314C79.971 61.544 80.0547 61.8611 79.9437 62.1685C79.6348 62.3225 79.3032 62.2158 78.9826 62.2429C78.7989 62.2587 78.6128 62.2421 78.4274 62.2497C78.203 62.2594 78.1592 62.3068 78.1491 62.5442C78.1428 62.702 78.1459 62.8598 78.1459 63.0184C78.1459 64.7377 78.1459 66.4571 78.1451 68.1764C78.1451 68.335 78.142 68.4928 78.1326 68.6506C78.1272 68.7362 78.0709 68.8054 77.9802 68.8061C77.5493 68.8099 77.1176 68.8084 76.6868 68.8009C76.5976 68.7994 76.539 68.734 76.5327 68.6468C76.5233 68.5093 76.5202 68.3703 76.5202 68.2328C76.5187 67.3235 76.5194 66.4142 76.5194 65.505Z" fill="#6764F5"/>
</g>
<mask id="mask9_288_13295" style="mask-type:luminance" maskUnits="userSpaceOnUse" x="24" y="48" width="1" height="1">
<path d="M24.8403 48.8623H24.8745L24.8465 48.8562L24.8403 48.8623Z" fill="white"/>
</mask>
<g mask="url(#mask9_288_13295)">
<path d="M24.8403 48.8623H24.8745L24.8465 48.8562L24.8403 48.8623Z" fill="url(#paint7_linear_288_13295)"/>
</g>
<mask id="mask10_288_13295" style="mask-type:luminance" maskUnits="userSpaceOnUse" x="13" y="32" width="6" height="9">
<path d="M16.1146 32.4048C15.2982 35.1153 14.4827 37.8258 13.6679 40.5363C13.6295 40.6626 13.574 40.7866 13.6162 40.9218C13.9509 40.9744 18.2752 40.9895 18.918 40.9376C18.9359 40.761 18.8671 40.625 18.8257 40.4867C18.5324 39.4978 18.2314 38.5096 17.9342 37.5215C17.4189 35.8134 16.9036 34.1061 16.3891 32.3973C16.3578 32.2928 16.3492 32.1756 16.2202 32.0974C16.1811 32.2109 16.1435 32.3064 16.1146 32.4048Z" fill="white"/>
</mask>
<g mask="url(#mask10_288_13295)">
<path d="M16.1146 32.4048C15.2982 35.1153 14.4827 37.8258 13.6679 40.5363C13.6295 40.6626 13.574 40.7866 13.6162 40.9218C13.9509 40.9744 18.2752 40.9895 18.918 40.9376C18.9359 40.761 18.8671 40.625 18.8257 40.4867C18.5324 39.4978 18.2314 38.5096 17.9342 37.5215C17.4189 35.8134 16.9036 34.1061 16.3891 32.3973C16.3578 32.2928 16.3492 32.1756 16.2202 32.0974C16.1811 32.2109 16.1435 32.3064 16.1146 32.4048Z" fill="url(#paint8_linear_288_13295)"/>
</g>
</g>
<defs>
<linearGradient id="paint0_linear_288_13295" x1="-2.0634" y1="35.791" x2="103.999" y2="35.791" gradientUnits="userSpaceOnUse">
<stop stop-color="#9774F3"/>
<stop offset="1" stop-color="#6764F5"/>
</linearGradient>
<linearGradient id="paint1_linear_288_13295" x1="-2.06344" y1="41.6167" x2="103.999" y2="41.6167" gradientUnits="userSpaceOnUse">
<stop stop-color="#9774F3"/>
<stop offset="1" stop-color="#6764F5"/>
</linearGradient>
<linearGradient id="paint2_linear_288_13295" x1="-2.06351" y1="41.6238" x2="103.999" y2="41.6238" gradientUnits="userSpaceOnUse">
<stop stop-color="#9774F3"/>
<stop offset="1" stop-color="#6764F5"/>
</linearGradient>
<linearGradient id="paint3_linear_288_13295" x1="-2.06332" y1="41.6259" x2="103.999" y2="41.6259" gradientUnits="userSpaceOnUse">
<stop stop-color="#9774F3"/>
<stop offset="1" stop-color="#6764F5"/>
</linearGradient>
<linearGradient id="paint4_linear_288_13295" x1="-2.06366" y1="41.6163" x2="103.999" y2="41.6163" gradientUnits="userSpaceOnUse">
<stop stop-color="#9774F3"/>
<stop offset="1" stop-color="#6764F5"/>
</linearGradient>
<linearGradient id="paint5_linear_288_13295" x1="-2.06342" y1="41.6228" x2="103.999" y2="41.6228" gradientUnits="userSpaceOnUse">
<stop stop-color="#9774F3"/>
<stop offset="1" stop-color="#6764F5"/>
</linearGradient>
<linearGradient id="paint6_linear_288_13295" x1="-2.06337" y1="41.6175" x2="103.999" y2="41.6175" gradientUnits="userSpaceOnUse">
<stop stop-color="#9774F3"/>
<stop offset="1" stop-color="#6764F5"/>
</linearGradient>
<linearGradient id="paint7_linear_288_13295" x1="-1.85453" y1="48.8592" x2="103.384" y2="48.8592" gradientUnits="userSpaceOnUse">
<stop stop-color="#9774F3"/>
<stop offset="1" stop-color="#6764F5"/>
</linearGradient>
<linearGradient id="paint8_linear_288_13295" x1="-2.06328" y1="36.5338" x2="104" y2="36.5338" gradientUnits="userSpaceOnUse">
<stop stop-color="#9774F3"/>
<stop offset="1" stop-color="#6764F5"/>
</linearGradient>
<clipPath id="clip0_288_13295">
<rect width="104" height="69" fill="white"/>
</clipPath>
</defs>
</svg>
