<svg width="71" height="47" viewBox="0 0 71 47" fill="none" xmlns="http://www.w3.org/2000/svg">
<g clip-path="url(#clip0_466_29955)">
<mask id="mask0_466_29955" style="mask-type:luminance" maskUnits="userSpaceOnUse" x="0" y="9" width="23" height="31">
<path d="M10.2757 9.66143C7.63798 10.1943 6.47903 13.2593 8.29676 15.2863C8.52951 15.5448 8.53536 15.4547 8.39923 15.8069C7.79759 17.3563 7.19382 18.9057 6.59058 20.4551C4.51019 25.7979 2.43035 31.1407 0.351039 36.4841C0.248541 36.7467 0.135386 37.0072 0.056911 37.2769C-0.24204 38.3053 0.674568 39.3761 1.92109 39.1325C2.23979 39.0705 2.49336 38.9006 2.7416 38.7112C5.42041 36.6709 8.10083 34.6332 10.7813 32.5944C10.8795 32.5202 10.9798 32.4485 11.0722 32.3815C11.1838 32.4025 11.2494 32.4706 11.322 32.5263C13.4777 34.1653 15.6333 35.8048 17.789 37.4448C18.3869 37.8999 18.9869 38.3529 19.5832 38.8105C19.935 39.0802 20.3295 39.2026 20.7796 39.1667C21.4971 39.1094 22.1158 38.5233 22.1788 37.8359C22.2039 37.5615 22.1627 37.3 22.0608 37.0394C21.449 35.4829 20.8442 33.9237 20.2372 32.3646C18.0815 26.8242 15.9269 21.2833 13.7649 15.7449C13.6715 15.5049 13.6373 15.3083 13.8668 15.1343C14.5155 14.3132 14.7573 13.3919 14.5513 12.383C14.2208 10.7635 12.7399 9.58568 11.029 9.58568C10.7818 9.58568 10.5298 9.61024 10.2757 9.66143ZM5.15829 32.7879C5.87577 30.9375 6.59645 29.0887 7.31607 27.2393C8.51882 24.1502 9.72104 21.0622 10.9233 17.9736C10.9713 17.8517 11.0199 17.731 11.0754 17.5922C11.1832 17.669 11.1955 17.7821 11.2323 17.8758C11.6482 18.9359 12.0587 19.9975 12.4714 21.0586C13.9768 24.9262 15.4828 28.7938 16.9856 32.663C17.0299 32.7787 17.1212 32.8887 17.0747 33.0264C16.4667 32.5688 15.8586 32.1122 15.2527 31.6526C14.2192 30.8684 13.1868 30.0837 12.1559 29.296C11.6343 28.8978 11.0674 28.8184 10.4487 29.0493C10.2805 29.1122 10.1412 29.2182 10.0018 29.3241C9.15783 29.9665 8.31437 30.6084 7.46983 31.2503C6.75769 31.7928 6.04446 32.3349 5.33072 32.8759C5.26612 32.9251 5.21009 32.9886 5.11987 33.0065C5.06382 32.922 5.13266 32.855 5.15829 32.7879Z" fill="white"/>
</mask>
<g mask="url(#mask0_466_29955)">
<path d="M10.2757 9.66143C7.63798 10.1943 6.47903 13.2593 8.29676 15.2863C8.52951 15.5448 8.53536 15.4547 8.39923 15.8069C7.79759 17.3563 7.19382 18.9057 6.59058 20.4551C4.51019 25.7979 2.43035 31.1407 0.351039 36.4841C0.248541 36.7467 0.135386 37.0072 0.056911 37.2769C-0.24204 38.3053 0.674568 39.3761 1.92109 39.1325C2.23979 39.0705 2.49336 38.9006 2.7416 38.7112C5.42041 36.6709 8.10083 34.6332 10.7813 32.5944C10.8795 32.5202 10.9798 32.4485 11.0722 32.3815C11.1838 32.4025 11.2494 32.4706 11.322 32.5263C13.4777 34.1653 15.6333 35.8048 17.789 37.4448C18.3869 37.8999 18.9869 38.3529 19.5832 38.8105C19.935 39.0802 20.3295 39.2026 20.7796 39.1667C21.4971 39.1094 22.1158 38.5233 22.1788 37.8359C22.2039 37.5615 22.1627 37.3 22.0608 37.0394C21.449 35.4829 20.8442 33.9237 20.2372 32.3646C18.0815 26.8242 15.9269 21.2833 13.7649 15.7449C13.6715 15.5049 13.6373 15.3083 13.8668 15.1343C14.5155 14.3132 14.7573 13.3919 14.5513 12.383C14.2208 10.7635 12.7399 9.58568 11.029 9.58568C10.7818 9.58568 10.5298 9.61024 10.2757 9.66143ZM5.15829 32.7879C5.87577 30.9375 6.59645 29.0887 7.31607 27.2393C8.51882 24.1502 9.72104 21.0622 10.9233 17.9736C10.9713 17.8517 11.0199 17.731 11.0754 17.5922C11.1832 17.669 11.1955 17.7821 11.2323 17.8758C11.6482 18.9359 12.0587 19.9975 12.4714 21.0586C13.9768 24.9262 15.4828 28.7938 16.9856 32.663C17.0299 32.7787 17.1212 32.8887 17.0747 33.0264C16.4667 32.5688 15.8586 32.1122 15.2527 31.6526C14.2192 30.8684 13.1868 30.0837 12.1559 29.296C11.6343 28.8978 11.0674 28.8184 10.4487 29.0493C10.2805 29.1122 10.1412 29.2182 10.0018 29.3241C9.15783 29.9665 8.31437 30.6084 7.46983 31.2503C6.75769 31.7928 6.04446 32.3349 5.33072 32.8759C5.26612 32.9251 5.21009 32.9886 5.11987 33.0065C5.06382 32.922 5.13266 32.855 5.15829 32.7879Z" fill="url(#paint0_linear_466_29955)"/>
</g>
<mask id="mask1_466_29955" style="mask-type:luminance" maskUnits="userSpaceOnUse" x="40" y="17" width="10" height="23">
<path d="M40.6911 17.9433C40.69 21.4173 40.6905 24.8913 40.6905 28.3653C40.6905 31.8291 40.6905 35.2939 40.6905 38.7582C40.6905 38.8549 40.6927 38.9512 40.698 39.0469C40.7007 39.0889 40.73 39.1155 40.7754 39.1196C40.8256 39.1237 40.8752 39.1267 40.9254 39.1267C41.6781 39.1267 42.4308 39.1278 43.1836 39.1267C43.4152 39.1262 43.4152 39.1226 43.419 38.9031C43.42 38.836 43.419 38.7684 43.419 38.7009C43.419 35.8329 43.419 32.9654 43.419 30.0975C43.419 30.011 43.4168 29.9245 43.4206 29.838C43.4248 29.7213 43.4393 29.7074 43.5567 29.6875C43.7451 29.6557 43.7671 29.6685 43.8156 29.8323C43.8242 29.86 43.8284 29.8886 43.8354 29.9168C44.5192 32.5467 45.2031 35.1772 45.8864 37.8072C45.9884 38.1987 46.0887 38.5908 46.1928 38.9824C46.2254 39.1052 46.2484 39.1196 46.3791 39.1262C46.4192 39.1278 46.4597 39.1267 46.4998 39.1267C47.3128 39.1267 48.1253 39.1278 48.9384 39.1267C49.2298 39.1267 49.2314 39.1237 49.1498 38.8565C48.752 37.5558 48.3538 36.2557 47.955 34.9551C47.3844 33.0919 46.8126 31.2292 46.2419 29.3655C46.2222 29.3015 46.2019 29.237 46.1869 29.1715C46.1784 29.1316 46.1944 29.0947 46.2318 29.0732C46.266 29.0528 46.3028 29.0364 46.3386 29.0195C47.2802 28.5726 47.8493 27.8412 48.121 26.8809C48.2428 26.451 48.3047 26.0138 48.3063 25.5695C48.309 24.4051 48.3111 23.2406 48.31 22.0766C48.31 21.5371 48.2807 20.9991 48.168 20.4688C48.0666 19.9856 47.9166 19.5183 47.6619 19.0868C47.2637 18.4101 46.6786 17.9556 45.9003 17.7334C45.4828 17.6147 45.0557 17.5681 44.6217 17.5686C43.4377 17.5686 42.2536 17.5671 41.069 17.5691C41.0263 17.5696 40.9879 17.5691 40.9542 17.5686C40.9227 17.5681 40.8955 17.5676 40.8709 17.5676C40.6601 17.5676 40.6911 17.5998 40.6911 17.9433ZM43.4206 26.6798C43.4168 26.603 43.4185 26.5262 43.4185 26.4489C43.4185 25.5352 43.4185 24.6211 43.4185 23.7074C43.4185 22.8029 43.4185 21.8985 43.4185 20.9945C43.4185 20.9269 43.4169 20.8599 43.4195 20.7923C43.4243 20.6582 43.4403 20.6388 43.5743 20.6367C43.7291 20.6352 43.8845 20.6352 44.0398 20.6352C44.1354 20.6357 44.231 20.6357 44.3265 20.6352C44.4477 20.6347 44.5662 20.6485 44.6847 20.6705C45.0392 20.7365 45.2794 20.9331 45.4204 21.2469C45.5132 21.4521 45.5533 21.6697 45.5714 21.8908C45.5784 21.9768 45.5773 22.0638 45.5773 22.1503C45.5778 23.1991 45.5773 24.2474 45.5778 25.2962C45.5784 25.4892 45.5677 25.6801 45.5191 25.8685C45.4732 26.0481 45.4054 26.217 45.288 26.3655C45.091 26.6163 44.8347 26.777 44.5038 26.7934C44.184 26.8088 43.8626 26.8057 43.5412 26.8067C43.5407 26.8067 43.5402 26.8067 43.5391 26.8067C43.4478 26.8067 43.4248 26.777 43.4206 26.6798Z" fill="white"/>
</mask>
<g mask="url(#mask1_466_29955)">
<path d="M40.6911 17.9433C40.69 21.4173 40.6905 24.8913 40.6905 28.3653C40.6905 31.8291 40.6905 35.2939 40.6905 38.7582C40.6905 38.8549 40.6927 38.9512 40.698 39.0469C40.7007 39.0889 40.73 39.1155 40.7754 39.1196C40.8256 39.1237 40.8752 39.1267 40.9254 39.1267C41.6781 39.1267 42.4308 39.1278 43.1836 39.1267C43.4152 39.1262 43.4152 39.1226 43.419 38.9031C43.42 38.836 43.419 38.7684 43.419 38.7009C43.419 35.8329 43.419 32.9654 43.419 30.0975C43.419 30.011 43.4168 29.9245 43.4206 29.838C43.4248 29.7213 43.4393 29.7074 43.5567 29.6875C43.7451 29.6557 43.7671 29.6685 43.8156 29.8323C43.8242 29.86 43.8284 29.8886 43.8354 29.9168C44.5192 32.5467 45.2031 35.1772 45.8864 37.8072C45.9884 38.1987 46.0887 38.5908 46.1928 38.9824C46.2254 39.1052 46.2484 39.1196 46.3791 39.1262C46.4192 39.1278 46.4597 39.1267 46.4998 39.1267C47.3128 39.1267 48.1253 39.1278 48.9384 39.1267C49.2298 39.1267 49.2314 39.1237 49.1498 38.8565C48.752 37.5558 48.3538 36.2557 47.955 34.9551C47.3844 33.0919 46.8126 31.2292 46.2419 29.3655C46.2222 29.3015 46.2019 29.237 46.1869 29.1715C46.1784 29.1316 46.1944 29.0947 46.2318 29.0732C46.266 29.0528 46.3028 29.0364 46.3386 29.0195C47.2802 28.5726 47.8493 27.8412 48.121 26.8809C48.2428 26.451 48.3047 26.0138 48.3063 25.5695C48.309 24.4051 48.3111 23.2406 48.31 22.0766C48.31 21.5371 48.2807 20.9991 48.168 20.4688C48.0666 19.9856 47.9166 19.5183 47.6619 19.0868C47.2637 18.4101 46.6786 17.9556 45.9003 17.7334C45.4828 17.6147 45.0557 17.5681 44.6217 17.5686C43.4377 17.5686 42.2536 17.5671 41.069 17.5691C41.0263 17.5696 40.9879 17.5691 40.9542 17.5686C40.9227 17.5681 40.8955 17.5676 40.8709 17.5676C40.6601 17.5676 40.6911 17.5998 40.6911 17.9433ZM43.4206 26.6798C43.4168 26.603 43.4185 26.5262 43.4185 26.4489C43.4185 25.5352 43.4185 24.6211 43.4185 23.7074C43.4185 22.8029 43.4185 21.8985 43.4185 20.9945C43.4185 20.9269 43.4169 20.8599 43.4195 20.7923C43.4243 20.6582 43.4403 20.6388 43.5743 20.6367C43.7291 20.6352 43.8845 20.6352 44.0398 20.6352C44.1354 20.6357 44.231 20.6357 44.3265 20.6352C44.4477 20.6347 44.5662 20.6485 44.6847 20.6705C45.0392 20.7365 45.2794 20.9331 45.4204 21.2469C45.5132 21.4521 45.5533 21.6697 45.5714 21.8908C45.5784 21.9768 45.5773 22.0638 45.5773 22.1503C45.5778 23.1991 45.5773 24.2474 45.5778 25.2962C45.5784 25.4892 45.5677 25.6801 45.5191 25.8685C45.4732 26.0481 45.4054 26.217 45.288 26.3655C45.091 26.6163 44.8347 26.777 44.5038 26.7934C44.184 26.8088 43.8626 26.8057 43.5412 26.8067C43.5407 26.8067 43.5402 26.8067 43.5391 26.8067C43.4478 26.8067 43.4248 26.777 43.4206 26.6798Z" fill="url(#paint1_linear_466_29955)"/>
</g>
<mask id="mask2_466_29955" style="mask-type:luminance" maskUnits="userSpaceOnUse" x="50" y="17" width="8" height="23">
<path d="M52.6681 17.3968C51.7803 17.6266 51.1152 18.1359 50.6844 18.9201C50.5386 19.1847 50.4249 19.4616 50.3416 19.7498C50.1617 20.3753 50.0918 21.0136 50.0923 21.6621C50.0939 26.1174 50.0939 30.5737 50.0918 35.0294C50.0918 35.5121 50.1308 35.9907 50.2221 36.4642C50.3112 36.93 50.4548 37.3799 50.6886 37.7996C51.1007 38.5403 51.7221 39.0383 52.5597 39.2881C52.9452 39.4033 53.3407 39.4555 53.7433 39.4744C54.2686 39.4985 54.7864 39.4627 55.2946 39.3347C56.2635 39.0921 56.9741 38.5413 57.4134 37.6752C57.6035 37.3006 57.7268 36.9059 57.8106 36.4985C57.9158 35.9861 57.9457 35.4686 57.9451 34.948C57.9446 32.7537 57.9451 30.5593 57.9451 28.3655C57.9451 26.1808 57.9451 23.9962 57.9451 21.8116C57.9451 21.3878 57.9345 20.9655 57.8699 20.5447C57.7941 20.0472 57.6707 19.5635 57.4503 19.1054C57.02 18.2117 56.3126 17.6317 55.3165 17.3845C54.882 17.277 54.4464 17.2233 54.0118 17.2233C53.5628 17.2233 53.1144 17.2806 52.6681 17.3968ZM53.8276 36.3905C53.4374 36.3526 53.1544 36.1627 52.9895 35.8182C52.8699 35.5679 52.8432 35.2997 52.8245 35.031C52.8181 34.9347 52.8219 34.838 52.8219 34.7418C52.8219 30.48 52.8219 26.2172 52.8208 21.9544C52.8208 21.7328 52.8245 21.5116 52.8667 21.2936C52.8811 21.2178 52.8977 21.1421 52.9196 21.0684C53.0546 20.6113 53.3669 20.3548 53.8623 20.3036C54.0769 20.2811 54.2835 20.3113 54.4842 20.3768C54.7453 20.4613 54.9257 20.6353 55.0416 20.8728C55.1489 21.0945 55.1958 21.3299 55.2086 21.571C55.2177 21.7343 55.2156 21.8981 55.2156 22.0619C55.2161 24.159 55.2161 26.2571 55.2161 28.3547C55.2156 30.4907 55.2156 32.6267 55.2161 34.7627C55.2161 35.0038 55.2193 35.2444 55.159 35.4804C55.1334 35.5827 55.1062 35.6861 55.0645 35.7829C54.9033 36.156 54.6038 36.3551 54.1885 36.3915C54.1298 36.3966 54.07 36.3997 54.0102 36.3997C53.9493 36.3997 53.8879 36.3966 53.8276 36.3905Z" fill="white"/>
</mask>
<g mask="url(#mask2_466_29955)">
<path d="M52.6681 17.3968C51.7803 17.6266 51.1152 18.1359 50.6844 18.9201C50.5386 19.1847 50.4249 19.4616 50.3416 19.7498C50.1617 20.3753 50.0918 21.0136 50.0923 21.6621C50.0939 26.1174 50.0939 30.5737 50.0918 35.0294C50.0918 35.5121 50.1308 35.9907 50.2221 36.4642C50.3112 36.93 50.4548 37.3799 50.6886 37.7996C51.1007 38.5403 51.7221 39.0383 52.5597 39.2881C52.9452 39.4033 53.3407 39.4555 53.7433 39.4744C54.2686 39.4985 54.7864 39.4627 55.2946 39.3347C56.2635 39.0921 56.9741 38.5413 57.4134 37.6752C57.6035 37.3006 57.7268 36.9059 57.8106 36.4985C57.9158 35.9861 57.9457 35.4686 57.9451 34.948C57.9446 32.7537 57.9451 30.5593 57.9451 28.3655C57.9451 26.1808 57.9451 23.9962 57.9451 21.8116C57.9451 21.3878 57.9345 20.9655 57.8699 20.5447C57.7941 20.0472 57.6707 19.5635 57.4503 19.1054C57.02 18.2117 56.3126 17.6317 55.3165 17.3845C54.882 17.277 54.4464 17.2233 54.0118 17.2233C53.5628 17.2233 53.1144 17.2806 52.6681 17.3968ZM53.8276 36.3905C53.4374 36.3526 53.1544 36.1627 52.9895 35.8182C52.8699 35.5679 52.8432 35.2997 52.8245 35.031C52.8181 34.9347 52.8219 34.838 52.8219 34.7418C52.8219 30.48 52.8219 26.2172 52.8208 21.9544C52.8208 21.7328 52.8245 21.5116 52.8667 21.2936C52.8811 21.2178 52.8977 21.1421 52.9196 21.0684C53.0546 20.6113 53.3669 20.3548 53.8623 20.3036C54.0769 20.2811 54.2835 20.3113 54.4842 20.3768C54.7453 20.4613 54.9257 20.6353 55.0416 20.8728C55.1489 21.0945 55.1958 21.3299 55.2086 21.571C55.2177 21.7343 55.2156 21.8981 55.2156 22.0619C55.2161 24.159 55.2161 26.2571 55.2161 28.3547C55.2156 30.4907 55.2156 32.6267 55.2161 34.7627C55.2161 35.0038 55.2193 35.2444 55.159 35.4804C55.1334 35.5827 55.1062 35.6861 55.0645 35.7829C54.9033 36.156 54.6038 36.3551 54.1885 36.3915C54.1298 36.3966 54.07 36.3997 54.0102 36.3997C53.9493 36.3997 53.8879 36.3966 53.8276 36.3905Z" fill="url(#paint2_linear_466_29955)"/>
</g>
<mask id="mask3_466_29955" style="mask-type:luminance" maskUnits="userSpaceOnUse" x="22" y="17" width="9" height="23">
<path d="M25.5475 17.3277C24.373 17.5509 23.5573 18.1922 23.1019 19.2544C22.843 19.8573 22.7181 20.4895 22.6925 21.1375C22.6535 22.128 22.661 23.12 22.6845 24.1109C22.7079 25.1413 23.0165 26.099 23.5626 26.9871C24.0068 27.7078 24.5881 28.3148 25.2506 28.8544C25.7402 29.2546 26.2089 29.6749 26.629 30.1437C26.944 30.4944 27.2296 30.8655 27.4511 31.2785C27.6519 31.6512 27.7896 32.0427 27.7944 32.464C27.8029 33.3106 27.8019 34.1578 27.7939 35.0044C27.7912 35.2736 27.7554 35.5418 27.6412 35.7942C27.5083 36.0865 27.291 36.2851 26.9654 36.3603C26.7075 36.4197 26.4491 36.4192 26.1918 36.3465C25.9265 36.2718 25.7354 36.1121 25.6057 35.8817C25.5341 35.7543 25.4877 35.6166 25.4604 35.4738C25.4231 35.2844 25.4049 35.0934 25.4055 34.9C25.4081 34.0533 25.4065 33.2062 25.406 32.3591C25.406 32.2818 25.4038 32.205 25.3996 32.1287C25.3969 32.0852 25.3686 32.0591 25.3232 32.0555C25.2741 32.0509 25.2234 32.0484 25.1732 32.0484C24.4205 32.0479 23.6678 32.0479 22.9151 32.0479C22.8745 32.0479 22.8345 32.0489 22.7944 32.0499C22.7256 32.0509 22.6796 32.0786 22.6775 32.1507C22.6754 32.2275 22.6748 32.3043 22.6748 32.3816C22.6743 32.9114 22.6743 33.4406 22.6743 33.9699C22.6749 34.297 22.6732 34.6246 22.6748 34.9517C22.6764 35.356 22.6887 35.7594 22.7501 36.1607C22.8366 36.7263 22.984 37.273 23.2632 37.7812C23.671 38.524 24.2934 39.024 25.1273 39.2795C25.5117 39.3977 25.9073 39.452 26.3103 39.4729C26.8452 39.5011 27.3737 39.4653 27.8921 39.3353C28.8279 39.1013 29.5219 38.5736 29.9623 37.7444C30.0947 37.4956 30.1999 37.2356 30.2768 36.9658C30.4364 36.4059 30.5218 35.8356 30.5239 35.2557C30.5277 34.1874 30.526 33.1192 30.5255 32.0509C30.5255 31.8293 30.5042 31.6092 30.4759 31.3891C30.3451 30.3833 29.957 29.4773 29.3479 28.6547C28.9384 28.1014 28.4436 27.6249 27.907 27.1862C27.41 26.7803 26.9344 26.3524 26.5078 25.8768C26.1598 25.4883 25.8464 25.0778 25.6281 24.6069C25.5048 24.3402 25.4135 24.0643 25.4103 23.7726C25.4033 23.0509 25.4028 22.3291 25.4124 21.6074C25.4156 21.3576 25.462 21.1099 25.5736 20.8785C25.7247 20.5663 25.9724 20.382 26.3279 20.3247C26.4988 20.2975 26.6659 20.2981 26.8362 20.3226C27.2291 20.3799 27.496 20.5842 27.6476 20.9322C27.6978 21.0484 27.7362 21.1677 27.7528 21.2926C27.7794 21.4927 27.7997 21.6934 27.7987 21.8961C27.7949 22.6946 27.7971 23.4941 27.7971 24.2926C27.7971 24.3699 27.7955 24.4467 27.7987 24.5235C27.804 24.6397 27.8227 24.6566 27.9396 24.6632C27.9492 24.6637 27.9594 24.6637 27.9695 24.6637C28.7724 24.6637 29.5753 24.6642 30.3787 24.6627C30.5004 24.6622 30.5218 24.6397 30.5271 24.5327C30.5303 24.4749 30.5293 24.417 30.5293 24.3592C30.5293 23.5126 30.5287 22.6654 30.5293 21.8188C30.5298 21.4139 30.518 21.0101 30.4599 20.6088C30.3782 20.0437 30.2399 19.4939 29.9687 18.9815C29.5358 18.1631 28.8562 17.6307 27.9326 17.3922C27.4954 17.2796 27.0556 17.2253 26.6136 17.2253C26.2591 17.2253 25.9035 17.2607 25.5475 17.3277Z" fill="white"/>
</mask>
<g mask="url(#mask3_466_29955)">
<path d="M25.5475 17.3277C24.373 17.5509 23.5573 18.1922 23.1019 19.2544C22.843 19.8573 22.7181 20.4895 22.6925 21.1375C22.6535 22.128 22.661 23.12 22.6845 24.1109C22.7079 25.1413 23.0165 26.099 23.5626 26.9871C24.0068 27.7078 24.5881 28.3148 25.2506 28.8544C25.7402 29.2546 26.2089 29.6749 26.629 30.1437C26.944 30.4944 27.2296 30.8655 27.4511 31.2785C27.6519 31.6512 27.7896 32.0427 27.7944 32.464C27.8029 33.3106 27.8019 34.1578 27.7939 35.0044C27.7912 35.2736 27.7554 35.5418 27.6412 35.7942C27.5083 36.0865 27.291 36.2851 26.9654 36.3603C26.7075 36.4197 26.4491 36.4192 26.1918 36.3465C25.9265 36.2718 25.7354 36.1121 25.6057 35.8817C25.5341 35.7543 25.4877 35.6166 25.4604 35.4738C25.4231 35.2844 25.4049 35.0934 25.4055 34.9C25.4081 34.0533 25.4065 33.2062 25.406 32.3591C25.406 32.2818 25.4038 32.205 25.3996 32.1287C25.3969 32.0852 25.3686 32.0591 25.3232 32.0555C25.2741 32.0509 25.2234 32.0484 25.1732 32.0484C24.4205 32.0479 23.6678 32.0479 22.9151 32.0479C22.8745 32.0479 22.8345 32.0489 22.7944 32.0499C22.7256 32.0509 22.6796 32.0786 22.6775 32.1507C22.6754 32.2275 22.6748 32.3043 22.6748 32.3816C22.6743 32.9114 22.6743 33.4406 22.6743 33.9699C22.6749 34.297 22.6732 34.6246 22.6748 34.9517C22.6764 35.356 22.6887 35.7594 22.7501 36.1607C22.8366 36.7263 22.984 37.273 23.2632 37.7812C23.671 38.524 24.2934 39.024 25.1273 39.2795C25.5117 39.3977 25.9073 39.452 26.3103 39.4729C26.8452 39.5011 27.3737 39.4653 27.8921 39.3353C28.8279 39.1013 29.5219 38.5736 29.9623 37.7444C30.0947 37.4956 30.1999 37.2356 30.2768 36.9658C30.4364 36.4059 30.5218 35.8356 30.5239 35.2557C30.5277 34.1874 30.526 33.1192 30.5255 32.0509C30.5255 31.8293 30.5042 31.6092 30.4759 31.3891C30.3451 30.3833 29.957 29.4773 29.3479 28.6547C28.9384 28.1014 28.4436 27.6249 27.907 27.1862C27.41 26.7803 26.9344 26.3524 26.5078 25.8768C26.1598 25.4883 25.8464 25.0778 25.6281 24.6069C25.5048 24.3402 25.4135 24.0643 25.4103 23.7726C25.4033 23.0509 25.4028 22.3291 25.4124 21.6074C25.4156 21.3576 25.462 21.1099 25.5736 20.8785C25.7247 20.5663 25.9724 20.382 26.3279 20.3247C26.4988 20.2975 26.6659 20.2981 26.8362 20.3226C27.2291 20.3799 27.496 20.5842 27.6476 20.9322C27.6978 21.0484 27.7362 21.1677 27.7528 21.2926C27.7794 21.4927 27.7997 21.6934 27.7987 21.8961C27.7949 22.6946 27.7971 23.4941 27.7971 24.2926C27.7971 24.3699 27.7955 24.4467 27.7987 24.5235C27.804 24.6397 27.8227 24.6566 27.9396 24.6632C27.9492 24.6637 27.9594 24.6637 27.9695 24.6637C28.7724 24.6637 29.5753 24.6642 30.3787 24.6627C30.5004 24.6622 30.5218 24.6397 30.5271 24.5327C30.5303 24.4749 30.5293 24.417 30.5293 24.3592C30.5293 23.5126 30.5287 22.6654 30.5293 21.8188C30.5298 21.4139 30.518 21.0101 30.4599 20.6088C30.3782 20.0437 30.2399 19.4939 29.9687 18.9815C29.5358 18.1631 28.8562 17.6307 27.9326 17.3922C27.4954 17.2796 27.0556 17.2253 26.6136 17.2253C26.2591 17.2253 25.9035 17.2607 25.5475 17.3277Z" fill="url(#paint3_linear_466_29955)"/>
</g>
<mask id="mask4_466_29955" style="mask-type:luminance" maskUnits="userSpaceOnUse" x="59" y="17" width="8" height="23">
<path d="M59.7796 17.9428C59.7791 21.4173 59.7791 24.8913 59.7791 28.3653C59.7791 31.8301 59.7791 35.2949 59.7796 38.7592C59.7796 38.8554 59.7823 38.9517 59.7882 39.0479C59.7903 39.0899 59.8218 39.1165 59.8667 39.1196C59.9259 39.1237 59.9868 39.1267 60.0465 39.1267C60.7795 39.1272 61.512 39.1267 62.2449 39.1267C62.2946 39.1267 62.3453 39.1262 62.3949 39.1242C62.4654 39.1221 62.507 39.0899 62.5086 39.0197C62.5097 38.9235 62.5113 38.8273 62.5113 38.7311C62.5113 35.902 62.5113 33.0724 62.5113 30.2428C62.5113 30.1563 62.5108 30.0698 62.5156 29.9828C62.5188 29.9275 62.5583 29.8963 62.6138 29.8932C62.7035 29.8881 62.7937 29.8866 62.8845 29.8866C63.8577 29.8861 64.8314 29.8861 65.8051 29.8861C65.8654 29.8861 65.9257 29.8866 65.9855 29.8861C66.2541 29.8835 66.2557 29.8835 66.2578 29.6388C66.2589 29.4172 66.2578 29.1961 66.2578 28.9744C66.2578 28.3106 66.2583 27.6467 66.2567 26.9828C66.2562 26.8297 66.2375 26.8144 66.0891 26.8103C66.0085 26.8077 65.9284 26.8093 65.8484 26.8093C64.8042 26.8093 63.7605 26.8098 62.7168 26.8082C62.5161 26.8082 62.5161 26.8041 62.5113 26.6147C62.5108 26.5769 62.5113 26.538 62.5113 26.4996C62.5113 24.6518 62.5113 22.8039 62.5113 20.9561C62.5113 20.8885 62.5097 20.8215 62.514 20.7544C62.5193 20.6649 62.5455 20.6418 62.6469 20.6377C62.727 20.6341 62.8076 20.6357 62.8877 20.6357C64.092 20.6357 65.2969 20.6357 66.5012 20.6352C66.5914 20.6352 66.6817 20.6341 66.7719 20.6306C66.8312 20.6275 66.8605 20.5922 66.8642 20.5379C66.868 20.4898 66.8691 20.4417 66.8691 20.3936C66.8696 19.5372 66.8701 18.6809 66.8691 17.8245C66.8685 17.5717 66.8658 17.5717 66.6037 17.5686C66.5632 17.5681 66.5231 17.5686 66.4831 17.5686C64.3749 17.5686 62.2673 17.5676 60.1597 17.5691C60.1176 17.5691 60.0807 17.5691 60.0481 17.5686C60.0166 17.5681 59.9889 17.5676 59.9643 17.5676C59.7508 17.5676 59.7796 17.5998 59.7796 17.9428Z" fill="white"/>
</mask>
<g mask="url(#mask4_466_29955)">
<path d="M59.7796 17.9428C59.7791 21.4173 59.7791 24.8913 59.7791 28.3653C59.7791 31.8301 59.7791 35.2949 59.7796 38.7592C59.7796 38.8554 59.7823 38.9517 59.7882 39.0479C59.7903 39.0899 59.8218 39.1165 59.8667 39.1196C59.9259 39.1237 59.9868 39.1267 60.0465 39.1267C60.7795 39.1272 61.512 39.1267 62.2449 39.1267C62.2946 39.1267 62.3453 39.1262 62.3949 39.1242C62.4654 39.1221 62.507 39.0899 62.5086 39.0197C62.5097 38.9235 62.5113 38.8273 62.5113 38.7311C62.5113 35.902 62.5113 33.0724 62.5113 30.2428C62.5113 30.1563 62.5108 30.0698 62.5156 29.9828C62.5188 29.9275 62.5583 29.8963 62.6138 29.8932C62.7035 29.8881 62.7937 29.8866 62.8845 29.8866C63.8577 29.8861 64.8314 29.8861 65.8051 29.8861C65.8654 29.8861 65.9257 29.8866 65.9855 29.8861C66.2541 29.8835 66.2557 29.8835 66.2578 29.6388C66.2589 29.4172 66.2578 29.1961 66.2578 28.9744C66.2578 28.3106 66.2583 27.6467 66.2567 26.9828C66.2562 26.8297 66.2375 26.8144 66.0891 26.8103C66.0085 26.8077 65.9284 26.8093 65.8484 26.8093C64.8042 26.8093 63.7605 26.8098 62.7168 26.8082C62.5161 26.8082 62.5161 26.8041 62.5113 26.6147C62.5108 26.5769 62.5113 26.538 62.5113 26.4996C62.5113 24.6518 62.5113 22.8039 62.5113 20.9561C62.5113 20.8885 62.5097 20.8215 62.514 20.7544C62.5193 20.6649 62.5455 20.6418 62.6469 20.6377C62.727 20.6341 62.8076 20.6357 62.8877 20.6357C64.092 20.6357 65.2969 20.6357 66.5012 20.6352C66.5914 20.6352 66.6817 20.6341 66.7719 20.6306C66.8312 20.6275 66.8605 20.5922 66.8642 20.5379C66.868 20.4898 66.8691 20.4417 66.8691 20.3936C66.8696 19.5372 66.8701 18.6809 66.8691 17.8245C66.8685 17.5717 66.8658 17.5717 66.6037 17.5686C66.5632 17.5681 66.5231 17.5686 66.4831 17.5686C64.3749 17.5686 62.2673 17.5676 60.1597 17.5691C60.1176 17.5691 60.0807 17.5691 60.0481 17.5686C60.0166 17.5681 59.9889 17.5676 59.9643 17.5676C59.7508 17.5676 59.7796 17.5998 59.7796 17.9428Z" fill="url(#paint4_linear_466_29955)"/>
</g>
<mask id="mask5_466_29955" style="mask-type:luminance" maskUnits="userSpaceOnUse" x="-330" y="-109" width="450" height="245">
<path d="M-329.608 -108.118H119.828V135.327H-329.608V-108.118Z" fill="white"/>
</mask>
<g mask="url(#mask5_466_29955)">
<path d="M10.5382 2.16173C10.4282 2.16839 10.2403 2.18272 10.0524 2.19091C9.63281 2.20883 9.22015 2.27127 8.80963 2.3501C7.64211 2.57481 6.59365 3.05954 5.61618 3.69937C5.33912 3.88057 5.08181 4.08583 4.83838 4.30695C4.58 4.54292 4.34564 4.79936 4.13744 5.07731C4.03174 5.21858 3.949 5.37163 3.97889 5.5518C4.01679 5.7847 4.11876 5.992 4.29279 6.16297C4.39796 6.26636 4.52715 6.32779 4.67609 6.35287C4.99372 6.4061 5.27986 6.34724 5.52276 6.13584C5.62312 6.04831 5.72242 5.95873 5.81798 5.86609C6.01657 5.6726 6.21996 5.48526 6.44417 5.31942C8.25817 3.97475 10.2708 3.5883 12.4777 4.19127C13.3046 4.417 14.0285 4.83673 14.6915 5.35627C14.9264 5.54054 15.1639 5.72123 15.4015 5.90243C15.5248 5.99661 15.6556 6.07749 15.8062 6.12816C16.3998 6.32983 17.003 5.8968 16.979 5.32914C16.9683 5.07628 16.8829 4.85976 16.6993 4.67856C16.4291 4.41188 16.1435 4.16158 15.8403 3.92971C14.3125 2.75959 12.5657 2.18426 10.5382 2.16173ZM19.2462 5.36548C19.2233 6.92615 18.0857 7.94732 16.9539 8.23652C16.0095 8.47761 15.1271 8.33378 14.3151 7.81987C14.0455 7.64942 13.7984 7.44518 13.5416 7.25528C13.343 7.10787 13.1498 6.95379 12.9469 6.81201C12.2193 6.30373 11.3993 6.07032 10.5035 6.08772C9.3408 6.10973 8.34678 6.52383 7.5188 7.30391C7.27963 7.52913 7.04208 7.75332 6.77302 7.94732C5.61458 8.78114 4.11075 8.6583 3.19948 8.08962C2.40086 7.59158 1.94335 6.86831 1.76505 5.98279C1.60596 5.19145 1.81043 4.47075 2.29355 3.81966C2.88985 3.01706 3.63243 2.35931 4.48497 1.8152C5.7347 1.0167 7.08318 0.443411 8.56886 0.186456C9.06373 0.100975 9.56127 0.0472288 10.0636 0.0175409C11.3534 -0.057703 12.6106 0.112236 13.8373 0.484361C15.5899 1.01567 17.0906 1.94061 18.3611 3.20849C18.9612 3.80737 19.2404 4.53729 19.2462 5.36548Z" fill="#6764F5"/>
</g>
<mask id="mask6_466_29955" style="mask-type:luminance" maskUnits="userSpaceOnUse" x="31" y="17" width="9" height="23">
<path d="M39.0784 17.5693C36.6991 17.5678 34.3197 17.5688 31.9404 17.5688C31.8704 17.5688 31.8 17.5673 31.73 17.5693C31.6078 17.5739 31.587 17.5923 31.579 17.7009C31.5752 17.7485 31.5763 17.7966 31.5763 17.8447C31.5763 18.6918 31.5763 19.539 31.5768 20.3861C31.5768 20.4434 31.5774 20.5018 31.5843 20.5586C31.5891 20.6011 31.6206 20.6287 31.6644 20.6313C31.7445 20.6359 31.8246 20.6359 31.9046 20.6359C32.5276 20.6359 33.1495 20.6349 33.7725 20.6364C33.8094 20.6369 33.843 20.6364 33.8734 20.6359C34.1772 20.6338 34.1393 20.6308 34.1393 20.9932C34.1403 23.9579 34.1398 26.9231 34.1398 29.8873C34.1398 32.8428 34.1398 35.7978 34.1398 38.7527C34.1398 38.8393 34.1382 38.9263 34.1425 39.0123C34.1462 39.1024 34.1724 39.1254 34.2727 39.132C34.3229 39.1361 34.3736 39.1351 34.4233 39.1351C35.1568 39.1356 35.8892 39.1356 36.6222 39.1351C36.6724 39.1351 36.7231 39.1356 36.7727 39.1315C36.8432 39.1269 36.8816 39.088 36.8827 39.0205C36.8854 38.9237 36.8859 38.8275 36.8859 38.7318C36.8859 32.831 36.8859 26.9303 36.8859 21.03C36.8859 20.9338 36.8854 20.8376 36.8902 20.7413C36.8934 20.6732 36.9371 20.6395 37.0076 20.6384C37.0882 20.6369 37.1683 20.6359 37.2484 20.6359C37.8714 20.6359 38.4933 20.6359 39.1163 20.6354C39.1958 20.6354 39.2764 20.6333 39.3565 20.6292C39.4008 20.6267 39.4312 20.6006 39.4334 20.5571C39.4382 20.4808 39.4409 20.4035 39.4409 20.3267C39.4414 19.5277 39.4425 18.7287 39.4403 17.9302C39.4398 17.5975 39.4724 17.5678 39.2578 17.5678C39.2108 17.5678 39.1521 17.5693 39.0784 17.5693Z" fill="white"/>
</mask>
<g mask="url(#mask6_466_29955)">
<path d="M39.0784 17.5693C36.6991 17.5678 34.3197 17.5688 31.9404 17.5688C31.8704 17.5688 31.8 17.5673 31.73 17.5693C31.6078 17.5739 31.587 17.5923 31.579 17.7009C31.5752 17.7485 31.5763 17.7966 31.5763 17.8447C31.5763 18.6918 31.5763 19.539 31.5768 20.3861C31.5768 20.4434 31.5774 20.5018 31.5843 20.5586C31.5891 20.6011 31.6206 20.6287 31.6644 20.6313C31.7445 20.6359 31.8246 20.6359 31.9046 20.6359C32.5276 20.6359 33.1495 20.6349 33.7725 20.6364C33.8094 20.6369 33.843 20.6364 33.8734 20.6359C34.1772 20.6338 34.1393 20.6308 34.1393 20.9932C34.1403 23.9579 34.1398 26.9231 34.1398 29.8873C34.1398 32.8428 34.1398 35.7978 34.1398 38.7527C34.1398 38.8393 34.1382 38.9263 34.1425 39.0123C34.1462 39.1024 34.1724 39.1254 34.2727 39.132C34.3229 39.1361 34.3736 39.1351 34.4233 39.1351C35.1568 39.1356 35.8892 39.1356 36.6222 39.1351C36.6724 39.1351 36.7231 39.1356 36.7727 39.1315C36.8432 39.1269 36.8816 39.088 36.8827 39.0205C36.8854 38.9237 36.8859 38.8275 36.8859 38.7318C36.8859 32.831 36.8859 26.9303 36.8859 21.03C36.8859 20.9338 36.8854 20.8376 36.8902 20.7413C36.8934 20.6732 36.9371 20.6395 37.0076 20.6384C37.0882 20.6369 37.1683 20.6359 37.2484 20.6359C37.8714 20.6359 38.4933 20.6359 39.1163 20.6354C39.1958 20.6354 39.2764 20.6333 39.3565 20.6292C39.4008 20.6267 39.4312 20.6006 39.4334 20.5571C39.4382 20.4808 39.4409 20.4035 39.4409 20.3267C39.4414 19.5277 39.4425 18.7287 39.4403 17.9302C39.4398 17.5975 39.4724 17.5678 39.2578 17.5678C39.2108 17.5678 39.1521 17.5693 39.0784 17.5693Z" fill="url(#paint5_linear_466_29955)"/>
</g>
<mask id="mask7_466_29955" style="mask-type:luminance" maskUnits="userSpaceOnUse" x="68" y="17" width="3" height="23">
<path d="M68.5491 17.5688C68.4893 17.5688 68.429 17.5703 68.3687 17.5714C68.2945 17.5724 68.2619 17.618 68.2587 17.6819C68.2539 17.7777 68.2544 17.8739 68.2544 17.9701C68.2539 21.4354 68.2539 24.9002 68.2539 28.365V36.4504C68.2539 37.2392 68.2539 38.0285 68.2544 38.8178C68.2544 38.8946 68.256 38.9718 68.2635 39.0486C68.2673 39.0891 68.3019 39.1167 68.3447 39.1218C68.3943 39.1275 68.4445 39.1269 68.4947 39.1269C69.2474 39.1269 70.0001 39.1269 70.7534 39.1269C70.8035 39.1269 70.8537 39.1269 70.9039 39.1218C70.9605 39.1162 70.9936 39.0839 70.9952 39.0282C70.9984 38.9514 70.9995 38.8741 70.9995 38.7973C70.9995 38.0561 70.9995 37.315 70.9995 36.5738C70.9995 30.3654 70.9995 24.1575 70.9995 17.9496C70.9995 17.8534 70.9989 17.7572 70.9946 17.6609C70.992 17.6057 70.9557 17.5755 70.8985 17.5724C70.8382 17.5693 70.7779 17.5688 70.7176 17.5688C70.3562 17.5688 69.9953 17.5683 69.6339 17.5683C69.2725 17.5683 68.9111 17.5688 68.5491 17.5688Z" fill="white"/>
</mask>
<g mask="url(#mask7_466_29955)">
<path d="M68.5491 17.5688C68.4893 17.5688 68.429 17.5703 68.3687 17.5714C68.2945 17.5724 68.2619 17.618 68.2587 17.6819C68.2539 17.7777 68.2544 17.8739 68.2544 17.9701C68.2539 21.4354 68.2539 24.9002 68.2539 28.365V36.4504C68.2539 37.2392 68.2539 38.0285 68.2544 38.8178C68.2544 38.8946 68.256 38.9718 68.2635 39.0486C68.2673 39.0891 68.3019 39.1167 68.3447 39.1218C68.3943 39.1275 68.4445 39.1269 68.4947 39.1269C69.2474 39.1269 70.0001 39.1269 70.7534 39.1269C70.8035 39.1269 70.8537 39.1269 70.9039 39.1218C70.9605 39.1162 70.9936 39.0839 70.9952 39.0282C70.9984 38.9514 70.9995 38.8741 70.9995 38.7973C70.9995 38.0561 70.9995 37.315 70.9995 36.5738C70.9995 30.3654 70.9995 24.1575 70.9995 17.9496C70.9995 17.8534 70.9989 17.7572 70.9946 17.6609C70.992 17.6057 70.9557 17.5755 70.8985 17.5724C70.8382 17.5693 70.7779 17.5688 70.7176 17.5688C70.3562 17.5688 69.9953 17.5683 69.6339 17.5683C69.2725 17.5683 68.9111 17.5688 68.5491 17.5688Z" fill="url(#paint6_linear_466_29955)"/>
</g>
<mask id="mask8_466_29955" style="mask-type:luminance" maskUnits="userSpaceOnUse" x="-330" y="-109" width="450" height="245">
<path d="M-329.608 -108.118H119.828V135.327H-329.608V-108.118Z" fill="white"/>
</mask>
<g mask="url(#mask8_466_29955)">
<path d="M70.9993 44.1697C70.9993 44.9231 70.9993 45.6771 70.9993 46.4306C70.9987 46.5386 70.9977 46.646 70.9934 46.7535C70.9907 46.8319 70.9432 46.8764 70.8621 46.8769C70.5952 46.8795 70.3288 46.882 70.0624 46.8779C69.9343 46.8764 69.9033 46.8395 69.9001 46.6972C69.8958 46.4956 69.898 46.2934 69.898 46.0917C69.8974 45.6208 69.8996 45.1494 69.8958 44.6784C69.8948 44.5146 69.8617 44.4778 69.7085 44.4768C69.0486 44.4737 68.3888 44.4737 67.729 44.4768C67.5677 44.4773 67.5341 44.5106 67.533 44.6697C67.5293 45.262 67.5325 45.8542 67.5304 46.4464C67.5288 46.9184 67.5816 46.88 67.0803 46.8815C66.9682 46.8815 66.8556 46.8825 66.7435 46.881C66.4333 46.8774 66.4296 46.8769 66.4296 46.5606C66.428 44.9723 66.4291 43.3839 66.4291 41.7961C66.4291 41.7286 66.4307 41.6615 66.436 41.5945C66.4408 41.5371 66.4734 41.4839 66.5337 41.4829C66.8284 41.4783 67.1225 41.4798 67.4172 41.4824C67.4818 41.4829 67.5176 41.529 67.5213 41.5873C67.5282 41.6948 67.5304 41.8023 67.5304 41.9098C67.5314 42.3945 67.5293 42.8787 67.5325 43.3635C67.5341 43.5334 67.5587 43.5595 67.7199 43.5605C68.3936 43.5631 69.0673 43.561 69.741 43.561C69.8446 43.561 69.8953 43.5088 69.8953 43.4121C69.8969 42.9412 69.8948 42.4698 69.8985 41.9988C69.9038 41.3918 69.819 41.4803 70.4654 41.4726C70.5914 41.4711 70.7179 41.4732 70.8439 41.4747C70.948 41.4757 70.9945 41.532 70.9966 41.6262C70.9993 41.7337 70.9993 41.8412 70.9993 41.9492C70.9993 42.6893 70.9993 43.4295 70.9993 44.1697Z" fill="#6764F5"/>
<path d="M56.087 44.1411C56.087 43.4014 56.087 42.6613 56.087 41.9216C56.0876 41.8142 56.0881 41.7067 56.0945 41.5992C56.0988 41.5229 56.1452 41.4758 56.2258 41.4697C56.2952 41.4646 56.3657 41.4661 56.4356 41.4661C57.2498 41.4661 58.0633 41.4661 58.8769 41.4661C58.9468 41.4661 59.0173 41.4651 59.0872 41.4702C59.1481 41.4743 59.1983 41.5091 59.1999 41.568C59.2047 41.809 59.2047 42.0506 59.2009 42.2922C59.1999 42.3526 59.1502 42.3885 59.0899 42.3921C58.9783 42.3982 58.8657 42.3987 58.7536 42.3987C58.2907 42.4002 57.8279 42.4002 57.3651 42.4018C57.2674 42.4023 57.2044 42.4453 57.2044 42.5456C57.2033 42.8415 57.2028 43.1373 57.2044 43.4332C57.2044 43.5356 57.2706 43.5729 57.3677 43.5729C57.8023 43.5739 58.2374 43.5739 58.6719 43.5755C58.784 43.5755 58.8967 43.5755 59.0082 43.5811C59.0691 43.5837 59.1214 43.619 59.1225 43.6773C59.1283 43.9184 59.1283 44.16 59.1246 44.4016C59.1235 44.46 59.0771 44.4989 59.0152 44.5025C58.9175 44.5086 58.8193 44.5096 58.721 44.5096C58.2859 44.5107 57.8514 44.5081 57.4163 44.5122C57.2225 44.5137 57.2049 44.5322 57.2022 44.7261C57.1974 45.0353 57.1974 45.345 57.2012 45.6542C57.2049 45.9469 57.2113 45.9541 57.5028 45.9567C57.9373 45.9602 58.3724 45.9572 58.807 45.9582C58.9052 45.9582 59.0034 45.9597 59.1011 45.9654C59.1662 45.9689 59.1983 46.0114 59.2063 46.0693C59.2116 46.1092 59.2148 46.1501 59.2122 46.1901C59.1956 46.4025 59.2527 46.619 59.1764 46.8289C58.9634 46.9241 58.7381 46.8693 58.5192 46.8719C57.8461 46.8806 57.1723 46.8755 56.4992 46.8749C56.4015 46.8749 56.3027 46.8739 56.2056 46.8668C56.1442 46.8621 56.102 46.8217 56.0977 46.7634C56.0897 46.6564 56.0876 46.5489 56.0876 46.4414C56.0865 45.6746 56.087 44.9079 56.087 44.1411Z" fill="#6764F5"/>
<path d="M65.0479 45.4639C65.0479 45.8775 65.0457 46.2097 65.0489 46.5424C65.05 46.6565 64.979 46.7077 64.8835 46.7487C64.5071 46.9104 64.1099 46.9984 63.7005 47C62.0797 47.0046 60.9933 45.9358 60.7387 44.7744C60.3778 43.1288 61.6372 41.4944 63.3855 41.3644C63.8985 41.326 64.3907 41.3915 64.8626 41.5968C64.9956 41.6546 65.0548 41.7319 65.0516 41.8732C65.0447 42.1931 65.0495 42.513 65.0495 42.837C64.8909 42.858 64.8327 42.7459 64.7489 42.6875C64.4596 42.4838 64.1478 42.3523 63.7837 42.3297C62.8228 42.2714 62.0893 42.8867 61.8795 43.7179C61.7749 44.1346 61.8043 44.5477 61.974 44.9449C62.4438 46.0459 63.8355 46.3356 64.7094 45.7075C64.798 45.6441 64.8867 45.5801 65.0479 45.4639Z" fill="#6764F5"/>
<path d="M52.2388 44.6194V42.9231C52.2388 42.8422 52.2399 42.7614 52.2383 42.681C52.2329 42.4061 52.2329 42.4046 51.9649 42.4C51.7829 42.3969 51.6003 42.3985 51.4177 42.3995C50.9597 42.401 50.9779 42.422 50.9816 41.9849C50.9864 41.3942 50.917 41.4689 51.5176 41.4669C52.3883 41.4638 53.259 41.4658 54.1297 41.4663C54.2418 41.4663 54.3539 41.4658 54.4665 41.4689C54.5455 41.471 54.5973 41.5073 54.6048 41.5882C54.6085 41.6281 54.6149 41.669 54.6117 41.7085C54.5952 41.9214 54.6523 42.1374 54.5765 42.3468C54.3656 42.4517 54.1393 42.379 53.9204 42.3974C53.7949 42.4082 53.6679 42.3969 53.5414 42.402C53.3881 42.4087 53.3583 42.4409 53.3513 42.6027C53.347 42.7102 53.3492 42.8177 53.3492 42.9257C53.3492 44.0968 53.3492 45.268 53.3486 46.4391C53.3486 46.5471 53.3465 46.6546 53.3401 46.7621C53.3364 46.8204 53.2979 46.8675 53.236 46.868C52.9419 46.8706 52.6472 46.8696 52.353 46.8645C52.2922 46.8634 52.2521 46.8189 52.2479 46.7595C52.2415 46.6659 52.2393 46.5712 52.2393 46.4775C52.2383 45.8581 52.2388 45.2388 52.2388 44.6194Z" fill="#6764F5"/>
</g>
<mask id="mask9_466_29955" style="mask-type:luminance" maskUnits="userSpaceOnUse" x="16" y="33" width="1" height="1">
<path d="M16.958 33.283H16.9813L16.9622 33.2788L16.958 33.283Z" fill="white"/>
</mask>
<g mask="url(#mask9_466_29955)">
<path d="M16.958 33.283H16.9813L16.9622 33.2788L16.958 33.283Z" fill="url(#paint7_linear_466_29955)"/>
</g>
<mask id="mask10_466_29955" style="mask-type:luminance" maskUnits="userSpaceOnUse" x="9" y="21" width="4" height="7">
<path d="M11.0011 22.0727C10.4438 23.9189 9.88701 25.7652 9.33074 27.6115C9.30459 27.6975 9.26666 27.782 9.29549 27.8741C9.52397 27.9099 12.4761 27.9202 12.915 27.8849C12.9272 27.7646 12.8802 27.6719 12.8519 27.5777C12.6517 26.9041 12.4462 26.231 12.2434 25.5579C11.8916 24.3945 11.5398 23.2315 11.1885 22.0675C11.1671 21.9964 11.1613 21.9165 11.0732 21.8633C11.0465 21.9406 11.0209 22.0056 11.0011 22.0727Z" fill="white"/>
</mask>
<g mask="url(#mask10_466_29955)">
<path d="M11.0011 22.0727C10.4438 23.9189 9.88701 25.7652 9.33074 27.6115C9.30459 27.6975 9.26666 27.782 9.29549 27.8741C9.52397 27.9099 12.4761 27.9202 12.915 27.8849C12.9272 27.7646 12.8802 27.6719 12.8519 27.5777C12.6517 26.9041 12.4462 26.231 12.2434 25.5579C11.8916 24.3945 11.5398 23.2315 11.1885 22.0675C11.1671 21.9964 11.1613 21.9165 11.0732 21.8633C11.0465 21.9406 11.0209 22.0056 11.0011 22.0727Z" fill="url(#paint8_linear_466_29955)"/>
</g>
</g>
<defs>
<linearGradient id="paint0_linear_466_29955" x1="-1.40866" y1="24.3793" x2="70.9994" y2="24.3793" gradientUnits="userSpaceOnUse">
<stop stop-color="#9774F3"/>
<stop offset="1" stop-color="#6764F5"/>
</linearGradient>
<linearGradient id="paint1_linear_466_29955" x1="-1.40943" y1="28.3474" x2="70.9986" y2="28.3474" gradientUnits="userSpaceOnUse">
<stop stop-color="#9774F3"/>
<stop offset="1" stop-color="#6764F5"/>
</linearGradient>
<linearGradient id="paint2_linear_466_29955" x1="-1.40916" y1="28.3522" x2="70.999" y2="28.3522" gradientUnits="userSpaceOnUse">
<stop stop-color="#9774F3"/>
<stop offset="1" stop-color="#6764F5"/>
</linearGradient>
<linearGradient id="paint3_linear_466_29955" x1="-1.40909" y1="28.3538" x2="70.9991" y2="28.3538" gradientUnits="userSpaceOnUse">
<stop stop-color="#9774F3"/>
<stop offset="1" stop-color="#6764F5"/>
</linearGradient>
<linearGradient id="paint4_linear_466_29955" x1="-1.40911" y1="28.3472" x2="70.9992" y2="28.3472" gradientUnits="userSpaceOnUse">
<stop stop-color="#9774F3"/>
<stop offset="1" stop-color="#6764F5"/>
</linearGradient>
<linearGradient id="paint5_linear_466_29955" x1="-1.40936" y1="28.3515" x2="70.9987" y2="28.3515" gradientUnits="userSpaceOnUse">
<stop stop-color="#9774F3"/>
<stop offset="1" stop-color="#6764F5"/>
</linearGradient>
<linearGradient id="paint6_linear_466_29955" x1="-1.40897" y1="28.348" x2="70.9993" y2="28.348" gradientUnits="userSpaceOnUse">
<stop stop-color="#9774F3"/>
<stop offset="1" stop-color="#6764F5"/>
</linearGradient>
<linearGradient id="paint7_linear_466_29955" x1="-1.26637" y1="33.2809" x2="70.5795" y2="33.2809" gradientUnits="userSpaceOnUse">
<stop stop-color="#9774F3"/>
<stop offset="1" stop-color="#6764F5"/>
</linearGradient>
<linearGradient id="paint8_linear_466_29955" x1="-1.40878" y1="24.8852" x2="70.9996" y2="24.8852" gradientUnits="userSpaceOnUse">
<stop stop-color="#9774F3"/>
<stop offset="1" stop-color="#6764F5"/>
</linearGradient>
<clipPath id="clip0_466_29955">
<rect width="71" height="47" fill="white"/>
</clipPath>
</defs>
</svg>
