<svg width="137" height="34" viewBox="0 0 137 34" fill="none" xmlns="http://www.w3.org/2000/svg">
<path d="M15.5906 33.6853C14.7246 33.5261 13.84 33.3789 12.974 33.2085C12.6668 33.1471 12.3595 33.0372 11.9405 32.9143C13.6631 30.4672 14.2591 27.6169 14.9109 24.9137C15.6372 25.3663 16.3076 25.965 17.0805 26.222C19.5947 27.0302 21.8295 26.2713 23.757 24.558C25.8428 22.7115 26.7833 20.2644 27.0906 17.5119C27.3699 15.0526 26.9229 12.7527 25.4983 10.7218C23.6173 8.04188 21.0007 6.72055 17.8161 6.53711C14.7246 6.36577 11.8753 7.05111 9.50079 9.21608C6.09272 12.2992 5.3571 17.8666 7.91781 21.4637C8.34614 22.0746 8.98865 22.5271 9.5846 23.0048C9.92913 23.286 10.2271 23.1761 10.2923 22.6742C10.3109 22.6007 10.3388 22.5271 10.3668 22.4545C10.6554 21.4637 10.6648 20.6192 10.1247 19.579C8.01092 15.5052 10.702 10.3176 15.1809 9.59599C17.7044 9.19187 20.0137 9.6202 21.8388 11.6148C22.7141 12.5562 23.2262 13.7062 23.3752 14.9791C23.6545 17.3284 23.3659 19.5911 22.0716 21.6099C21.1683 23.0169 19.9112 23.8978 18.1886 23.8C16.6335 23.7023 15.6372 22.3558 16.0376 20.8026C16.3821 19.4319 16.7918 18.0864 17.1364 16.7287C17.276 16.2268 17.3226 15.7007 17.3319 15.1746C17.3412 14.3058 17.0619 13.5479 16.2518 13.1558C15.4416 12.7527 14.6129 12.8504 13.8866 13.4007C12.8064 14.2081 12.3874 15.3823 12.3409 16.6794C12.3222 17.3889 12.406 18.1236 12.5923 18.7959C12.7319 19.3341 12.7506 19.7988 12.6202 20.3258C12.0615 22.6985 11.5121 25.072 10.9627 27.4334C10.6275 28.8898 10.6648 30.3573 10.7858 31.8258C10.7951 32.0213 10.8231 32.2047 10.8417 32.486C10.4971 32.3398 10.1992 32.2411 9.92913 32.0949C4.58423 29.3665 1.39963 24.9863 0.66401 18.9188C-0.378898 10.3055 5.31985 2.35337 13.6072 0.653061C22.5092 -1.18227 31.2622 4.98392 32.7614 14.1596C34.2326 23.2618 28.5339 31.6544 19.6691 33.392C19.0732 33.514 18.4772 33.5754 17.8813 33.6732C17.1084 33.6853 16.3449 33.6853 15.5906 33.6853Z" fill="#A7A3B7"/>
<path d="M43.3207 10.8439V15.7865C44.6895 15.7865 46.0211 15.8843 47.3154 15.7623C48.5445 15.6394 49.2243 14.6244 49.2243 13.2789C49.2243 11.9697 48.5538 11.0031 47.3154 10.8802C46.0211 10.7461 44.6895 10.8439 43.3207 10.8439ZM43.2834 19.6034V26.0508H38.9814V6.81844C39.1491 6.79423 39.298 6.77002 39.4377 6.77002C42.0077 6.77002 44.5964 6.72067 47.1664 6.80634C49.7271 6.892 51.785 7.98147 52.8745 10.5012C54.1781 13.4865 53.3866 18.0008 49.3081 19.2486C48.4887 19.4935 47.5947 19.5428 46.7381 19.5792C45.602 19.6527 44.4846 19.6034 43.2834 19.6034Z" fill="#A7A3B7"/>
<path d="M111.808 17.6828C111.864 16.1287 110.654 14.893 109.182 14.9423C107.711 15.0038 106.501 16.2879 106.631 17.6828H111.808ZM116.259 20.2891H111.315H106.556C106.519 21.549 107.32 22.7967 108.409 23.1878C109.406 23.5426 111.007 23.4821 111.687 22.2222C111.743 22.1114 111.911 22.0015 112.041 22.0015C113.307 21.9894 114.564 21.9894 115.924 21.9894C115.831 22.2948 115.794 22.5397 115.701 22.7604C114.648 25.0474 112.805 26.1611 110.439 26.4423C109.005 26.6136 107.59 26.4795 106.268 25.8426C103.595 24.5706 102.441 22.2948 102.31 19.371C102.152 16.1538 103.977 13.242 106.799 12.2755C110.281 11.064 114.965 12.2755 115.98 17.8299C116.12 18.6 116.166 19.3952 116.259 20.2891Z" fill="#A7A3B7"/>
<path d="M89.3859 17.6948C89.3208 16.0187 88.1754 14.8808 86.7135 14.9544C85.2329 15.027 84.0783 16.2636 84.1621 17.6948H89.3859ZM93.8555 20.3002H84.1155C84.0783 21.5359 84.8977 22.7967 85.9872 23.1878C87.2722 23.6524 88.4362 23.3107 89.2276 22.2455C89.3208 22.1235 89.4884 21.9894 89.6187 21.9894C90.8758 21.9642 92.1515 21.9763 93.5296 21.9763C93.3807 22.3805 93.2968 22.7231 93.1292 23.0407C92.0211 25.1572 90.224 26.2346 87.9613 26.418C86.8997 26.5037 85.7823 26.4301 84.758 26.161C82.4487 25.5492 80.8937 23.9951 80.2326 21.6216C79.4411 18.7471 79.8322 16.0923 81.8994 13.8407C84.758 10.7334 91.7604 10.8312 93.362 17.071C93.6134 18.0859 93.6786 19.1624 93.8555 20.3002Z" fill="#A7A3B7"/>
<path d="M63.5365 26.0754H59.3276V12.3118H63.3782V14.2328C63.5924 13.988 63.7134 13.8781 63.8066 13.7552C65.1009 12.0912 67.1029 11.4552 69.1608 12.067C70.93 12.581 72.1964 14.1472 72.2709 16.2758C72.3919 19.4325 72.3454 22.5882 72.364 25.757C72.364 25.8548 72.3547 25.9404 72.3454 26.0754H68.1272C68.1179 25.892 68.1085 25.6965 68.1085 25.4879C68.1085 22.9681 68.1179 20.4475 68.0899 17.9277C68.0806 16.3 67.1494 15.3949 65.6968 15.53C64.7098 15.6277 63.8904 16.4472 63.6669 17.5851C63.5924 17.964 63.5551 18.3551 63.5551 18.735C63.5458 20.9615 63.5551 23.1879 63.5551 25.4273C63.5365 25.6229 63.5365 25.8305 63.5365 26.0754Z" fill="#A7A3B7"/>
<path d="M116.25 21.9894C117.554 21.9894 118.82 21.9773 120.077 22.0015C120.189 22.0015 120.329 22.197 120.403 22.3321C121.055 23.7018 123.262 24.2037 124.426 23.2371C125.115 22.6626 125.012 21.6104 124.137 21.2556C123.411 20.9614 122.619 20.8394 121.837 20.6438C120.999 20.4353 120.124 20.3012 119.304 20.0442C117.731 19.5544 116.734 18.5152 116.595 16.7776C116.446 15.0522 117.088 13.7187 118.541 12.8137C119.695 12.1041 120.98 11.8713 122.293 11.8592C123.504 11.8471 124.714 11.9812 125.841 12.5073C127.387 13.2178 128.262 14.4283 128.448 16.2022H124.593C124.137 14.4898 122.554 14.4162 121.222 14.8445C120.757 14.9917 120.468 15.3585 120.468 15.8967C120.468 16.4471 120.841 16.7162 121.269 16.8139C122.489 17.1082 123.709 17.3401 124.928 17.6213C125.403 17.7321 125.878 17.8662 126.325 18.0496C127.899 18.6614 128.756 19.8235 128.858 21.561C128.951 23.2008 128.374 24.5222 127.005 25.4273C125.841 26.1983 124.528 26.4553 123.178 26.5037C121.604 26.5651 120.068 26.3817 118.662 25.6107C117.302 24.8518 116.473 23.6897 116.25 21.9894Z" fill="#A7A3B7"/>
<path d="M136.438 22.8699V26.1122C134.911 26.2835 133.412 26.4428 131.959 25.831C130.553 25.2434 130.125 24.0078 130.115 22.5887C130.087 20.2766 130.106 17.9766 130.106 15.6636V15.0397C129.976 15.0155 129.901 14.9913 129.827 14.9792C128.793 14.9056 128.793 14.9056 128.793 13.8171C128.793 13.3887 128.793 12.9604 128.802 12.532C128.802 12.4706 128.83 12.4222 128.858 12.275H130.106V7.88273H134.268V12.2387H136.475C136.475 13.0824 136.484 13.8776 136.447 14.6607C136.447 14.7706 136.177 14.9419 136.028 14.9419C135.469 14.9792 134.901 14.954 134.268 14.954V16.3983V21.2794C134.268 22.4788 134.631 22.8457 135.795 22.8457C136 22.8699 136.196 22.8699 136.438 22.8699Z" fill="#A7A3B7"/>
<path d="M79.9717 12.2503V14.9786H77.951V17.3279V21.1075C77.951 22.5397 78.249 22.8572 79.6364 22.8823C79.7389 22.8823 79.832 22.8944 79.9623 22.9065V26.161C78.398 26.2708 76.8336 26.4785 75.3624 25.6954C74.4126 25.1944 73.9098 24.3135 73.8818 23.2492C73.8073 20.7658 73.8166 18.2824 73.798 15.8101V14.9907H72.4292V12.3117H73.7794V7.90729H77.951V12.2624C78.6401 12.2503 79.2826 12.2503 79.9717 12.2503Z" fill="#A7A3B7"/>
<path d="M94.3394 12.2869H98.3806V14.3299C99.0231 13.706 99.5539 13.0579 100.196 12.5802C100.867 12.0793 101.686 11.9815 102.552 12.0793V15.8347C102.143 15.8589 101.742 15.8468 101.37 15.9082C99.7029 16.1894 98.6507 17.4744 98.6134 19.3703C98.5669 21.3891 98.6041 23.4078 98.5948 25.4145V26.0747H94.3394V12.2869Z" fill="#A7A3B7"/>
<path d="M54.1133 12.2989H58.2942V26.0625H54.1133V12.2989Z" fill="#A7A3B7"/>
<path d="M58.7503 8.53112C58.7503 9.98654 57.605 11.1617 56.1896 11.1496C54.7742 11.1375 53.6382 9.96233 53.6382 8.50691C53.6382 7.06267 54.7928 5.87636 56.1989 5.87636C57.6143 5.90057 58.7503 7.07571 58.7503 8.53112Z" fill="#A7A3B7"/>
</svg>
