<svg width="239" height="14" viewBox="0 0 239 14" fill="none" xmlns="http://www.w3.org/2000/svg">
<path d="M193.498 8.63385C194.37 6.0778 195.156 3.69214 195.942 1.30649C196.117 0.79528 196.291 0.454473 196.903 0.454473C197.514 0.454473 198.126 0.368806 198.387 1.22082C199.086 3.60648 199.959 5.99306 200.745 8.46345C201.182 7.52669 201.268 6.67467 201.531 5.82172C201.968 4.20335 202.491 2.58405 202.928 0.965685C203.015 0.624878 203.189 0.454473 203.539 0.454473C205.46 0.454473 205.285 0.198402 204.849 1.98811C203.889 5.48092 202.84 8.97466 201.88 12.4684C201.793 12.8939 201.531 13.15 201.007 13.0643C200.483 13.0643 200.047 13.15 199.784 12.4684C198.998 9.91234 198.038 7.35536 197.252 4.7993C197.252 4.71457 197.165 4.54416 197.077 4.37376C196.641 5.14011 196.466 5.90739 196.205 6.67467C195.505 8.54818 194.895 10.5083 194.284 12.3827C194.109 12.9796 193.672 13.0643 193.148 13.0643C192.537 13.0643 192.363 12.8092 192.188 12.298C191.14 8.54818 190.092 4.7993 188.957 1.05042C188.782 0.454473 188.957 0.368806 189.568 0.368806C191.053 0.368806 191.053 0.368806 191.402 1.6473C191.926 3.60648 192.537 5.56658 193.061 7.52669C193.323 7.95224 193.41 8.20738 193.498 8.63385Z" fill="#A7A3B7"/>
<path d="M180.923 8.54872V6.50387V1.22136C180.923 0.710147 181.099 0.454076 181.709 0.454076C183.456 0.454076 183.281 0.283671 183.281 1.90297V12.2129C183.281 12.5537 183.456 12.9792 183.02 13.1496C182.583 13.32 182.059 13.32 181.709 12.8945C179.876 10.8496 178.042 8.80386 176.208 6.75994C175.685 6.2478 175.248 5.65185 174.724 5.14064C174.462 5.39671 174.55 5.65185 174.55 5.82226V12.3833C174.55 12.9792 174.375 13.2353 173.676 13.2353C171.93 13.2353 172.192 13.2353 172.192 11.7864V1.4765C172.192 1.13569 172.017 0.710146 172.454 0.624479C172.978 0.539742 173.415 0.539742 173.851 0.965286C176.034 3.52134 178.304 5.99266 180.574 8.46305C180.662 8.54872 180.662 8.63438 180.749 8.71912C180.749 8.63438 180.836 8.63438 180.923 8.54872Z" fill="#A7A3B7"/>
<path d="M36.4121 5.05511C36.238 5.31025 36.3246 5.56632 36.3246 5.82146V12.3825C36.3246 13.1498 36.238 13.2345 35.4521 13.2345C33.7928 13.2345 34.0544 13.3202 33.9669 11.8713V1.47663C33.9669 1.13583 33.7928 0.709352 34.2295 0.624616C34.7528 0.538948 35.1895 0.538949 35.6262 0.965424C37.8089 3.43581 39.9925 5.82146 42.1751 8.29278C42.3502 8.46319 42.4368 8.63359 42.6119 8.80399C42.6994 8.80399 42.6994 8.71926 42.7869 8.71926V7.69683V1.39097C42.7869 0.795019 42.961 0.624616 43.5719 0.624616C45.2312 0.624616 45.0571 0.454212 45.0571 2.07258V12.3825C45.0571 12.7233 45.2312 13.1498 44.7079 13.3202C44.1837 13.4906 43.7469 13.4049 43.3102 12.9793C41.1276 10.508 38.9449 8.03764 36.7613 5.65199C36.5872 5.31025 36.4997 5.22552 36.4121 5.05511Z" fill="#A7A3B7"/>
<path d="M141.805 2.58443H140.147C139.798 2.58443 139.623 2.6701 139.623 3.01091V6.07724C139.623 6.33331 139.71 6.50372 140.059 6.50372C141.195 6.50372 142.242 6.58938 143.377 6.50372C144.6 6.41805 145.211 5.6517 145.124 4.45887C145.036 3.35078 144.338 2.6701 143.116 2.6701C142.679 2.58443 142.242 2.58443 141.805 2.58443ZM137.265 6.75979V1.2212C137.265 0.709991 137.44 0.453919 138.051 0.453919C140.059 0.539586 142.068 0.283516 144.076 0.624323C145.822 0.880394 147.132 2.07322 147.394 3.69159C147.743 5.6517 146.957 7.4414 145.298 8.29342C144.861 8.46382 144.775 8.63423 145.124 9.05977C145.91 10.2526 146.696 11.4454 147.568 12.6382C147.918 13.1495 147.831 13.2351 147.219 13.2351H147.132C145.91 13.4055 145.124 13.0647 144.512 11.9566C143.989 11.0199 143.29 10.0822 142.679 9.23018C142.505 8.88937 142.242 8.80463 141.805 8.71896C139.623 8.63423 139.623 8.63423 139.623 10.7638V12.7239C139.623 13.0647 139.448 13.2351 139.098 13.2351H139.012C136.916 13.2351 137.265 13.3199 137.265 11.7015V6.75979Z" fill="#A7A3B7"/>
<path d="M4.36572 2.58436H2.88144C2.53225 2.58436 2.2706 2.67003 2.2706 3.09557V5.99243C2.2706 6.33324 2.35813 6.50365 2.79484 6.50365H5.93753C7.07263 6.50365 7.85853 5.65163 7.85853 4.62921C7.85853 3.43638 6.98603 2.67003 5.76341 2.67003C5.23916 2.58436 4.80244 2.58436 4.36572 2.58436ZM0.000408214 6.84445V1.22113C0.000408214 0.709921 0.174537 0.45385 0.786314 0.45385C2.79484 0.539517 4.71584 0.283446 6.72344 0.539517C8.55784 0.794657 9.86706 1.98748 10.1287 3.43638C10.4788 5.56689 9.77953 7.27093 8.03359 8.20768C7.50935 8.46375 7.59688 8.71889 7.77193 8.97497C8.55784 10.1678 9.34375 11.3606 10.2163 12.5534C10.5654 12.979 10.3913 13.1494 9.86706 13.1494C8.64444 13.2351 7.77193 13.0647 7.16016 11.8718C6.63684 10.8494 5.93753 9.99739 5.32669 9.0597C5.06503 8.80456 4.88997 8.63416 4.45325 8.63416H2.88144C2.35813 8.63416 2.18307 8.80456 2.18307 9.31577V12.4678C2.18307 12.8943 2.00894 13.1494 1.57222 13.1494C-0.34878 13.1494 0.000408214 13.2351 0.000408214 11.7862V6.84445Z" fill="#A7A3B7"/>
<path d="M17.2021 6.75952V1.30661C17.2021 0.709726 17.3772 0.454586 17.9881 0.454586H25.672C26.2838 0.454586 26.5455 0.62499 26.5455 1.30661C26.5455 2.75457 26.633 2.58417 25.1478 2.66983H20.2582C19.7349 2.66983 19.4723 2.75457 19.4723 3.35145C19.5599 3.9474 19.4723 4.45861 19.4723 5.05549C19.4723 5.5667 19.6474 5.7371 20.1707 5.7371H25.0612C25.672 5.7371 25.8471 5.9075 25.8471 6.50345C25.8471 7.86668 25.8471 7.86668 24.4494 7.86668H20.1707C19.6474 7.86668 19.4723 8.03802 19.4723 8.5483V10.5084C19.4723 11.0196 19.6474 11.1053 20.1707 11.1053H25.672C26.2838 11.1053 26.5455 11.2757 26.5455 11.9573C26.5455 13.2349 26.5455 13.2349 25.1478 13.2349H18.0756C17.2021 13.2349 17.2021 13.1501 17.2021 12.3828V6.75952Z" fill="#A7A3B7"/>
<path d="M116.571 0.454342H120.5C121.024 0.454342 121.199 0.624745 121.199 1.13596C121.199 2.75433 121.285 2.58485 119.801 2.58485H114.824C114.301 2.58485 114.126 2.75433 114.126 3.1808V4.88484C114.126 5.48172 114.301 5.65212 114.911 5.65212H119.801C120.413 5.65212 120.587 5.82252 120.587 6.41847C120.587 7.7817 120.587 7.7817 119.19 7.7817H114.911C114.387 7.7817 114.213 7.9521 114.213 8.46332V10.5082C114.213 11.0194 114.387 11.105 114.911 11.105H120.5C121.111 11.105 121.285 11.2754 121.285 11.8714C121.285 13.2346 121.286 13.2346 119.889 13.2346H112.816C112.03 13.2346 111.943 13.1499 111.943 12.3835V1.30636C111.943 0.709482 112.117 0.454342 112.816 0.454342C114.038 0.540009 115.348 0.454342 116.571 0.454342Z" fill="#A7A3B7"/>
<path d="M104.52 6.84443V12.4678C104.52 12.979 104.346 13.1494 103.822 13.1494C101.989 13.1494 102.338 13.1494 102.338 11.7861V8.46373C102.338 7.95159 102.25 7.78212 101.639 7.78212H96.4873C95.964 7.78212 95.7889 7.95159 95.8765 8.46373V12.5534C95.8765 13.0646 95.7014 13.3198 95.1781 13.3198C93.3437 13.3198 93.6063 13.4054 93.6063 11.7861V1.64665C93.6063 0.62423 93.6063 0.624231 94.6538 0.624231C95.8765 0.624231 95.8765 0.62423 95.8765 1.81706V5.14039C95.8765 5.56594 96.0506 5.73634 96.4873 5.73634H101.727C102.163 5.73634 102.338 5.56594 102.338 5.14039V1.30585C102.338 0.794634 102.512 0.624231 103.036 0.624231C104.87 0.624231 104.52 0.539495 104.52 2.07313V6.84443Z" fill="#A7A3B7"/>
<path d="M216.026 3.77722C215.415 5.05478 214.891 6.24854 214.366 7.44137C214.28 7.69651 214.28 7.86691 214.629 7.86691H217.423C217.773 7.86691 217.859 7.69651 217.685 7.44137C217.161 6.24854 216.638 5.05478 216.026 3.77722ZM210.961 13.1494C209.477 13.1494 209.477 13.1494 210.001 11.9566C211.66 8.29339 213.319 4.71398 214.891 1.05076C215.066 0.624288 215.327 0.369147 215.852 0.369147C216.375 0.369147 216.899 0.283481 217.248 0.965096C218.471 3.69155 219.78 6.50368 221.003 9.23014C221.527 10.3382 221.964 11.3607 222.487 12.4678C222.75 12.979 222.575 13.0647 222.05 13.0647H221.964C219.955 13.0647 220.217 13.3198 219.606 11.7015C219.082 10.1678 218.208 9.65661 216.55 9.82702C215.677 9.99742 214.803 9.82702 213.931 9.82702C213.494 9.82702 213.231 9.99742 213.057 10.3382C212.796 10.9342 212.445 11.4454 212.271 12.0423C212.096 12.979 211.66 13.4055 210.961 13.1494Z" fill="#A7A3B7"/>
<path d="M154.029 4.88479V1.22064C154.029 0.709431 154.204 0.45429 154.815 0.45429C156.212 0.45429 156.212 0.45429 156.212 1.81752V7.95205C156.212 8.46326 156.212 8.88974 156.3 9.40095C156.824 11.105 158.133 11.7009 159.792 11.6162C161.975 11.4458 162.674 9.9969 162.674 8.37853C162.761 5.99288 162.674 3.69196 162.674 1.30631C162.674 0.709431 162.849 0.45429 163.547 0.539026C164.857 0.539026 164.945 0.539026 164.857 1.81752C164.857 4.20317 165.031 6.50409 164.77 8.88974C164.42 12.4682 161.713 13.8314 158.57 13.4906C156.998 13.3202 155.601 12.7234 154.728 11.3601C154.204 10.5081 153.942 9.57135 153.942 8.54893C154.029 7.27044 154.029 6.07761 154.029 4.88479Z" fill="#A7A3B7"/>
<path d="M81.9924 0.454118H86.7069C87.3187 0.454118 87.6679 0.624521 87.5803 1.30614C87.4928 2.75503 87.6679 2.58463 86.1836 2.58463H83.8259C83.215 2.58463 83.04 2.75503 83.04 3.35098V12.0425C83.04 13.1497 83.04 13.1497 81.9049 13.1497C80.7698 13.1497 80.7698 13.1497 80.7698 11.9568V3.26624C80.7698 2.66936 80.5947 2.49896 79.9839 2.49896C78.9363 2.58463 77.9753 2.49896 76.9278 2.49896C76.4911 2.49896 76.2294 2.32856 76.2294 1.81735C76.2294 0.11331 76.1419 0.369382 77.7137 0.283714C79.198 0.454118 80.5947 0.454118 81.9924 0.454118Z" fill="#A7A3B7"/>
<path d="M57.1068 0.454118H61.8213C62.4331 0.454118 62.6948 0.624521 62.6948 1.30614C62.6072 2.7541 62.7823 2.58463 61.298 2.58463H58.9403C58.3285 2.58463 58.0669 2.7541 58.0669 3.35098V12.2976C58.0669 12.9793 57.8918 13.1497 57.1934 13.1497C55.7091 13.1497 55.7091 13.1497 55.7091 11.7864V3.18058C55.7091 2.66937 55.6216 2.49896 55.0983 2.58463H51.9547C51.4304 2.58463 51.2563 2.41329 51.2563 1.90208C51.2563 0.198047 51.0812 0.454118 52.7406 0.454118H57.1068Z" fill="#A7A3B7"/>
<path d="M231.132 9.91191C231.569 7.86707 230.783 6.24777 229.387 4.71413C228.338 3.60698 227.465 2.32848 226.417 1.13566C226.329 0.965252 226.068 0.794848 226.155 0.624445C226.243 0.454041 226.505 0.539709 226.68 0.539709C228.775 0.454041 228.775 0.454041 229.91 1.98767C230.608 2.83969 231.22 3.69171 231.918 4.54373C232.18 4.9702 232.355 4.88454 232.704 4.54373C233.49 3.43657 234.364 2.32848 235.236 1.22132C235.585 0.710112 236.022 0.454041 236.72 0.539709C237.157 0.624445 237.506 0.539709 237.943 0.539709C238.118 0.539709 238.38 0.454041 238.467 0.710113C238.555 0.880516 238.292 1.05092 238.206 1.22132C236.808 3.0101 235.324 4.7998 233.927 6.58857C233.578 7.01505 233.49 7.35586 233.49 7.86707V12.5536C233.49 13.0639 233.315 13.32 232.792 13.2352C230.957 13.2352 231.307 13.32 231.307 11.8711C231.132 11.1904 231.132 10.5935 231.132 9.91191Z" fill="#A7A3B7"/>
</svg>
