<svg width="77" height="54" viewBox="0 0 77 54" fill="none" xmlns="http://www.w3.org/2000/svg">
<path d="M52.2339 25.3452V27.8659C52.2339 28.8567 52.1221 28.7719 53.1259 28.7719C53.572 28.7719 53.5999 28.743 53.5999 28.2905V25.4588C53.5999 25.0621 53.6278 24.6655 53.7396 24.2688C53.9631 23.4475 54.5488 23.0229 55.385 23.0518C55.9148 23.0797 55.9148 23.0797 56.0824 22.5703C56.1103 22.4847 56.1383 22.372 56.1941 22.2863C56.3059 22.0321 56.2221 21.9185 55.9427 21.8617C55.1903 21.7202 54.4929 21.777 53.8793 22.2863C53.7116 22.4279 53.5999 22.4567 53.5999 22.1737C53.5999 21.9753 53.4891 21.8906 53.2936 21.8906H52.7358C52.2898 21.8906 52.2339 21.9465 52.2339 22.3999V25.3452ZM24.3715 23.901V27.8938C24.3715 28.8287 24.2597 28.744 25.2086 28.744C25.7384 28.744 25.7384 28.7151 25.7664 28.1769V19.9361C25.7664 18.9164 25.906 19.0021 24.8184 19.0021C24.4274 19.0021 24.3715 19.03 24.3715 19.4547V23.901ZM59.9588 28.9135C60.1823 28.9135 60.4328 28.9135 60.6563 28.8855C60.8239 28.8566 60.9906 28.8287 61.1582 28.7999C61.8836 28.6304 61.8836 28.6304 61.6322 27.9227C61.6042 27.8659 61.6042 27.8091 61.5763 27.7523C61.5213 27.5539 61.3817 27.4971 61.1861 27.5539C60.9077 27.6675 60.6004 27.6955 60.2941 27.7243C59.2344 27.837 58.3973 27.3277 58.1179 26.3928C57.8954 25.6562 57.8954 24.8917 58.1738 24.1561C58.4252 23.4764 58.8992 23.0518 59.6525 22.9661C60.0147 22.9102 60.3779 22.9381 60.7122 23.0229C61.4934 23.1933 61.3817 23.1933 61.6601 22.4279C61.7718 22.1448 61.6601 22.0601 61.4096 21.9753C60.768 21.777 60.1265 21.7481 59.4849 21.8049C58.2576 21.8906 57.3376 22.4847 56.8636 23.6458C56.3888 24.7791 56.4167 25.9682 56.8636 27.1293C56.9745 27.4403 57.17 27.7243 57.3935 27.9786C58.09 28.7151 58.983 28.9135 59.9588 28.9135ZM36.6992 28.9414C37.1732 28.9414 37.6751 28.8855 38.149 28.6304C38.8744 28.2626 39.1808 27.6387 39.2366 26.8463C39.2646 26.0529 38.8744 25.5436 38.2328 25.1757C37.8427 24.9485 37.4246 24.807 37.0056 24.6655C36.6713 24.5519 36.3081 24.4671 36.0018 24.2688C35.7504 24.0993 35.5278 23.901 35.5557 23.5611C35.5837 23.2501 35.8342 22.9949 36.1973 22.9102C36.364 22.8813 36.5316 22.8534 36.6992 22.8534C37.1732 22.8813 37.6192 22.9661 38.0652 23.1365C38.7347 23.3916 38.7347 23.3916 38.9582 22.683C39.042 22.4567 38.9862 22.2863 38.7627 22.1737C38.4843 22.0321 38.177 21.8906 37.8427 21.8338C36.8938 21.6075 35.9459 21.5786 35.0538 22.1169C34.0212 22.7398 33.7148 24.7223 35.1646 25.43C35.5278 25.6004 35.918 25.7419 36.3081 25.8834C36.6713 25.9961 37.0614 26.1097 37.3967 26.308C37.9544 26.6479 37.9824 27.2988 37.4246 27.6387C37.229 27.7523 37.0056 27.8091 36.783 27.8091C36.1414 27.837 35.5557 27.6675 34.97 27.3845C34.3005 27.0157 34.3005 27.0446 34.0491 27.7523C33.9383 28.0354 34.0212 28.1769 34.2726 28.3184C35.0538 28.744 35.8062 28.9414 36.6992 28.9414ZM13.8577 28.9414C14.3875 28.9414 14.9173 28.8566 15.3913 28.6304C16.1167 28.2626 16.423 27.6107 16.451 26.8463C16.4789 26.0818 16.1167 25.5436 15.4751 25.2037C15.084 25.0053 14.6659 24.8638 14.2758 24.7223C13.9135 24.6087 13.5224 24.496 13.1882 24.2977C12.9367 24.1561 12.7971 23.9289 12.7971 23.6179C12.825 23.306 12.9926 23.1076 13.272 22.9949C13.4666 22.9102 13.6621 22.8813 13.8577 22.9102C14.3316 22.9381 14.8056 23.0229 15.2516 23.1933C15.9211 23.4475 15.9211 23.4475 16.1725 22.7398C16.2554 22.4847 16.2005 22.3431 15.977 22.2305C15.057 21.777 14.1082 21.6354 13.1044 21.8338C12.1006 22.0321 11.4869 22.7677 11.4031 23.7594C11.3472 24.6375 11.8212 25.3163 12.7971 25.6562C13.272 25.8266 13.718 25.9682 14.192 26.1386C14.4154 26.2233 14.6101 26.2801 14.7777 26.4216C15.1399 26.7047 15.1399 27.2429 14.8056 27.5539C14.6101 27.7523 14.3596 27.837 14.0802 27.837C13.4107 27.8659 12.7971 27.7243 12.2114 27.4124C11.5148 27.0446 11.5428 27.0446 11.2634 27.8091C11.1796 28.0633 11.2355 28.2058 11.459 28.3184C12.2114 28.744 12.9926 28.9414 13.8577 28.9414ZM51.0066 25.43C51.0066 24.496 50.8949 23.6747 50.365 22.9381C49.5558 21.8338 48.4403 21.5786 47.186 21.8049C46.0695 22.0033 45.3451 22.7119 44.954 23.7874C44.7315 24.4392 44.6756 25.1189 44.7315 25.7987C44.8711 27.6387 45.8749 28.7719 47.632 28.9135C49.1098 29.0271 50.3092 28.3184 50.7831 26.8463C50.9507 26.3648 51.0345 25.8834 51.0066 25.43ZM30.7863 25.6851H32.6551C32.9615 25.6851 33.0732 25.5715 33.0732 25.2605C33.0732 24.9774 33.0732 24.6655 33.0453 24.3824C32.9615 23.1644 32.2371 22.2016 31.2323 21.8906C29.9501 21.4939 28.5552 21.8617 27.8298 22.8245C27.0495 23.8162 26.9657 24.9774 27.1054 26.1665C27.3 27.6387 28.2209 28.6024 29.6708 28.8566C30.5079 28.9982 31.3161 28.9414 32.1253 28.744C32.8507 28.5456 32.8507 28.5168 32.6272 27.7802C32.5155 27.4692 32.3758 27.4124 32.0694 27.526C31.5396 27.7243 30.9539 27.7802 30.3961 27.7523C29.3085 27.6955 28.667 27.1005 28.5552 26.0818C28.5273 25.7987 28.6111 25.713 28.8616 25.713C29.5031 25.6851 30.1447 25.6851 30.7863 25.6851ZM22.8937 25.9961C22.8937 25.2884 22.8937 24.5807 22.8658 23.901C22.8378 22.7966 22.2242 22.0601 21.1645 21.8617C20.1887 21.6634 19.2398 21.7481 18.2919 22.0601C17.6224 22.2863 17.5665 22.372 17.8459 23.0518C17.9567 23.3348 18.0684 23.4196 18.3757 23.278C19.0731 22.9661 19.8255 22.8245 20.6068 22.9661C21.1925 23.0797 21.4709 23.3916 21.5547 23.9857C21.6106 24.4103 21.5547 24.4671 21.1087 24.4392C20.2716 24.3824 19.4074 24.3256 18.5982 24.6943C17.6224 25.1189 17.1763 25.9682 17.2881 27.0725C17.371 27.9786 17.9846 28.6024 18.9893 28.7999C20.2166 29.055 21.415 28.8287 22.6144 28.5456C22.8378 28.4888 22.8658 28.3184 22.8658 28.1201C22.8937 27.4403 22.8937 26.7047 22.8937 25.9961ZM66.0114 25.6851H67.9073C68.1308 25.6851 68.2705 25.6004 68.2984 25.3452C68.3543 24.496 68.2704 23.6747 67.7965 22.9381C67.099 21.8617 66.0673 21.6075 64.8959 21.777C63.7245 21.9465 62.9153 22.6262 62.5252 23.7594C62.2458 24.5807 62.1899 25.43 62.3296 26.2801C62.581 27.7243 63.501 28.6583 64.9238 28.8566C65.7042 28.9703 66.5133 28.9414 67.2666 28.744C68.047 28.5456 68.0749 28.4888 67.7965 27.7243C67.7127 27.4692 67.573 27.4124 67.3216 27.4971C66.7638 27.6955 66.1781 27.7802 65.5645 27.7523C64.5327 27.6955 63.9191 27.1861 63.7524 26.2233C63.6686 25.7987 63.7245 25.713 64.1426 25.713C64.8121 25.6851 65.4257 25.6851 66.0114 25.6851ZM38.9024 32.0003C40.2414 32.0003 40.9938 31.4621 41.4407 30.2162C41.6633 29.5932 41.775 28.9135 41.8867 28.2626C42.1652 26.6759 42.4445 25.0901 42.695 23.5043C42.7509 23.1644 42.8905 22.9949 43.2248 23.0229C43.5042 23.0517 43.7547 23.0229 44.034 23.0229C44.2575 23.0229 44.3683 22.9381 44.3962 22.7119C44.5918 21.8617 44.5918 21.8617 43.7547 21.8617C42.9185 21.8617 42.9185 21.8617 43.142 21.0404C43.3366 20.3327 43.7826 19.964 44.48 20.0208C45.1496 20.0497 45.1775 20.0497 45.401 19.3699C45.4289 19.3131 45.4289 19.2852 45.4568 19.2284C45.5118 19.0868 45.4568 18.9732 45.3172 18.9453C44.3683 18.747 43.4483 18.719 42.6671 19.4267C42.1093 19.9361 41.8867 20.6158 41.7471 21.3524C41.6353 21.8617 41.6633 21.8617 41.1334 21.8617H40.9658C40.6315 21.8338 40.4919 21.9753 40.436 22.3152C40.3242 23.0229 40.3242 23.0229 40.9938 23.0229C41.4128 23.0229 41.4407 23.0518 41.3569 23.5043C41.1893 24.3824 41.0496 25.2605 40.882 26.1386C40.6595 27.2709 40.5477 28.46 40.2134 29.5643C39.9341 30.6128 39.516 30.8959 38.4843 30.6976C38.2887 30.6696 38.2049 30.7255 38.1211 30.8959C37.7589 31.7172 37.8148 31.8299 38.6789 31.9435C38.7627 31.9714 38.8465 32.0003 38.9024 32.0003ZM0.190918 33.303V31.0654C0.218853 30.9527 0.246786 30.867 0.246786 30.7544C0.748685 26.62 2.70135 23.4196 6.13177 21.1261C6.41112 20.9278 6.46606 20.7862 6.35525 20.4463C5.32258 17.8409 5.04416 15.1219 5.54606 12.347C6.60573 6.34288 11.0409 1.64234 16.9249 0.310772C17.5665 0.169235 18.236 0.112434 18.9055 -0.000236511H21.2483C21.3601 0.0276985 21.443 0.0565643 21.5547 0.0565643C22.6144 0.169235 23.6191 0.367573 24.6229 0.707447C27.4117 1.64234 29.7266 3.25605 31.5675 5.54952C31.7342 5.77673 31.8739 5.83353 32.0974 5.60632C32.3758 5.32325 32.6831 5.04017 32.9894 4.78503C36.0018 2.32116 39.4322 1.2736 43.2807 1.81181C47.4924 2.40683 50.6993 4.67236 52.9583 8.32533C53.1259 8.60841 53.2656 8.66521 53.5999 8.55161C56.0545 7.53198 58.6208 7.10737 61.2699 7.36251C68.3543 8.07019 74.0437 13.1115 75.7449 20.1344C75.9675 21.0125 76.0513 21.8906 76.191 22.7677V25.3452C76.163 25.6562 76.1072 25.9682 76.0792 26.2801C75.4935 30.6128 73.5697 34.209 70.2501 37.0127C66.4016 40.2411 61.9674 41.4023 57.0583 40.6089C56.7519 40.553 56.5564 40.6089 56.3887 40.8929C55.776 41.9684 54.9948 42.9313 54.0469 43.7246C50.2253 46.9241 46.0146 47.6038 41.4128 45.7629C40.9379 45.5655 40.9658 45.5655 40.7153 46.0181C38.7347 50.0677 35.6116 52.6163 31.2603 53.6648C30.6746 53.8064 30.0609 53.8622 29.4473 53.9758H27.2441C27.0775 53.9479 26.8819 53.919 26.7143 53.8911C21.4709 53.0977 17.79 50.2381 15.6977 45.3104C15.5868 45.0273 15.4472 44.9426 15.1399 44.9984C13.9685 45.2256 12.7971 45.2536 11.5987 45.1409C6.0759 44.517 1.58581 40.3547 0.498201 34.832C0.358526 34.3226 0.274723 33.8123 0.190918 33.303Z" fill="#A7A3B7"/>
<path d="M65.3428 24.6086H64.1155C63.8641 24.6086 63.8082 24.5239 63.8361 24.2688C64.0037 23.278 64.7012 22.7677 65.6491 22.8813C66.3186 22.9661 66.9323 23.6458 66.9043 24.3256C66.9043 24.5518 66.7646 24.5807 66.597 24.5807C66.2069 24.6086 65.7609 24.6086 65.3428 24.6086Z" fill="#A7A3B7"/>
<path d="M21.5557 26.6481V27.1575C21.5557 27.6677 21.5278 27.6677 21.0259 27.7525C20.4961 27.8372 19.9662 27.894 19.4364 27.7525C18.9345 27.6109 18.6831 27.3279 18.6552 26.8464C18.6272 26.2514 18.8507 25.8548 19.3526 25.6853C19.9942 25.459 20.6637 25.5149 21.3323 25.6005C21.4999 25.6285 21.5557 25.7421 21.5557 25.9116V26.6481Z" fill="#A7A3B7"/>
<path d="M30.146 24.6086H28.8629C28.6953 24.6086 28.5845 24.5518 28.5845 24.3535C28.6124 23.8153 29.0864 23.1644 29.5883 22.9661C30.2298 22.7398 30.8994 22.9093 31.2895 23.3627C31.513 23.6179 31.5959 23.9289 31.6517 24.2688C31.6797 24.495 31.6238 24.6086 31.3733 24.6086H30.146Z" fill="#A7A3B7"/>
<path d="M49.5568 25.373C49.5847 25.8544 49.5288 26.3079 49.3612 26.7604C49.1107 27.4402 48.6088 27.78 47.9114 27.78C47.2139 27.78 46.712 27.4681 46.4606 26.7893C46.0984 25.8264 46.0984 24.8636 46.4606 23.8999C46.6841 23.249 47.2139 22.9091 47.9114 22.9091C48.6088 22.9091 49.1107 23.221 49.3612 23.8999C49.5288 24.3533 49.5847 24.8636 49.5568 25.373Z" fill="#A7A3B7"/>
</svg>
