<svg width="120" height="120" viewBox="0 0 120 120" fill="none" xmlns="http://www.w3.org/2000/svg">
<path d="M53.8502 91.5C46.4037 91.5 39.1245 89.2918 32.933 85.1548C26.7415 81.0178 21.9158 75.1376 19.0661 68.258C16.2165 61.3784 15.4709 53.8082 16.9236 46.5048C18.3764 39.2014 21.9622 32.4928 27.2276 27.2274C32.4931 21.962 39.2017 18.3761 46.5051 16.9234C53.8084 15.4707 61.3786 16.2163 68.2582 19.0659C75.1379 21.9155 81.018 26.7412 85.155 32.9327C89.2921 39.1243 91.5002 46.4035 91.5002 53.85C91.5002 58.7942 90.5264 63.6901 88.6343 68.258C86.7422 72.8259 83.9689 76.9764 80.4728 80.4725C76.9767 83.9687 72.8262 86.7419 68.2582 88.634C63.6903 90.5261 58.7945 91.5 53.8502 91.5ZM53.8502 23.75C47.9168 23.75 42.1166 25.5094 37.1831 28.8059C32.2496 32.1023 28.4045 36.7877 26.1338 42.2695C23.8632 47.7512 23.2691 53.7832 24.4267 59.6027C25.5842 65.4221 28.4414 70.7676 32.637 74.9632C36.8326 79.1587 42.1781 82.016 47.9975 83.1735C53.8169 84.3311 59.8489 83.737 65.3307 81.4664C70.8125 79.1957 75.4979 75.3506 78.7943 70.4171C82.0907 65.4836 83.8502 59.6834 83.8502 53.75C83.8502 45.7935 80.6895 38.1629 75.0634 32.5368C69.4373 26.9107 61.8067 23.75 53.8502 23.75Z" fill="#281E59"/>
<path d="M100 103.75C99.5073 103.752 99.0191 103.656 98.564 103.467C98.109 103.278 97.6962 103.001 97.35 102.65L76.7 82C76.0376 81.2891 75.677 80.3489 75.6941 79.3774C75.7113 78.4059 76.1048 77.479 76.7919 76.7919C77.479 76.1048 78.4059 75.7113 79.3774 75.6941C80.3489 75.677 81.2891 76.0376 82 76.7L102.65 97.35C103.352 98.0531 103.747 99.0062 103.747 100C103.747 100.994 103.352 101.947 102.65 102.65C102.304 103.001 101.891 103.278 101.436 103.467C100.981 103.656 100.493 103.752 100 103.75ZM53.75 70C52.7595 69.987 51.8131 69.5878 51.1127 68.8873C50.4122 68.1869 50.0129 67.2405 50 66.25V41.25C50 40.2554 50.3951 39.3016 51.0984 38.5983C51.8016 37.8951 52.7554 37.5 53.75 37.5C54.7446 37.5 55.6984 37.8951 56.4016 38.5983C57.1049 39.3016 57.5 40.2554 57.5 41.25V66.25C57.4871 67.2405 57.0878 68.1869 56.3873 68.8873C55.6869 69.5878 54.7405 69.987 53.75 70Z" fill="#281E59"/>
<path d="M66.25 57.5H41.25C40.2554 57.5 39.3016 57.1049 38.5983 56.4016C37.8951 55.6984 37.5 54.7446 37.5 53.75C37.5 52.7554 37.8951 51.8016 38.5983 51.0984C39.3016 50.3951 40.2554 50 41.25 50H66.25C67.2446 50 68.1984 50.3951 68.9017 51.0984C69.6049 51.8016 70 52.7554 70 53.75C70 54.7446 69.6049 55.6984 68.9017 56.4016C68.1984 57.1049 67.2446 57.5 66.25 57.5Z" fill="#281E59"/>
</svg>
